<?xml version="1.0" encoding="utf-8"?>
<!-- Generator: Adobe Illustrator 17.0.0, SVG Export Plug-In . SVG Version: 6.00 Build 0)  -->
<!DOCTYPE svg PUBLIC "-//W3C//DTD SVG 1.1//EN" "http://www.w3.org/Graphics/SVG/1.1/DTD/svg11.dtd">
<svg version="1.1" id="Layer_1" xmlns="http://www.w3.org/2000/svg" xmlns:xlink="http://www.w3.org/1999/xlink" x="0px" y="0px"
	 width="132.231px" height="132.433px" viewBox="0 0 132.231 132.433" enable-background="new 0 0 132.231 132.433"
	 xml:space="preserve">
<g>
	<circle fill="#222944" cx="66.115" cy="66.217" r="65.2"/>
	<g>
		<path fill="#FFFFFF" d="M14.863,61.889l-0.009,2.408l2.593-0.655l0.009-2.408l1.618-0.409l0.011,2.402l2.074-0.524l0.025,1.582
			l-2.074,0.525l0.019,3.039l2.074-0.525l0.004,1.589l-2.074,0.524l0.011,2.403l-1.618,0.409l-0.033-2.397l-2.593,0.655l0.032,2.397
			l-1.638,0.414l-0.033-2.397l-2.074,0.525l-0.004-1.589l2.074-0.525l-0.019-3.039l-2.074,0.525l-0.024-1.583l2.073-0.524
			l0.01-2.408L14.863,61.889z M14.897,68.919l2.593-0.655l-0.018-3.039l-2.593,0.655L14.897,68.919z"/>
		<path fill="#FFFFFF" d="M29.443,54.01c1.638-0.414,3.163-0.579,5.062-0.485l-0.295,2.237c-2.247,0.016-3.206,0.149-4.326,0.432
			c-2.945,0.745-3.556,3.127-3.237,6.136c0.351,3.221,1.461,5.169,4.385,4.43c1.12-0.283,2.048-0.628,4.177-1.719l0.763,1.97
			c-1.772,1.022-3.254,1.616-4.893,2.031c-4.894,1.237-6.501-1.887-6.963-6.073C23.655,58.872,24.548,55.248,29.443,54.01z"/>
		<path fill="#FFFFFF" d="M36.894,61.836c-0.383-3.346,0.711-5.917,4.278-6.819c3.567-0.902,5.149,0.993,5.511,4.344
			c0.362,3.35-0.731,5.921-4.299,6.823C38.817,67.087,37.235,65.192,36.894,61.836z M39.3,61.227
			c0.208,2.132,0.948,3.489,2.877,3.002c1.929-0.487,2.308-2.128,2.101-4.26c-0.229-2.127-0.949-3.49-2.878-3.002
			C39.471,57.455,39.071,59.101,39.3,61.227z"/>
		<path fill="#FFFFFF" d="M52.204,63.481l-2.281,0.576l-1.17-10.736l2.281-0.577l0.149,1.463l0.042-0.01
			c0.832-1.248,1.956-2.215,3.345-2.567c2.074-0.524,3.254,0.567,3.504,2.777l0.808,7.386l-2.281,0.577l-0.739-6.852
			c-0.154-1.307-0.732-2.021-2.101-1.676c-1.016,0.257-1.922,1.126-2.445,1.677L52.204,63.481z"/>
		<path fill="#FFFFFF" d="M61.57,51.823l-1.472,0.373l-0.17-1.545l1.477-0.528l-0.07-3.071l2.012-0.509l0.34,3.004l2.738-0.693
			l0.186,1.696l-2.759,0.697l0.627,5.535c0.101,1.188,0.591,1.727,1.815,1.417c0.27-0.068,0.591-0.194,0.99-0.361l0.425,1.768
			c-0.575,0.256-1.472,0.549-1.991,0.68c-2.24,0.566-3.243-0.172-3.504-2.512L61.57,51.823z"/>
		<path fill="#FFFFFF" d="M71.464,47.579l1.17,10.737l-2.281,0.576l-1.17-10.736L71.464,47.579z M71.038,43.714l0.293,2.817
			l-2.282,0.577l-0.293-2.817L71.038,43.714z"/>
		<path fill="#FFFFFF" d="M82.037,54.835l-0.041,0.011c-0.605,0.925-1.739,1.764-2.921,2.062c-2.903,0.734-4.072-1.53-4.391-4.626
			c-0.361-3.086,0.421-5.843,3.324-6.577c1.1-0.278,2.334-0.106,3.161,0.458l0.041-0.011l0.298-1.178l1.742-0.441l1.112,10.332
			c0.32,3.009-0.753,5.31-4.653,6.296c-1.306,0.331-2.365,0.422-3.646,0.414l0.223-1.998c1.723,0.006,2.469-0.183,3.216-0.371
			c1.887-0.477,2.839-1.512,2.6-3.769L82.037,54.835z M79.779,54.722c1.016-0.257,1.746-0.95,2.108-1.35l-0.617-5.668
			c-0.426-0.202-1.252-0.501-2.269-0.244c-1.804,0.457-2.147,2.242-1.913,4.214C77.307,53.67,77.996,55.173,79.779,54.722z"/>
		<path fill="#FFFFFF" d="M86.505,49.293c-0.383-3.346,0.711-5.917,4.278-6.819c3.567-0.902,5.149,0.993,5.511,4.344
			c0.362,3.35-0.731,5.921-4.299,6.823C88.429,54.544,86.846,52.649,86.505,49.293z M88.911,48.684
			c0.207,2.132,0.948,3.489,2.877,3.002c1.929-0.487,2.308-2.128,2.101-4.26c-0.229-2.127-0.949-3.49-2.878-3.002
			C89.083,44.912,88.682,46.558,88.911,48.684z"/>
		<path fill="#FFFFFF" d="M16.976,94.684L15.38,80.083l2.406-0.609l0.638,5.929l6.015-1.52L23.8,77.954l2.406-0.609l1.595,14.601
			l-2.405,0.609l-0.723-6.437l-6.014,1.521l0.723,6.436L16.976,94.684z"/>
		<path fill="#FFFFFF" d="M37.433,88.409l-0.041,0.011c-0.605,0.926-1.739,1.763-2.921,2.062c-2.903,0.734-4.071-1.529-4.391-4.627
			c-0.361-3.086,0.42-5.843,3.324-6.577c1.1-0.278,2.335-0.105,3.161,0.458l0.041-0.011l0.298-1.178l1.742-0.44L39.81,88.91
			l-2.281,0.577L37.433,88.409z M35.176,88.296c1.016-0.257,1.746-0.949,2.108-1.35l-0.617-5.669
			c-0.426-0.202-1.252-0.5-2.269-0.243c-1.804,0.456-2.148,2.242-1.914,4.213C32.703,87.244,33.392,88.747,35.176,88.296z"/>
		<path fill="#FFFFFF" d="M46.977,87.319c-1.638,0.415-3.36,0.674-4.641,0.667l0.202-1.994c1.744,0.001,3.232-0.309,3.978-0.498
			c1.618-0.408,1.849-1.416,1.796-1.8c-0.054-0.649-0.625-0.901-2.213-0.809c-2.303,0.141-4.125-0.17-4.365-2.515
			c-0.239-2.169,1.148-3.49,3.616-4.114c1.639-0.414,3.029-0.59,4.31-0.583l-0.202,1.993c-1.722-0.006-3.024,0.257-3.771,0.446
			c-1.556,0.393-1.714,1.25-1.688,1.618c0.064,0.602,0.454,0.923,2.098,0.882c2.122-0.073,4.234-0.011,4.474,2.333
			C50.832,85.199,49.445,86.695,46.977,87.319z"/>
		<path fill="#FFFFFF" d="M53.304,76.209l-1.472,0.372l-0.17-1.545l1.477-0.528l-0.07-3.071l2.012-0.508l0.34,3.003l2.738-0.693
			l0.186,1.696l-2.759,0.697l0.628,5.535c0.101,1.188,0.59,1.727,1.814,1.418c0.27-0.068,0.591-0.194,0.99-0.361l0.425,1.768
			c-0.575,0.256-1.472,0.548-1.99,0.679c-2.24,0.566-3.243-0.173-3.504-2.512L53.304,76.209z"/>
		<path fill="#FFFFFF" d="M67.756,80.743l-0.041,0.01c-0.605,0.926-1.739,1.763-2.922,2.062c-2.903,0.734-4.071-1.529-4.391-4.626
			c-0.361-3.087,0.42-5.844,3.323-6.578c1.1-0.278,2.335-0.105,3.162,0.458l0.041-0.01l0.298-1.179l1.742-0.44l1.165,10.804
			l-2.282,0.577L67.756,80.743z M65.499,80.629c1.017-0.257,1.746-0.949,2.109-1.349l-0.617-5.67
			c-0.426-0.202-1.252-0.5-2.268-0.243c-1.805,0.456-2.148,2.242-1.914,4.213C63.026,79.577,63.715,81.081,65.499,80.629z"/>
		<path fill="#FFFFFF" d="M81.313,78.418l-3.758-4.654l-2.53,0.64l0.606,5.45l-2.406,0.609l-1.595-14.601l5.911-1.494
			c2.862-0.723,4.708,0.729,4.995,3.437c0.223,2.018-0.571,3.939-2.503,4.936l4.08,4.969L81.313,78.418z M74.795,72.188l3.152-0.797
			c1.369-0.346,2.295-1.309,2.12-2.963c-0.176-1.567-1.173-2.108-2.542-1.763l-3.236,0.818L74.795,72.188z"/>
		<path fill="#FFFFFF" d="M92.111,64.655l2.281-0.577l1.17,10.737l-2.282,0.576l-0.165-1.435l-0.042,0.01
			c-0.837,1.227-1.961,2.194-3.35,2.546c-2.074,0.524-3.249-0.546-3.504-2.777l-0.788-7.391l2.281-0.576l0.739,6.851
			c0.134,1.313,0.794,2.007,2.101,1.676c1.016-0.257,1.901-1.12,2.424-1.672L92.111,64.655z"/>
		<path fill="#FFFFFF" d="M102.707,73.229c-1.638,0.414-3.36,0.674-4.641,0.667l0.202-1.993c1.744,0.001,3.232-0.309,3.978-0.498
			c1.618-0.409,1.849-1.416,1.796-1.8c-0.054-0.649-0.625-0.901-2.213-0.809c-2.303,0.141-4.125-0.171-4.365-2.516
			c-0.239-2.168,1.148-3.49,3.616-4.113c1.639-0.414,3.029-0.59,4.311-0.583l-0.202,1.993c-1.723-0.005-3.025,0.258-3.771,0.446
			c-1.556,0.393-1.714,1.25-1.687,1.618c0.064,0.602,0.454,0.923,2.098,0.882c2.122-0.073,4.234-0.012,4.474,2.333
			C106.562,71.108,105.175,72.606,102.707,73.229z"/>
		<path fill="#FFFFFF" d="M110.321,60.052l1.17,10.737l-2.281,0.577l-1.17-10.737L110.321,60.052z M109.895,56.187l0.293,2.816
			l-2.282,0.576l-0.293-2.815L109.895,56.187z"/>
		<path fill="#FFFFFF" d="M120.893,67.308l-0.042,0.01c-0.604,0.925-1.739,1.763-2.921,2.062c-2.904,0.734-4.072-1.529-4.392-4.626
			c-0.361-3.086,0.421-5.843,3.325-6.578c1.099-0.278,2.334-0.105,3.161,0.458l0.042-0.01l0.298-1.179l1.742-0.44l1.165,10.804
			l-2.281,0.577L120.893,67.308z M118.636,67.195c1.017-0.257,1.746-0.949,2.108-1.349l-0.617-5.67
			c-0.427-0.202-1.252-0.5-2.268-0.243c-1.804,0.456-2.148,2.242-1.914,4.213C116.164,66.143,116.852,67.646,118.636,67.195z"/>
	</g>
</g>
<g>
</g>
<g>
</g>
<g>
</g>
<g>
</g>
<g>
</g>
<g>
</g>
<g>
</g>
<g>
</g>
<g>
</g>
<g>
</g>
<g>
</g>
<g>
</g>
<g>
</g>
<g>
</g>
<g>
</g>
</svg>
