<?xml version="1.0" encoding="utf-8"?>
<!-- Generator: Adobe Illustrator 17.0.0, SVG Export Plug-In . SVG Version: 6.00 Build 0)  -->
<!DOCTYPE svg PUBLIC "-//W3C//DTD SVG 1.1//EN" "http://www.w3.org/Graphics/SVG/1.1/DTD/svg11.dtd">
<svg version="1.1" id="Layer_1" xmlns="http://www.w3.org/2000/svg" xmlns:xlink="http://www.w3.org/1999/xlink" x="0px" y="0px"
	 width="170.262px" height="19.045px" viewBox="0 0 170.262 19.045" enable-background="new 0 0 170.262 19.045"
	 xml:space="preserve">
<g>
	<path fill="#FFFFFF" d="M3.193,9.534H1.869V7.977h4.392v1.514H4.896l1.471,5.171L8.7,8.966h1.114l2.354,5.696l1.472-5.171h-1.514
		V7.977h4.372v1.557h-1.323l-2.376,7.859h-1.135l-2.48-5.884l-2.459,5.884H5.589L3.193,9.534z"/>
	<path fill="#FFFFFF" d="M17.649,9.534h-1.324V7.977h4.392v1.514h-1.366l1.47,5.171l2.334-5.696h1.114l2.354,5.696l1.471-5.171
		h-1.514V7.977h4.372v1.557H29.63l-2.376,7.859H26.12l-2.481-5.884l-2.459,5.884h-1.135L17.649,9.534z"/>
	<path fill="#FFFFFF" d="M32.106,9.534h-1.323V7.977h4.392v1.514h-1.366l1.47,5.171l2.334-5.696h1.114l2.354,5.696l1.472-5.171
		h-1.514V7.977h4.372v1.557h-1.324l-2.376,7.859h-1.134l-2.481-5.884l-2.459,5.884h-1.136L32.106,9.534z"/>
	<path fill="#FFFFFF" d="M45.301,15.713c0-0.821,0.652-1.494,1.472-1.494c0.819,0,1.472,0.673,1.472,1.494
		c0,0.821-0.652,1.493-1.472,1.493C45.954,17.206,45.301,16.534,45.301,15.713z"/>
	<path fill="#FFFFFF" d="M49.378,15.523h1.471V3.207h-1.471V1.652h3.278v13.871h1.451v1.514h-4.729V15.523z"/>
	<path fill="#FFFFFF" d="M55.03,14.621c0-1.662,1.471-2.734,3.552-2.734c0.946,0,1.996,0.21,2.481,0.358v-1.031
		c0-0.524-0.148-0.946-0.4-1.261c-0.379-0.463-1.009-0.693-1.891-0.693c-0.568,0-0.904,0.126-1.178,0.274
		C57.658,9.68,57.7,9.869,57.7,10.038c0,0.588-0.442,1.03-1.051,1.03c-0.632,0-1.073-0.442-1.073-1.074
		c0-1.072,1.178-2.184,3.49-2.184c1.408,0,2.439,0.42,3.047,1.135c0.463,0.545,0.694,1.261,0.694,2.079v4.498h1.408v1.514h-3.111
		v-1.095c-0.735,0.695-1.891,1.263-3.11,1.263C56.333,17.206,55.03,16.26,55.03,14.621z M61.063,14.767v-1.471
		c-0.61-0.169-1.388-0.314-2.207-0.314c-1.282,0-1.997,0.609-1.997,1.491c0,0.821,0.61,1.366,1.661,1.366
		C59.486,15.838,60.369,15.375,61.063,14.767z"/>
	<path fill="#FFFFFF" d="M72.472,9.135c0,0.65-0.526,1.217-1.156,1.217c-0.61,0-1.029-0.378-1.198-0.778
		c-0.673,0.21-1.45,0.967-1.891,1.828v4.12h1.66v1.514h-4.855v-1.514h1.408V9.534h-1.408V7.977h3.132v2.061
		c0.715-1.241,1.766-2.227,2.817-2.227C71.968,7.811,72.472,8.419,72.472,9.135z"/>
	<path fill="#FFFFFF" d="M72.848,12.475c0-2.437,1.955-4.665,4.54-4.665c2.248,0,3.888,1.47,3.888,2.857
		c0,0.8-0.547,1.345-1.282,1.345c-0.588,0-1.135-0.461-1.135-1.133c0-0.294,0.147-0.588,0.378-0.757
		c-0.21-0.422-0.967-0.821-1.849-0.821c-1.22,0-2.712,1.031-2.712,3.217c0,1.87,1.367,3.131,3.237,3.131
		c1.05,0,1.996-0.315,3.11-0.967l-0.168,1.662c-0.924,0.588-1.997,0.862-3.111,0.862C74.928,17.206,72.848,15.27,72.848,12.475z"/>
	<path fill="#FFFFFF" d="M82.451,12.518c0-2.544,1.849-4.708,4.729-4.708c2.88,0,4.729,2.143,4.729,4.708
		c0,2.522-1.871,4.688-4.729,4.688C84.28,17.206,82.451,15.061,82.451,12.518z M90.038,12.518c0-1.851-1.176-3.173-2.858-3.173
		c-1.703,0-2.88,1.322-2.88,3.173c0,1.849,1.176,3.153,2.88,3.153C88.861,15.672,90.038,14.367,90.038,12.518z"/>
	<path fill="#FFFFFF" d="M93.102,15.523h1.408V9.534h-1.408V7.977h3.131v1.578c0.757-0.882,1.871-1.744,3.195-1.744
		c1.051,0,1.766,0.399,2.207,1.028c0.125,0.189,0.21,0.401,0.272,0.631c0.925-0.926,2.039-1.66,3.195-1.66
		c1.303,0,2.102,0.483,2.523,1.302c0.23,0.484,0.357,1.072,0.357,1.724v4.688h1.408v1.514h-4.561v-1.514h1.345v-4.289
		c0-0.419-0.063-0.755-0.168-1.028c-0.211-0.506-0.631-0.736-1.283-0.736c-0.925,0-1.786,0.547-2.585,1.325v4.729h1.325v1.514
		h-4.477v-1.514h1.345v-4.289c0-0.419-0.042-0.755-0.147-1.028C99.955,9.7,99.555,9.47,98.903,9.47
		c-0.966,0-1.828,0.588-2.606,1.345v4.708h1.323v1.514h-4.519V15.523z"/>
	<path fill="#FFFFFF" d="M110.123,14.621c0-1.662,1.472-2.734,3.552-2.734c0.946,0,1.996,0.21,2.481,0.358v-1.031
		c0-0.524-0.148-0.946-0.4-1.261c-0.379-0.463-1.009-0.693-1.891-0.693c-0.568,0-0.904,0.126-1.178,0.274
		c0.064,0.146,0.106,0.335,0.106,0.504c0,0.588-0.442,1.03-1.051,1.03c-0.632,0-1.073-0.442-1.073-1.074
		c0-1.072,1.178-2.184,3.489-2.184c1.408,0,2.439,0.42,3.047,1.135c0.463,0.545,0.694,1.261,0.694,2.079v4.498h1.408v1.514h-3.111
		v-1.095c-0.735,0.695-1.891,1.263-3.11,1.263C111.426,17.206,110.123,16.26,110.123,14.621z M116.156,14.767v-1.471
		c-0.61-0.169-1.387-0.314-2.207-0.314c-1.282,0-1.997,0.609-1.997,1.491c0,0.821,0.61,1.366,1.661,1.366
		C114.579,15.838,115.462,15.375,116.156,14.767z"/>
	<path fill="#FFFFFF" d="M127.543,9.135c0,0.65-0.526,1.217-1.156,1.217c-0.61,0-1.029-0.378-1.198-0.778
		c-0.672,0.21-1.45,0.967-1.891,1.828v4.12h1.66v1.514h-4.855v-1.514h1.409V9.534h-1.409V7.977h3.132v2.061
		c0.715-1.241,1.766-2.227,2.817-2.227C127.04,7.811,127.543,8.419,127.543,9.135z"/>
	<path fill="#FFFFFF" d="M127.562,15.713c0-0.821,0.652-1.494,1.472-1.494c0.82,0,1.471,0.673,1.471,1.494
		c0,0.821-0.651,1.493-1.471,1.493C128.214,17.206,127.562,16.534,127.562,15.713z"/>
	<path fill="#FFFFFF" d="M131.827,12.475c0-2.437,1.955-4.665,4.541-4.665c2.248,0,3.887,1.47,3.887,2.857
		c0,0.8-0.546,1.345-1.281,1.345c-0.588,0-1.135-0.461-1.135-1.133c0-0.294,0.147-0.588,0.379-0.757
		c-0.21-0.422-0.967-0.821-1.849-0.821c-1.22,0-2.712,1.031-2.712,3.217c0,1.87,1.367,3.131,3.237,3.131
		c1.051,0,1.997-0.315,3.111-0.967l-0.168,1.662c-0.926,0.588-1.997,0.862-3.111,0.862C133.908,17.206,131.827,15.27,131.827,12.475
		z"/>
	<path fill="#FFFFFF" d="M141.45,12.518c0-2.544,1.85-4.708,4.73-4.708c2.88,0,4.729,2.143,4.729,4.708
		c0,2.522-1.871,4.688-4.729,4.688C143.28,17.206,141.45,15.061,141.45,12.518z M149.038,12.518c0-1.851-1.176-3.173-2.858-3.173
		c-1.702,0-2.88,1.322-2.88,3.173c0,1.849,1.177,3.153,2.88,3.153C147.861,15.672,149.038,14.367,149.038,12.518z"/>
	<path fill="#FFFFFF" d="M152.103,15.523h1.408V9.534h-1.408V7.977h3.132v1.578c0.757-0.882,1.871-1.744,3.195-1.744
		c1.051,0,1.766,0.399,2.207,1.028c0.126,0.189,0.21,0.401,0.273,0.631c0.926-0.926,2.04-1.66,3.195-1.66
		c1.303,0,2.102,0.483,2.523,1.302c0.23,0.484,0.357,1.072,0.357,1.724v4.688h1.408v1.514h-4.561v-1.514h1.345v-4.289
		c0-0.419-0.063-0.755-0.168-1.028c-0.211-0.506-0.63-0.736-1.282-0.736c-0.924,0-1.786,0.547-2.585,1.325v4.729h1.324v1.514h-4.477
		v-1.514h1.345v-4.289c0-0.419-0.042-0.755-0.147-1.028c-0.231-0.506-0.63-0.736-1.283-0.736c-0.967,0-1.828,0.588-2.606,1.345
		v4.708h1.324v1.514h-4.519V15.523z"/>
</g>
<g>
</g>
<g>
</g>
<g>
</g>
<g>
</g>
<g>
</g>
<g>
</g>
<g>
</g>
<g>
</g>
<g>
</g>
<g>
</g>
<g>
</g>
<g>
</g>
<g>
</g>
<g>
</g>
<g>
</g>
</svg>
