<?xml version="1.0" encoding="utf-8"?>
<!-- Generator: Adobe Illustrator 17.0.0, SVG Export Plug-In . SVG Version: 6.00 Build 0)  -->
<!DOCTYPE svg PUBLIC "-//W3C//DTD SVG 1.1//EN" "http://www.w3.org/Graphics/SVG/1.1/DTD/svg11.dtd">
<svg version="1.1" id="Layer_1" xmlns="http://www.w3.org/2000/svg" xmlns:xlink="http://www.w3.org/1999/xlink" x="0px" y="0px"
	 width="573.233px" height="62.023px" viewBox="0 0 573.233 62.023" enable-background="new 0 0 573.233 62.023"
	 xml:space="preserve">
<g>
	<g>
		<path fill="#FFFFFF" d="M3.685,24.465v-8.857h7.06v8.857H3.685z M3.685,59.25l0.386-29.779h6.225l0.449,29.779H3.685z"/>
		<path fill="#FFFFFF" d="M36.799,10.731v36.967h-7.444V10.731H17.61V4.056h30.934v6.675H36.799z"/>
		<path fill="#FFFFFF" d="M52.521,33c0.192,5.648,2.952,9.499,9.69,9.499c2.952,0,6.097-0.128,10.012-1.284l0.898,5.648
			c-4.171,1.154-7.701,1.476-11.873,1.476c-12.13,0-16.365-6.675-16.365-16.687s4.235-16.686,16.108-16.686
			c9.756,0,12.708,5.263,13.157,10.782c0.257,2.247,0.063,4.75-0.321,7.252H52.521z M52.521,28.573h14.376
			c0.192-1.027,0.256-1.99,0.192-2.952c-0.257-2.888-1.99-5.199-6.482-5.199C55.024,20.422,52.906,23.823,52.521,28.573z"/>
		<path fill="#FFFFFF" d="M93.653,2.773h7.06v44.925h-7.06V2.773z"/>
		<path fill="#FFFFFF" d="M108.219,2.773h7.06v44.925h-7.06V2.773z"/>
		<path fill="#FFFFFF" d="M129.782,33c0.192,5.648,2.952,9.499,9.69,9.499c2.952,0,6.097-0.128,10.012-1.284l0.898,5.648
			c-4.171,1.154-7.701,1.476-11.873,1.476c-12.13,0-16.365-6.675-16.365-16.687s4.235-16.686,16.108-16.686
			c9.756,0,12.708,5.263,13.157,10.782c0.257,2.247,0.064,4.75-0.321,7.252H129.782z M129.782,28.573h14.376
			c0.192-1.027,0.256-1.99,0.192-2.952c-0.257-2.888-1.99-5.199-6.482-5.199C132.285,20.422,130.166,23.823,129.782,28.573z"/>
		<path fill="#FFFFFF" d="M166.617,48.018l-11.552-32.41h7.958l8.022,24.581h0.128l8.151-24.581h7.509l-11.616,32.41H166.617z"/>
		<path fill="#FFFFFF" d="M191.964,22.026l-1.027-5.648c4.429-0.898,9.05-1.412,12.771-1.412c7.959,0,12.259,2.182,12.259,10.654
			v22.077h-7.06v-3.209c-0.064,0-0.064,0-0.129,0c-2.888,2.76-5.712,3.851-9.819,3.851c-6.418,0-10.076-4.107-10.076-9.69
			c0-7.509,6.547-9.884,13.478-9.884h6.547V26.07c0-3.787-2.054-5.263-6.803-5.263C199.601,20.807,196.649,21.063,191.964,22.026z
			 M208.908,33h-6.161c-4.878,0-6.804,1.797-6.804,5.07c0,3.08,2.375,4.813,5.841,4.813c3.145,0,5.84-1.348,7.124-2.374V33z"/>
		<path fill="#FFFFFF" d="M230.595,47.698h-7.06V15.608h7.06v4.364h0.129c2.566-2.824,5.84-5.006,10.204-5.006
			c4.492,0,7.381,1.925,8.664,5.455c3.209-3.466,6.995-5.455,11.296-5.455c6.417,0,9.626,4.043,9.626,10.654v22.077h-7.06V27.225
			c0-3.915-1.732-6.417-5.775-6.417c-2.889,0-5.455,1.861-7.253,3.209c0.064,1.027,0.129,2.246,0.129,3.53v20.152h-7.06V26.968
			c-0.129-3.723-1.797-6.161-5.776-6.161c-2.952,0-5.391,1.797-7.124,3.081V47.698z"/>
		<path fill="#FFFFFF" d="M277.44,31.653c0-10.012,4.107-16.686,15.146-16.686c11.038,0,15.146,6.674,15.146,16.686
			s-4.107,16.687-15.146,16.687C281.547,48.339,277.44,41.665,277.44,31.653z M284.884,31.653c0,6.354,1.733,10.847,7.702,10.847
			c5.968,0,7.701-4.493,7.701-10.847s-1.733-10.846-7.701-10.846C286.618,20.807,284.884,25.299,284.884,31.653z"/>
		<path fill="#FFFFFF" d="M327.88,48.339c-5.07,0-10.332-0.513-14.184-1.476l1.284-5.648c5.198,1.284,9.755,1.477,12.065,1.477
			c5.07,0,6.033-2.76,6.033-3.915c0-1.925-1.604-3.081-6.354-3.979c-7.06-1.283-12.386-3.529-12.386-10.525
			c0-6.482,4.62-9.306,12.258-9.306c5.07,0,9.306,0.513,13.156,1.476l-1.283,5.647c-5.198-1.283-9.178-1.476-11.488-1.476
			c-4.813,0-5.583,2.375-5.583,3.466c0,1.797,1.026,3.017,6.032,4.107c6.354,1.348,12.708,3.081,12.708,10.077
			C340.139,45.002,335.518,48.339,327.88,48.339z"/>
		<path fill="#FFFFFF" d="M361.698,22.026l-1.027-5.648c4.429-0.898,9.05-1.412,12.771-1.412c7.959,0,12.259,2.182,12.259,10.654
			v22.077h-7.06v-3.209c-0.064,0-0.064,0-0.129,0c-2.888,2.76-5.712,3.851-9.819,3.851c-6.418,0-10.076-4.107-10.076-9.69
			c0-7.509,6.547-9.884,13.478-9.884h6.547V26.07c0-3.787-2.054-5.263-6.804-5.263C369.334,20.807,366.382,21.063,361.698,22.026z
			 M378.641,33h-6.161c-4.878,0-6.803,1.797-6.803,5.07c0,3.08,2.374,4.813,5.84,4.813c3.145,0,5.84-1.348,7.124-2.374V33z"/>
		<path fill="#FFFFFF" d="M431.775,47.698l-9.756-16.301h-7.829v16.301h-7.445V4.056h18.291c8.856,0,13.927,5.584,13.927,13.67
			c0,6.033-3.017,11.039-9.178,12.515l10.654,17.457H431.775z M414.19,24.786h9.755c4.3,0,7.381-2.118,7.381-7.06
			c0-4.685-2.889-6.996-7.124-6.996H414.19V24.786z"/>
		<path fill="#FFFFFF" d="M467.518,15.608h7.06v32.089h-7.06v-4.3h-0.129c-2.888,2.952-6.61,4.941-10.91,4.941
			c-6.418,0-9.627-3.979-9.627-10.653V15.608h7.06v20.473c0,3.915,1.733,6.418,5.776,6.418c3.145,0,6.097-1.861,7.83-3.081V15.608z"
			/>
		<path fill="#FFFFFF" d="M495.368,48.339c-5.069,0-10.332-0.513-14.184-1.476l1.284-5.648c5.198,1.284,9.755,1.477,12.065,1.477
			c5.07,0,6.032-2.76,6.032-3.915c0-1.925-1.604-3.081-6.354-3.979c-7.06-1.283-12.386-3.529-12.386-10.525
			c0-6.482,4.62-9.306,12.258-9.306c5.07,0,9.306,0.513,13.156,1.476l-1.283,5.647c-5.198-1.283-9.178-1.476-11.488-1.476
			c-4.813,0-5.583,2.375-5.583,3.466c0,1.797,1.026,3.017,6.032,4.107c6.354,1.348,12.708,3.081,12.708,10.077
			C507.626,45.002,503.005,48.339,495.368,48.339z"/>
		<path fill="#FFFFFF" d="M521.292,4.056v8.408h-7.06V4.056H521.292z M521.292,15.608v32.089h-7.06V15.608H521.292z"/>
		<path fill="#FFFFFF" d="M530.917,22.026l-1.027-5.648c4.429-0.898,9.05-1.412,12.771-1.412c7.959,0,12.259,2.182,12.259,10.654
			v22.077h-7.06v-3.209c-0.064,0-0.064,0-0.129,0c-2.888,2.76-5.712,3.851-9.819,3.851c-6.418,0-10.076-4.107-10.076-9.69
			c0-7.509,6.547-9.884,13.478-9.884h6.547V26.07c0-3.787-2.054-5.263-6.803-5.263C538.554,20.807,535.602,21.063,530.917,22.026z
			 M547.861,33H541.7c-4.878,0-6.804,1.797-6.804,5.07c0,3.08,2.375,4.813,5.841,4.813c3.145,0,5.84-1.348,7.124-2.374V33z"/>
		<path fill="#FFFFFF" d="M569.548,4.056l-0.449,29.779h-6.225l-0.386-29.779H569.548z M569.548,38.905v8.793h-7.06v-8.793H569.548z
			"/>
	</g>
</g>
<g>
</g>
<g>
</g>
<g>
</g>
<g>
</g>
<g>
</g>
<g>
</g>
<g>
</g>
<g>
</g>
<g>
</g>
<g>
</g>
<g>
</g>
<g>
</g>
<g>
</g>
<g>
</g>
<g>
</g>
</svg>
