<?xml version="1.0" encoding="utf-8"?>
<!-- Generator: Adobe Illustrator 17.0.0, SVG Export Plug-In . SVG Version: 6.00 Build 0)  -->
<!DOCTYPE svg PUBLIC "-//W3C//DTD SVG 1.1//EN" "http://www.w3.org/Graphics/SVG/1.1/DTD/svg11.dtd">
<svg version="1.1" id="Layer_1" xmlns="http://www.w3.org/2000/svg" xmlns:xlink="http://www.w3.org/1999/xlink" x="0px" y="0px"
	 width="462px" height="92px" viewBox="0 0 462 92" enable-background="new 0 0 462 92" xml:space="preserve">
<g>
	<g>
		
			<rect x="273.271" y="16.366" transform="matrix(0.7071 0.7071 -0.7071 0.7071 120.5665 -200.432)" fill="#50363D" width="57.907" height="57.908"/>
		<g>
			<path fill="#E7663F" d="M288.238,51.892c0-0.153,0.12-0.271,0.278-0.271h0.89c0.983,0,1.664,0.661,1.664,1.523v0.009
				c0,0.862-0.68,1.532-1.664,1.532h-0.89c-0.157,0-0.278-0.118-0.278-0.271V51.892z M289.406,54.195
				c0.657,0,1.087-0.433,1.087-1.033v-0.008c0-0.6-0.43-1.042-1.087-1.042h-0.617v2.084H289.406z"/>
			<path fill="#E7663F" d="M292.45,54.414v-2.521c0-0.153,0.121-0.271,0.277-0.271h1.82c0.134,0,0.246,0.11,0.246,0.241
				c0,0.136-0.112,0.241-0.246,0.241H293v0.797h1.346c0.134,0,0.246,0.109,0.246,0.245c0,0.131-0.112,0.236-0.246,0.236H293v0.823
				h1.57c0.134,0,0.246,0.11,0.246,0.241c0,0.135-0.111,0.241-0.246,0.241h-1.843C292.57,54.685,292.45,54.567,292.45,54.414z"/>
			<path fill="#E7663F" d="M296.16,51.866c0-0.149,0.121-0.267,0.277-0.267c0.152,0,0.273,0.118,0.273,0.267v2.329h1.418
				c0.138,0,0.25,0.109,0.25,0.245c0,0.136-0.111,0.245-0.25,0.245h-1.691c-0.157,0-0.277-0.118-0.277-0.271V51.866z"/>
			<path fill="#E7663F" d="M299.674,51.866c0-0.149,0.121-0.267,0.277-0.267c0.152,0,0.273,0.118,0.273,0.267v2.573
				c0,0.149-0.121,0.267-0.273,0.267c-0.156,0-0.277-0.118-0.277-0.267V51.866z"/>
			<path fill="#E7663F" d="M301.637,53.161v-0.008c0-0.871,0.666-1.585,1.615-1.585c0.483,0,0.801,0.14,1.074,0.346
				c0.058,0.044,0.107,0.118,0.107,0.215c0,0.148-0.12,0.263-0.273,0.263c-0.076,0-0.129-0.026-0.165-0.053
				c-0.215-0.171-0.447-0.276-0.747-0.276c-0.595,0-1.033,0.481-1.033,1.081v0.009c0,0.599,0.434,1.085,1.033,1.085
				c0.331,0,0.554-0.105,0.783-0.293c0.04-0.035,0.098-0.061,0.165-0.061c0.138,0,0.26,0.114,0.26,0.25
				c0,0.083-0.04,0.149-0.09,0.193c-0.295,0.254-0.631,0.411-1.136,0.411C302.317,54.737,301.637,54.041,301.637,53.161z"/>
			<path fill="#E7663F" d="M305.611,54.335l1.163-2.539c0.062-0.136,0.174-0.219,0.331-0.219h0.027c0.156,0,0.264,0.083,0.326,0.219
				l1.163,2.539c0.022,0.039,0.031,0.079,0.031,0.114c0,0.145-0.112,0.258-0.259,0.258c-0.13,0-0.219-0.075-0.268-0.188
				l-0.255-0.573h-1.521l-0.264,0.591c-0.044,0.109-0.138,0.171-0.255,0.171c-0.143,0-0.255-0.11-0.255-0.25
				C305.575,54.418,305.589,54.378,305.611,54.335z M307.66,53.468l-0.55-1.239l-0.55,1.239H307.66z"/>
			<path fill="#E7663F" d="M309.845,54.343c-0.062-0.044-0.107-0.118-0.107-0.206c0-0.14,0.116-0.249,0.259-0.249
				c0.076,0,0.125,0.022,0.161,0.048c0.259,0.201,0.537,0.315,0.877,0.315c0.34,0,0.554-0.157,0.554-0.385v-0.009
				c0-0.219-0.125-0.337-0.706-0.468c-0.666-0.158-1.042-0.35-1.042-0.914v-0.009c0-0.526,0.447-0.889,1.069-0.889
				c0.393,0,0.711,0.101,0.993,0.285c0.062,0.035,0.12,0.109,0.12,0.214c0,0.14-0.116,0.249-0.26,0.249
				c-0.054,0-0.098-0.013-0.143-0.039c-0.242-0.153-0.474-0.232-0.72-0.232c-0.322,0-0.51,0.162-0.51,0.364v0.009
				c0,0.236,0.143,0.342,0.746,0.482c0.662,0.157,1.002,0.39,1.002,0.897v0.009c0,0.573-0.461,0.915-1.118,0.915
				C310.597,54.728,310.194,54.597,309.845,54.343z"/>
			<path fill="#E7663F" d="M313.377,54.343c-0.063-0.044-0.108-0.118-0.108-0.206c0-0.14,0.116-0.249,0.26-0.249
				c0.076,0,0.125,0.022,0.161,0.048c0.259,0.201,0.536,0.315,0.877,0.315c0.34,0,0.554-0.157,0.554-0.385v-0.009
				c0-0.219-0.125-0.337-0.706-0.468c-0.667-0.158-1.043-0.35-1.043-0.914v-0.009c0-0.526,0.448-0.889,1.069-0.889
				c0.394,0,0.711,0.101,0.993,0.285c0.063,0.035,0.121,0.109,0.121,0.214c0,0.14-0.116,0.249-0.259,0.249
				c-0.054,0-0.098-0.013-0.143-0.039c-0.242-0.153-0.474-0.232-0.72-0.232c-0.322,0-0.51,0.162-0.51,0.364v0.009
				c0,0.236,0.143,0.342,0.747,0.482c0.662,0.157,1.002,0.39,1.002,0.897v0.009c0,0.573-0.461,0.915-1.118,0.915
				C314.128,54.728,313.726,54.597,313.377,54.343z"/>
		</g>
		<g>
			<g>
				<g>
					<defs>
						<path id="SVGID_1_" d="M293.992,31.766v5.244c0,5.288,3.274,8.57,8.544,8.57c5.261,0,8.527-3.281,8.527-8.569v-5.245H293.992z
							"/>
					</defs>
					<clipPath id="SVGID_2_">
						<use xlink:href="#SVGID_1_"  overflow="visible"/>
					</clipPath>
					<g clip-path="url(#SVGID_2_)">
						
							<rect x="259.109" y="29.39" transform="matrix(0.7071 -0.7071 0.7071 0.7071 63.4365 213.9883)" fill="#E7663F" width="61.839" height="2.057"/>
						
							<rect x="259.265" y="29.547" transform="matrix(-0.7071 0.7071 -0.7071 -0.7071 516.6188 -153.1531)" fill="#E7663F" width="61.526" height="1.742"/>
						
							<rect x="262.391" y="32.67" transform="matrix(-0.7071 0.7071 -0.7071 -0.7071 524.1627 -150.0317)" fill="#E7663F" width="61.526" height="1.746"/>
						
							<rect x="265.514" y="35.796" transform="matrix(-0.7071 0.7071 -0.7071 -0.7071 531.7139 -146.8913)" fill="#E7663F" width="61.527" height="1.743"/>
						
							<rect x="268.639" y="38.918" transform="matrix(-0.7071 0.7071 -0.7071 -0.7071 539.2501 -143.7796)" fill="#E7663F" width="61.526" height="1.744"/>
						
							<rect x="271.764" y="42.042" transform="matrix(-0.7071 0.7071 -0.7071 -0.7071 546.7824 -140.6678)" fill="#E7663F" width="61.524" height="1.747"/>
						
							<rect x="274.73" y="45.012" transform="matrix(0.7071 -0.7071 0.7071 0.7071 56.9705 229.6147)" fill="#E7663F" width="61.838" height="2.055"/>
						
							<rect x="277.855" y="48.135" transform="matrix(0.7071 -0.7071 0.7071 0.7071 55.6744 232.7356)" fill="#E7663F" width="61.839" height="2.056"/>
						
							<rect x="278.012" y="48.29" transform="matrix(-0.7071 0.7071 -0.7071 -0.7071 561.8688 -134.4161)" fill="#E7663F" width="61.524" height="1.745"/>
						
							<rect x="280.98" y="51.259" transform="matrix(0.7071 -0.7071 0.7071 0.7071 54.3784 235.8571)" fill="#E7663F" width="61.835" height="2.057"/>
						
							<rect x="281.137" y="51.414" transform="matrix(-0.7071 0.7071 -0.7071 -0.7071 569.4197 -131.2842)" fill="#E7663F" width="61.525" height="1.746"/>
						
							<rect x="284.103" y="54.383" transform="matrix(0.7071 -0.7071 0.7071 0.7071 53.0867 238.9843)" fill="#E7663F" width="61.838" height="2.056"/>
						
							<rect x="284.259" y="54.539" transform="matrix(-0.7071 0.7071 -0.7071 -0.7071 576.9548 -128.1664)" fill="#E7663F" width="61.527" height="1.746"/>
					</g>
				</g>
				<g>
					<path fill="#FFFFFF" d="M312.414,31.766c0,0-1.973,0-2.216,0c-0.295,0-0.61,0.262-0.689,0.539
						c-0.073,0.259,0.011,0.547,0.213,0.729c0.116,0.106,0.262,0.164,0.408,0.164c0.073,0,0.142-0.013,0.215-0.039
						c0.103-0.044,0.158-0.163,0.114-0.269c-0.03-0.079-0.107-0.132-0.192-0.132c-0.027,0-0.053,0.006-0.053,0.006
						c-0.043,0.017-0.064,0.021-0.064,0.021c-0.079,0-0.129-0.036-0.152-0.058c-0.086-0.078-0.122-0.199-0.092-0.311
						c0.061-0.218,0.319-0.25,0.468-0.25l0.39,0v4.029c0,0.132,0.11,0.244,0.241,0.244h1.409c1.473,0,2.541-0.983,2.541-2.35
						C314.956,32.743,313.888,31.766,312.414,31.766z M312.414,36.005h-1.161v-3.802h1.161c1.197,0,2.032,0.782,2.032,1.914
						C314.447,35.228,313.612,36.005,312.414,36.005z"/>
				</g>
			</g>
		</g>
		<g>
			<g>
				<path fill="#E7663F" d="M291.318,57.667v-0.003c0-0.35,0.268-0.637,0.65-0.637c0.194,0,0.323,0.056,0.432,0.138
					c0.023,0.018,0.044,0.048,0.044,0.086c0,0.06-0.049,0.106-0.111,0.106c-0.03,0-0.052-0.011-0.066-0.021
					c-0.087-0.069-0.18-0.111-0.3-0.111c-0.24,0-0.417,0.194-0.417,0.435v0.003c0,0.241,0.175,0.436,0.417,0.436
					c0.133,0,0.223-0.042,0.315-0.118c0,0,0.04-0.025,0.067-0.025c0.056,0,0.104,0.046,0.104,0.1c0,0.034-0.016,0.06-0.036,0.077
					c-0.119,0.102-0.254,0.166-0.458,0.166C291.592,58.301,291.318,58.021,291.318,57.667z"/>
				<path fill="#E7663F" d="M293.258,57.667v-0.003c0-0.347,0.274-0.637,0.661-0.637c0.387,0,0.657,0.287,0.657,0.633v0.003
					c0,0.347-0.274,0.637-0.66,0.637C293.528,58.301,293.258,58.014,293.258,57.667z M294.344,57.667v-0.003
					c0-0.24-0.178-0.438-0.428-0.438c-0.251,0-0.425,0.195-0.425,0.435v0.003c0,0.239,0.178,0.436,0.428,0.436
					C294.169,58.1,294.344,57.906,294.344,57.667z"/>
				<path fill="#E7663F" d="M295.49,57.15c0-0.06,0.049-0.11,0.112-0.11h0.023c0.049,0,0.081,0.025,0.103,0.058l0.382,0.584
					l0.383-0.586c0.023-0.037,0.056-0.056,0.101-0.056h0.024c0.063,0,0.112,0.05,0.112,0.11v1.031c0,0.06-0.049,0.108-0.112,0.108
					c-0.06,0-0.11-0.049-0.11-0.108v-0.739l-0.308,0.452c-0.023,0.035-0.052,0.056-0.094,0.056c-0.04,0-0.068-0.021-0.092-0.056
					l-0.306-0.449v0.737c0,0.06-0.049,0.106-0.11,0.106c-0.062,0-0.108-0.046-0.108-0.106V57.15z"/>
				<path fill="#E7663F" d="M297.644,57.667v-0.003c0-0.347,0.274-0.637,0.661-0.637c0.387,0,0.657,0.287,0.657,0.633v0.003
					c0,0.347-0.274,0.637-0.661,0.637C297.914,58.301,297.644,58.014,297.644,57.667z M298.729,57.667v-0.003
					c0-0.24-0.178-0.438-0.428-0.438s-0.425,0.195-0.425,0.435v0.003c0,0.239,0.178,0.436,0.429,0.436
					C298.555,58.1,298.729,57.906,298.729,57.667z"/>
				<path fill="#E7663F" d="M301.063,58.17v-1.014c0-0.062,0.048-0.109,0.112-0.109h0.733c0.054,0,0.099,0.044,0.099,0.097
					c0,0.055-0.045,0.097-0.099,0.097h-0.623v0.32h0.542c0.054,0,0.099,0.044,0.099,0.099c0,0.053-0.045,0.095-0.099,0.095h-0.542
					v0.331h0.632c0.054,0,0.099,0.044,0.099,0.097c0,0.055-0.045,0.097-0.099,0.097h-0.742
					C301.111,58.279,301.063,58.232,301.063,58.17z"/>
				<path fill="#E7663F" d="M302.915,57.15c0-0.06,0.049-0.11,0.112-0.11h0.023c0.054,0,0.085,0.026,0.115,0.063l0.631,0.797v-0.757
					c0-0.058,0.048-0.105,0.108-0.105c0.061,0,0.109,0.048,0.109,0.105v1.035c0,0.06-0.047,0.107-0.108,0.107h-0.009
					c-0.052,0-0.085-0.026-0.115-0.065l-0.649-0.82v0.781c0,0.058-0.048,0.106-0.108,0.106c-0.061,0-0.11-0.048-0.11-0.106V57.15z"
					/>
				<path fill="#E7663F" d="M306.116,57.667v-0.003c0-0.35,0.269-0.637,0.65-0.637c0.194,0,0.323,0.056,0.432,0.138
					c0.024,0.018,0.044,0.048,0.044,0.086c0,0.06-0.048,0.106-0.11,0.106c-0.03,0-0.052-0.011-0.052-0.011
					c-0.101-0.079-0.194-0.121-0.315-0.121c-0.239,0-0.416,0.194-0.416,0.435v0.003c0,0.241,0.175,0.436,0.416,0.436
					c0.133,0,0.223-0.042,0.315-0.118c0.017-0.014,0.04-0.025,0.067-0.025c0.056,0,0.104,0.046,0.104,0.1
					c0,0.034-0.016,0.06-0.036,0.077c-0.119,0.102-0.254,0.166-0.458,0.166C306.389,58.301,306.116,58.021,306.116,57.667z"/>
				<path fill="#E7663F" d="M308.075,58.138l0.468-1.021c0.025-0.055,0.07-0.088,0.133-0.088h0.011c0.063,0,0.106,0.033,0.132,0.088
					l0.468,1.021l0.012,0.046c0,0.058-0.045,0.104-0.104,0.104c-0.052,0-0.089-0.03-0.108-0.076l-0.103-0.23h-0.612l-0.106,0.237
					c-0.018,0.044-0.056,0.069-0.103,0.069c-0.058,0-0.103-0.044-0.103-0.1C308.06,58.188,308.065,58.156,308.075,58.138z
					 M308.899,57.79l-0.221-0.498l-0.221,0.498H308.899z"/>
				<path fill="#E7663F" d="M310.138,58.142c-0.025-0.018-0.043-0.048-0.043-0.083c0-0.056,0.047-0.1,0.104-0.1
					c0.031,0,0.051,0.009,0.051,0.009c0.118,0.092,0.231,0.138,0.367,0.138c0.137,0,0.223-0.063,0.223-0.155v-0.003
					c0-0.088-0.05-0.136-0.284-0.188c-0.268-0.063-0.42-0.141-0.42-0.368v-0.004c0-0.211,0.18-0.357,0.43-0.357
					c0.159,0,0.287,0.041,0.4,0.114c0.026,0.014,0.049,0.044,0.049,0.086c0,0.056-0.046,0.1-0.104,0.1l-0.039-0.005
					c-0.116-0.072-0.209-0.104-0.308-0.104c-0.129,0-0.205,0.065-0.205,0.146v0.004c0,0.095,0.058,0.137,0.3,0.194
					c0.267,0.063,0.404,0.157,0.404,0.361v0.004c0,0.23-0.186,0.368-0.451,0.368C310.44,58.297,310.279,58.244,310.138,58.142z"/>
				<path fill="#E7663F" d="M311.882,58.138l0.468-1.021c0.025-0.055,0.07-0.088,0.133-0.088h0.01c0.063,0,0.106,0.033,0.132,0.088
					l0.468,1.021l0.013,0.046c0,0.058-0.044,0.104-0.104,0.104c-0.052,0-0.088-0.03-0.108-0.076l-0.103-0.23h-0.612l-0.106,0.237
					c-0.018,0.044-0.056,0.069-0.102,0.069c-0.058,0-0.103-0.044-0.103-0.1C311.867,58.188,311.873,58.156,311.882,58.138z
					 M312.707,57.79l-0.221-0.498l-0.221,0.498H312.707z"/>
			</g>
			<circle fill="#E7663F" cx="290.107" cy="57.665" r="0.262"/>
			<circle fill="#E7663F" cx="314.311" cy="57.665" r="0.263"/>
		</g>
	</g>
	<g>
		<path fill="#12110B" d="M20.739,54.62V42.334c0-1.91-0.923-3.494-2.765-4.755c-1.671-1.197-3.515-1.795-5.526-1.795
			c-3.142-0.101-5.411-0.119-6.808-0.051c-0.581,0.033-0.875,0.239-0.875,0.615l0.105,40.436c0,0.413,0.222,0.634,0.666,0.664
			c2.421,0.139,4.23,0.139,5.425,0c0.374-0.03,0.562-0.321,0.562-0.869c0.07-6.209,0.102-10.866,0.102-13.971
			c0-0.478,0.223-0.717,0.67-0.717c1.839,0,3.56-0.494,5.168-1.485C19.646,59.043,20.739,57.114,20.739,54.62 M14.649,48.837
			c-0.036,2.629-0.257,4.33-0.667,5.12c-0.238,0.442-0.768,0.698-1.585,0.764c-0.274,0.105-0.495,0.125-0.668,0.055
			c-0.339-0.136-0.511-0.357-0.511-0.668C11.185,49.3,11.165,45.597,11.165,43c-0.034-0.204,0-0.387,0.104-0.563
			c0.101-0.169,0.223-0.237,0.358-0.204c0.374,0.069,0.632,0.101,0.77,0.101c0.343,0.036,0.699,0.07,1.071,0.102
			c0.379,0.176,0.667,0.65,0.872,1.434C14.581,44.896,14.678,46.55,14.649,48.837"/>
		<path fill="#12110B" d="M21.851,71.553c-1.138-5.255-1.818-7.892-2.039-7.905c-0.994-0.041-1.983-0.041-2.975,0
			c-0.239,0.012-0.973,2.649-2.204,7.905c-0.622,2.735-1.246,5.465-1.868,8.187c-0.058,0.164,0.062,0.241,0.354,0.241h3.389
			c0.09,0,0.171-0.061,0.246-0.183c0.276-1.063,0.496-2.001,0.661-2.811c0.038-0.095,0.12-0.141,0.25-0.141h1.072
			c0.184,0,0.285,0.046,0.305,0.141c0.089,0.466,0.229,1.024,0.41,1.675c0.26,0.868,0.469,1.299,0.635,1.299
			c0.513,0,1.119,0.007,1.818,0.02h1.431c0.186,0,0.266-0.039,0.249-0.118C23.015,77.09,22.437,74.325,21.851,71.553 M18.569,73.908
			c-0.197,0.019-0.411,0.011-0.642-0.009c-0.235-0.026-0.338-0.064-0.317-0.117c0.089-0.552,0.177-0.816,0.265-1.354
			c0.155-0.822,0.289-1.236,0.395-1.236c0.09,0,0.299,0.677,0.631,2.591C18.902,73.85,18.791,73.893,18.569,73.908"/>
		<path fill="#12110B" d="M26.794,66.56c0.038-3.351,0.059-5.864,0.059-7.542c0-0.256,0.119-0.386,0.357-0.386
			c0.997,0,1.925-0.265,2.791-0.803c1.177-0.736,1.768-1.775,1.768-3.119v-6.632c0-1.034-0.498-1.889-1.493-2.571
			c-0.899-0.643-1.898-0.968-2.983-0.968c-1.697-0.056-2.923-0.063-3.677-0.026c-0.311,0.019-0.469,0.128-0.469,0.332l0.054,21.826
			c0,0.224,0.118,0.343,0.361,0.363c1.306,0.072,2.285,0.072,2.928,0C26.696,67.014,26.794,66.855,26.794,66.56 M26.658,48.133
			c0.056-0.093,0.118-0.127,0.195-0.111c0.2,0.036,0.339,0.056,0.411,0.056c0.186,0.019,0.378,0.034,0.582,0.055
			c0.202,0.092,0.361,0.351,0.469,0.774c0.127,0.553,0.185,1.446,0.167,2.682c-0.019,1.417-0.14,2.338-0.359,2.76
			c-0.13,0.242-0.414,0.379-0.859,0.416c-0.145,0.054-0.264,0.062-0.358,0.029c-0.183-0.074-0.278-0.195-0.278-0.36
			c-0.018-2.597-0.025-4.598-0.025-5.997C26.587,48.327,26.604,48.225,26.658,48.133"/>
		<path fill="#12110B" d="M35.721,79.841c-0.481-3.242-0.972-6.483-1.468-9.723c-0.965-6.157-1.543-9.237-1.731-9.255
			c-0.841-0.045-1.681-0.045-2.523,0c-0.205,0.018-0.826,3.098-1.872,9.254c-0.527,3.204-1.057,6.397-1.587,9.584
			c-0.046,0.187,0.055,0.279,0.303,0.279h2.877c0.074,0,0.144-0.07,0.209-0.213c0.235-1.245,0.422-2.342,0.56-3.29
			c0.03-0.109,0.102-0.167,0.21-0.167h0.908c0.16,0,0.244,0.059,0.259,0.165c0.079,0.546,0.197,1.2,0.35,1.962
			c0.219,1.015,0.398,1.518,0.539,1.518c0.436,0,0.951,0.008,1.543,0.025h1.213C35.669,79.981,35.739,79.932,35.721,79.841
			 M31.497,73.3c-0.185,0.017-0.386,0.015-0.6-0.015c-0.218-0.027-0.315-0.071-0.295-0.123c0.084-0.621,0.164-2.153,0.247-2.752
			c0.145-0.919,0.267-1.376,0.368-1.376c0.083,0,0.28,1.99,0.586,4.128C31.802,73.232,31.698,73.281,31.497,73.3"/>
		<path fill="#12110B" d="M43.952,77.209c2.784,0,4.911-1.112,6.37-3.336c1.296-1.958,1.941-2.953,1.941-6.006
			c0.031-1.692,0.031-2.705,0-3.574c0-0.559-0.249-0.843-0.746-0.843c-1.228-0.032-2.885-0.051-4.977-0.051
			c-0.468,0-0.698,0.302-0.698,0.894c0,0.104,0.014,0.173,0.05,0.737v1.392c0,3.486-0.65,3.719-1.941,3.719
			c-0.731,0-1.278-0.581-1.642-1.744c-0.268-0.83-0.4-1.708-0.4-2.638V51.621c0-5.904,0.681-8.862,2.042-8.862
			c1.028,0,1.643,0.867,1.842,2.59v2.668c0.031,0.565,0.349,0.846,0.943,0.846c-0.165,0,0.584,0.033,2.243,0.098
			c1.197,0.034,2.023,0.019,2.489-0.051c0.465-0.061,0.711-0.36,0.746-0.893c0.033-0.53,0.049-1.034,0.049-2.029
			c0.065-3.05-0.447-4.887-1.543-6.712c-1.359-2.39-3.617-3.583-6.769-3.583c-2.954,0-5.164,1.342-6.621,4.031
			c-0.964,1.758-1.443,3.519-1.443,5.275v19.217c0,3.946,0.431,6.885,1.295,8.809C38.442,75.816,40.7,77.209,43.952,77.209"/>
		<path fill="#12110B" d="M51.931,50.54v4.06c0,0.16-0.106,0.246-0.313,0.265c-0.642,0.07-1.17,0.075-1.585,0.015
			c-0.093-0.009-0.15-0.043-0.171-0.103c-0.018-0.03-0.025-0.09-0.025-0.178c-0.041-0.524-0.041-1.257,0-2.193v-1.84
			c0-0.158-0.148-0.239-0.435-0.251h-3.175c-0.193,0-0.291,0.086-0.291,0.251c-0.154,5.132-0.136,8.932,0.06,11.412
			c0.018,0.215,0.173,0.328,0.464,0.337c0.818,0.043,1.631,0.032,2.445-0.027c0.505-0.031,0.767-0.133,0.784-0.311
			c0.079-1.852,0.107-3.383,0.088-4.593c0.019-0.151,0.106-0.225,0.261-0.225c0.855-0.019,1.382-0.019,1.575,0
			c0.23,0.023,0.356,0.094,0.376,0.225l-0.03,4.561c0,0.255,0.127,0.378,0.379,0.369c0.156-0.009,0.545-0.009,1.162,0
			c0.564,0.009,1.025-0.001,1.385-0.038c0.358-0.031,0.537-0.122,0.537-0.271c0-0.274,0.027-2.037,0.086-5.284
			c0.057-3.052,0.068-5.09,0.03-6.125c0-0.177-0.098-0.271-0.292-0.282c-1.277,0-2.319,0.012-3.111,0.03
			C51.997,50.337,51.931,50.402,51.931,50.54"/>
		<path fill="#12110B" d="M68.355,74.488V58.952c0-2.31-0.577-3.927-1.731-4.84c-0.903-0.721-2.333-1.08-4.287-1.08
			c-1.833,0-3.199,0.416-4.102,1.244c-1.105,1.001-1.656,2.694-1.656,5.068v15.144c0,0.812,0.078,1.527,0.234,2.149
			c-3.583-1.062-6.786-1.51-12.612,2.755c-1.211-0.469-3.336-1.219-4.495-1.188c-1.682,0.047-2.517,0.709-2.892,1.035
			c0,0,2.776-1.373,5.936,1.274c-1.023,0.824-2.127,1.783-3.313,2.895c-0.462-0.249-1.91-0.842-3.359,0.623
			c0,0,1.492-0.404,2.575,0.123c-1.079,1.031-2.228,2.186-3.457,3.473c0,0,2.495-1.937,5.219-3.835
			c0.129,1.975-0.769,3.271-0.769,3.271c1.595-1.662,2.233-3.479,2.472-4.43c2.119-1.408,4.09-2.548,4.838-2.483
			c0,0-1.117,0.924-1.636,3.979c0,0,3.634-5.908,8.75-5.057c7.539,1.897,10.468,1.048,11.985,0.109
			C67.587,78.314,68.355,76.753,68.355,74.488 M63.58,73.014c0,1.113-0.353,1.668-1.054,1.668c-0.429,0-0.731-0.089-0.906-0.276
			c-0.173-0.186-0.261-0.638-0.261-1.359V59.802c0-1.307,0.387-1.961,1.167-1.961c0.701,0,1.054,0.642,1.054,1.926V73.014z"/>
		<path fill="#12110B" d="M80.014,62.625c-1.105-0.973-2.207-1.948-3.31-2.92c-1.165-1.047-1.754-1.854-1.754-2.422v-1.432
			c0-1.211,0.433-1.816,1.29-1.816c0.31,0,0.558,0.188,0.746,0.564c0.189,0.378,0.274,0.758,0.246,1.143
			c-0.063,1.045-0.087,1.782-0.063,2.202c0,0.277,0.144,0.414,0.43,0.414c1.764,0.058,2.967,0.058,3.607,0
			c0.241-0.019,0.365-0.165,0.365-0.442V55.19c0-1.451-0.445-2.616-1.327-3.497c-0.947-0.936-2.215-1.395-3.805-1.377
			c-1.938,0.038-3.419,0.597-4.431,1.683c-0.95,0.988-1.421,2.32-1.421,3.989v2.342c0,0.936,0.579,1.97,1.752,3.108
			c0.198,0.203,1.279,1.113,3.241,2.727c1.168,0.954,1.741,1.663,1.721,2.12l-0.07,1.541c-0.042,0.901-0.407,1.353-1.093,1.353
			c-0.858,0-1.285-0.665-1.285-1.985v-1.348c0-0.478-0.11-0.717-0.332-0.717c-0.221,0-0.846,0.017-1.87,0.053
			c-1.027,0.04-1.651,0.057-1.866,0.057c-0.222,0-0.342,0.192-0.367,0.579c-0.021,0.661-0.031,1.137-0.031,1.431
			c-0.043,1.727,0.518,3.132,1.687,4.211c1.1,1.009,2.434,1.513,4.004,1.513c1.806,0,3.208-0.466,4.199-1.401
			c0.995-0.935,1.491-2.211,1.491-3.827v-1.899C81.768,64.911,81.184,63.835,80.014,62.625"/>
		<rect x="70.688" y="75.005" fill="#12110B" width="11.08" height="4.038"/>
		<path fill="#12110B" d="M69.981,50.127c0.055-0.162,0.048-0.334-0.022-0.493c-0.154-0.355-0.535-0.454-0.743-0.508
			c-0.292-0.076-0.56-0.114-0.802-0.123c-0.033,0-0.062,0-0.093,0c-0.79,0-0.916,0.517-0.936,0.678l-0.001,0.044v0.048
			c0.021,1.184,0.053,2.087,0.088,2.685c0.049,0.855,0.085,1.42,0.685,1.495l0.086,0.006c0.591,0,0.826-0.578,1.218-1.916
			C69.631,51.416,69.805,50.776,69.981,50.127"/>
	</g>
	<g>
		<g>
			
				<linearGradient id="SVGID_3_" gradientUnits="userSpaceOnUse" x1="4421.897" y1="3420.4229" x2="4519.9585" y2="3459.384" gradientTransform="matrix(0.5052 0 0 0.5052 -1835.71 -1665.4135)">
				<stop  offset="0" style="stop-color:#9A7F32"/>
				<stop  offset="0.7" style="stop-color:#BD9E77"/>
				<stop  offset="1" style="stop-color:#9A7F32"/>
			</linearGradient>
			<rect x="394.833" y="64.419" fill="url(#SVGID_3_)" width="63.197" height="18.739"/>
			<rect x="395.43" y="65.016" fill="#FFCB00" width="62.005" height="17.543"/>
			
				<linearGradient id="SVGID_4_" gradientUnits="userSpaceOnUse" x1="2920.1709" y1="1991.0144" x2="2908.0601" y2="2005.5603" gradientTransform="matrix(0.6237 0 0 0.6237 -1399.4581 -1173.8124)">
				<stop  offset="0" style="stop-color:#9A7F32"/>
				<stop  offset="0.7" style="stop-color:#BD9E77"/>
				<stop  offset="1" style="stop-color:#9A7F32"/>
			</linearGradient>
			<path fill="url(#SVGID_4_)" d="M419.692,69.118v0.772c0,0,0.339,0.073,0.373,0.083c-0.122,0.446-1.669,5.044-1.669,5.044
				c-0.269-0.795-1.695-4.746-1.765-5.048c0.024-0.008,0.359-0.071,0.359-0.071v-0.78h-3.06v0.765l0.227,0.055
				c0.016,0.007,0.096,0.064,0.223,0.466c0.37,1.171,2.502,6.93,2.602,7.246c-0.022,0.007-0.386,0.012-0.386,0.012v0.829h3.484
				v-0.829c0,0-0.356-0.003-0.374-0.007c0.098-0.571,2.455-7.275,2.455-7.275c0.129-0.371,0.151-0.405,0.286-0.451l0.203-0.069
				v-0.744H419.692z"/>
			
				<linearGradient id="SVGID_5_" gradientUnits="userSpaceOnUse" x1="2905.1001" y1="1990.9967" x2="2887.7444" y2="2011.842" gradientTransform="matrix(0.6237 0 0 0.6237 -1399.4581 -1173.8124)">
				<stop  offset="0" style="stop-color:#9A7F32"/>
				<stop  offset="0.7" style="stop-color:#BD9E77"/>
				<stop  offset="1" style="stop-color:#9A7F32"/>
			</linearGradient>
			<path fill="url(#SVGID_5_)" d="M415.673,77.656c0,0-0.035-0.05-0.087-0.197c0,0-2.669-7.438-2.684-7.501
				c0.018-0.005,0.362-0.03,0.362-0.03v-0.81h-3.508v0.799c0,0,0.338,0.037,0.363,0.041c-0.014,0.051-1.287,3.598-2.074,5.79
				c-0.257,0.857-0.467,1.487-0.497,1.751h-0.017v-4.114h0.001v-3.304c0-0.054,0.004-0.081,0.004-0.081l0.45-0.091v-0.791h-3.245
				v0.791l0.448,0.079c0,0,0.007,0.04,0.007,0.094v2.499h-3.184v-2.499c0-0.054,0.004-0.081,0.004-0.081
				c0.021-0.022,0.451-0.092,0.451-0.092v-0.791h-3.245v0.791l0.447,0.079c0,0,0.007,0.04,0.007,0.094v7.446
				c0,0.056-0.004,0.082-0.004,0.082c-0.021,0.022-0.45,0.092-0.45,0.092v0.791h3.245v-0.791c0,0-0.429-0.07-0.448-0.079
				c0,0-0.007-0.04-0.007-0.095V74.45h3.184v3.078c0,0.055-0.005,0.082-0.005,0.082l-0.451,0.092v0.791h5.209V77.68
				c0,0-0.369-0.028-0.384-0.035v-0.001c0-0.023,0.472-1.394,0.472-1.394h2.731l0.516,1.411l-0.29,0.043v0.788h2.978v-0.781
				L415.673,77.656z M410.654,74.493l0.748-2.299l0.758,2.299H410.654z"/>
			
				<linearGradient id="SVGID_6_" gradientUnits="userSpaceOnUse" x1="2966.6321" y1="1991.0837" x2="2949.3787" y2="2011.8063" gradientTransform="matrix(0.6237 0 0 0.6237 -1399.4581 -1173.8124)">
				<stop  offset="0" style="stop-color:#9A7F32"/>
				<stop  offset="0.7" style="stop-color:#BD9E77"/>
				<stop  offset="1" style="stop-color:#9A7F32"/>
			</linearGradient>
			<path fill="url(#SVGID_6_)" d="M453.984,77.656c0,0-0.036-0.05-0.086-0.197c0,0-2.669-7.438-2.684-7.501
				c0.018-0.005,0.362-0.03,0.362-0.03v-0.81h-3.508v0.799c0,0,0.338,0.037,0.363,0.041c-0.013,0.05-1.538,4.297-2.286,6.377
				c-0.203,0.595-0.353,1.074-0.38,1.275h-0.02v-0.16l-0.003,0.009v-7.379c0-0.063,0.006-0.093,0.006-0.093
				c0.017-0.019,0.379-0.088,0.379-0.088v-0.783h-2.963V69.9l0.375,0.075c0,0,0.005,0.025,0.007,0.05l0.001,0v0.006
				c0,0,0.001,0.03,0.001,0.05v4.036l-0.001-0.003v0.136h-0.035c-0.044-0.187-0.266-0.611-0.575-1.145
				c-0.688-1.124-1.692-2.747-1.908-3.12l-0.003-0.005h0l-0.016-0.028l0.217-0.026v-0.809h-3.47v0.773l0.321,0.073
				c0,0,0.011,0.047,0.011,0.117v7.446c0,0.062-0.005,0.091-0.005,0.091l-0.396,0.089v0.785h2.963v-0.78l-0.357-0.074
				c0,0-0.008-0.04-0.01-0.093h-0.002v-4.736h0.035c0.13,0.352,0.39,0.847,0.711,1.402c0.853,1.374,2.052,3.241,2.169,3.451
				l-0.278,0.053v0.777h5.342V77.68l-0.384-0.035v-0.001c0-0.023,0.472-1.394,0.472-1.394h2.73l0.516,1.411l-0.29,0.043v0.788h2.979
				v-0.781L453.984,77.656z M448.965,74.493l0.748-2.299l0.759,2.299H448.965z"/>
			
				<linearGradient id="SVGID_7_" gradientUnits="userSpaceOnUse" x1="2942.2385" y1="1989.9635" x2="2923.2083" y2="2012.8201" gradientTransform="matrix(0.6237 0 0 0.6237 -1399.4581 -1173.8124)">
				<stop  offset="0" style="stop-color:#9A7F32"/>
				<stop  offset="0.7" style="stop-color:#BD9E77"/>
				<stop  offset="1" style="stop-color:#9A7F32"/>
			</linearGradient>
			<path fill="url(#SVGID_7_)" d="M436.825,69.975L437.2,69.9v-0.783h-2.963V69.9l0.376,0.075c0,0,0.005,0.025,0.007,0.05h0.006
				v4.225h-0.035c-0.041-0.178-0.246-0.57-0.53-1.063c-0.613-1.003-1.511-2.455-1.856-3.031c-0.027-0.044-0.055-0.089-0.081-0.131
				h0.003c-0.021-0.035-0.037-0.064-0.037-0.064l0.211-0.035v-0.809h-3.469v0.773l0.321,0.073c0,0,0.011,0.047,0.011,0.117v7.425
				l-0.002-0.007v0.111h-0.021c-0.02-0.14-0.099-0.414-0.215-0.768c-0.232-0.646-2.456-6.855-2.462-6.884
				c0.018-0.005,0.362-0.03,0.362-0.03v-0.81h-3.508v0.799c0,0,0.338,0.037,0.364,0.041c-0.018,0.066-2.69,7.502-2.69,7.502
				c-0.019,0.052-0.069,0.182-0.107,0.204l-0.276,0.02v0.807h2.901V77.68c0,0-0.369-0.028-0.384-0.035v-0.001
				c0-0.023,0.472-1.394,0.472-1.394h2.73l0.516,1.411l-0.29,0.043v0.788h5.172v-0.78l-0.357-0.074c0,0-0.01-0.044-0.01-0.11v-4.552
				l0.008,0.015v-0.181h0.035c0.149,0.404,0.47,0.998,0.859,1.655c0.698,1.118,1.554,2.457,1.882,2.986
				c0.021,0.031,0.042,0.065,0.062,0.096h-0.003c0.033,0.054,0.058,0.095,0.07,0.117c-0.013,0.002-0.278,0.053-0.278,0.053v0.777
				h3.137v-0.77c0,0-0.292-0.065-0.306-0.069c-0.004-0.021-0.008-0.058-0.008-0.124v-7.447
				C436.816,70.018,436.822,69.988,436.825,69.975z M424.214,74.493l0.748-2.299l0.759,2.299H424.214z"/>
			<path fill="#CC0D2B" d="M415.305,77.559l-2.496-6.943c-0.157-0.45-0.209-0.584-0.209-0.684c0-0.167,0.105-0.267,0.366-0.284
				v-0.232h-2.911v0.232c0.314,0.034,0.383,0.1,0.383,0.201c0,0.133-0.052,0.267-0.157,0.568l-2.577,7.288
				c-0.041,0.155-0.102,0.216-0.225,0.213c-0.218,0.003-0.246-0.171-0.246-0.39v-7.446c0-0.283,0.087-0.383,0.454-0.433v-0.232
				h-2.648v0.232c0.367,0.05,0.455,0.15,0.455,0.433v2.798h-3.781v-2.798c0-0.283,0.088-0.383,0.455-0.433v-0.232h-2.648v0.232
				c0.367,0.05,0.454,0.15,0.454,0.433v7.446c0,0.284-0.087,0.384-0.454,0.435v0.232h2.648v-0.232
				c-0.367-0.05-0.455-0.15-0.455-0.435v-3.376h3.781v3.376c0,0.284-0.087,0.384-0.455,0.435v0.232h2.307h0.341h1.964v-0.232
				c-0.297-0.017-0.384-0.168-0.384-0.318c0-0.067,0.018-0.184,0.07-0.302l0.489-1.391h3.151l0.56,1.542
				c0.053,0.117,0.07,0.201,0.07,0.285c0,0.117-0.087,0.151-0.315,0.184v0.232h2.382v-0.232
				C415.481,77.928,415.41,77.861,415.305,77.559z M410.244,74.791l1.14-3.501h0.035l1.155,3.501H410.244z"/>
			<path fill="#CC0D2B" d="M419.4,77.711c0-0.45,1.517-4.674,2.462-7.379c0.14-0.401,0.192-0.584,0.49-0.685v-0.232h-2.362v0.232
				c0.315,0.067,0.402,0.117,0.402,0.217c0,0.249-1.315,3.982-1.982,6.049h-0.035c-0.597-1.917-2.051-5.649-2.051-5.982
				c0-0.15,0.087-0.234,0.366-0.284v-0.232h-2.463v0.232c0.21,0.05,0.332,0.333,0.437,0.667c0.664,2.101,2.637,7.179,2.637,7.38
				c0.011,0.133-0.163,0.267-0.406,0.267v0.232h2.887v-0.232C419.544,77.962,419.4,77.862,419.4,77.711z"/>
			<path fill="#CC0D2B" d="M434.536,69.648c0.297,0.05,0.384,0.15,0.384,0.434v5.233h-0.035c-0.175-0.75-3.198-5.233-3.198-5.517
				c0-0.1,0.07-0.133,0.314-0.15v-0.232h-2.873v0.232c0.245,0.05,0.332,0.15,0.332,0.434v7.446c0,0.253-0.064,0.416-0.307,0.416
				c-0.166,0-0.2-0.128-0.289-0.384l-2.496-6.943c-0.157-0.45-0.209-0.584-0.209-0.684c0-0.167,0.104-0.267,0.366-0.284v-0.232
				h-2.911v0.232c0.314,0.034,0.383,0.1,0.383,0.201c0,0.133-0.052,0.267-0.157,0.568l-2.571,7.145
				c-0.051,0.133-0.138,0.384-0.365,0.401v0.232h2.305v-0.232c-0.297-0.017-0.384-0.168-0.384-0.318c0-0.067,0.018-0.184,0.07-0.302
				l0.489-1.391h3.151l0.56,1.542c0.052,0.117,0.07,0.201,0.07,0.285c0,0.117-0.088,0.151-0.315,0.184v0.232h2.208h0.174h2.192
				v-0.232c-0.279-0.05-0.367-0.15-0.367-0.434v-5.772h0.035c0.559,1.518,3.529,5.689,3.529,5.973c0,0.167-0.157,0.2-0.332,0.234
				v0.232h2.541v-0.232c-0.227-0.05-0.315-0.1-0.315-0.434v-7.447c0-0.283,0.087-0.384,0.384-0.434v-0.232h-2.366V69.648z
				 M423.803,74.791l1.14-3.501h0.035l1.155,3.501H423.803z"/>
			<path fill="#CC0D2B" d="M453.616,77.559l-2.496-6.943c-0.157-0.45-0.209-0.584-0.209-0.684c0-0.167,0.104-0.267,0.366-0.284
				v-0.232h-2.912v0.232c0.314,0.034,0.384,0.1,0.384,0.201c0,0.133-0.052,0.267-0.157,0.568l-2.571,7.145
				c-0.047,0.122-0.094,0.394-0.311,0.389c-0.226-0.007-0.268-0.114-0.268-0.423v-7.447c0-0.283,0.087-0.384,0.385-0.434v-0.232
				h-2.366v0.232c0.297,0.05,0.384,0.15,0.384,0.434v5.233h-0.035c-0.175-0.75-3.198-5.233-3.198-5.517c0-0.1,0.07-0.133,0.314-0.15
				v-0.232h-2.872v0.232c0.245,0.05,0.332,0.15,0.332,0.434v7.446c0,0.284-0.087,0.384-0.402,0.434v0.232h2.366v-0.232
				c-0.28-0.05-0.367-0.15-0.367-0.434v-5.772h0.035c0.559,1.518,3.53,5.689,3.53,5.973c0,0.167-0.157,0.2-0.332,0.234v0.232h2.44
				h0.1h2.205v-0.232c-0.297-0.017-0.384-0.168-0.384-0.318c0-0.067,0.017-0.184,0.07-0.302l0.489-1.391h3.151l0.56,1.542
				c0.052,0.117,0.07,0.201,0.07,0.285c0,0.117-0.088,0.151-0.315,0.184v0.232h2.382v-0.232
				C453.791,77.928,453.721,77.861,453.616,77.559z M448.554,74.791l1.14-3.501h0.035l1.155,3.501H448.554z"/>
			
				<linearGradient id="SVGID_8_" gradientUnits="userSpaceOnUse" x1="49190.8398" y1="44031.6484" x2="49244.3828" y2="44064.3008" gradientTransform="matrix(0.0795 0 0 0.0795 -3511.2371 -3429.2554)">
				<stop  offset="0" style="stop-color:#9A7F32"/>
				<stop  offset="0.7" style="stop-color:#BD9E77"/>
				<stop  offset="1" style="stop-color:#9A7F32"/>
			</linearGradient>
			<polygon fill="url(#SVGID_8_)" points="406.215,69.854 406.215,73.369 400.987,73.369 400.987,69.854 400.697,69.854 
				400.697,77.749 400.987,77.749 400.987,73.66 406.215,73.66 406.215,77.749 406.506,77.749 406.506,69.854 			"/>
			
				<linearGradient id="SVGID_9_" gradientUnits="userSpaceOnUse" x1="48059.6836" y1="44015.1836" x2="48020.0391" y2="44062.8047" gradientTransform="matrix(0.0795 0 0 0.0795 -3406.1667 -3427.4866)">
				<stop  offset="0" style="stop-color:#9A7F32"/>
				<stop  offset="0.7" style="stop-color:#BD9E77"/>
				<stop  offset="1" style="stop-color:#9A7F32"/>
			</linearGradient>
			<polygon fill="url(#SVGID_9_)" points="414.346,77.749 414.654,77.749 411.89,69.854 411.582,69.854 413.462,75.223 
				409.464,75.223 411.344,69.854 411.036,69.854 408.272,77.749 408.58,77.749 409.363,75.513 413.563,75.513 			"/>
			
				<linearGradient id="SVGID_10_" gradientUnits="userSpaceOnUse" x1="47483.4609" y1="44065.1211" x2="47523.0352" y2="44016.8164" gradientTransform="matrix(0.0795 0 0 0.0795 -3359.7 -3427.4866)">
				<stop  offset="0" style="stop-color:#9A7F32"/>
				<stop  offset="0.7" style="stop-color:#BD9E77"/>
				<stop  offset="1" style="stop-color:#9A7F32"/>
			</linearGradient>
			<polygon fill="url(#SVGID_10_)" points="418.331,77.749 415.542,69.854 415.234,69.854 418.023,77.749 			"/>
			
				<linearGradient id="SVGID_11_" gradientUnits="userSpaceOnUse" x1="47560.8516" y1="44063.582" x2="47520.6094" y2="44015.8906" gradientTransform="matrix(0.0795 0 0 0.0795 -3359.7 -3427.4866)">
				<stop  offset="0" style="stop-color:#9A7F32"/>
				<stop  offset="0.7" style="stop-color:#BD9E77"/>
				<stop  offset="1" style="stop-color:#9A7F32"/>
			</linearGradient>
			<polygon fill="url(#SVGID_11_)" points="418.718,77.749 421.383,69.854 421.077,69.854 418.411,77.749 			"/>
			
				<linearGradient id="SVGID_12_" gradientUnits="userSpaceOnUse" x1="47645.7695" y1="44015.1836" x2="47606.125" y2="44062.8047" gradientTransform="matrix(0.0795 0 0 0.0795 -3359.7 -3427.4866)">
				<stop  offset="0" style="stop-color:#9A7F32"/>
				<stop  offset="0.7" style="stop-color:#BD9E77"/>
				<stop  offset="1" style="stop-color:#9A7F32"/>
			</linearGradient>
			<polygon fill="url(#SVGID_12_)" points="427.907,77.749 428.214,77.749 425.45,69.854 425.143,69.854 427.023,75.223 
				423.025,75.223 424.904,69.854 424.597,69.854 421.833,77.749 422.14,77.749 422.923,75.513 427.124,75.513 			"/>
			
				<linearGradient id="SVGID_13_" gradientUnits="userSpaceOnUse" x1="48283.0664" y1="44049.8594" x2="48336.6055" y2="44082.5117" gradientTransform="matrix(0.0795 0 0 0.0795 -3410.4285 -3429.4954)">
				<stop  offset="0" style="stop-color:#9A7F32"/>
				<stop  offset="0.7" style="stop-color:#BD9E77"/>
				<stop  offset="1" style="stop-color:#9A7F32"/>
			</linearGradient>
			<rect x="430.117" y="69.854" fill="url(#SVGID_13_)" width="0.29" height="7.895"/>
			
				<linearGradient id="SVGID_14_" gradientUnits="userSpaceOnUse" x1="48116.207" y1="44050.4766" x2="48169.7461" y2="44083.125" gradientTransform="matrix(0.0795 0 0 0.0795 -3391.7388 -3429.4954)">
				<stop  offset="0" style="stop-color:#9A7F32"/>
				<stop  offset="0.7" style="stop-color:#BD9E77"/>
				<stop  offset="1" style="stop-color:#9A7F32"/>
			</linearGradient>
			<polygon fill="url(#SVGID_14_)" points="435.571,69.854 435.571,77.554 430.924,69.854 430.584,69.854 435.35,77.749 
				435.571,77.749 435.689,77.749 435.862,77.749 435.862,69.854 			"/>
			
				<linearGradient id="SVGID_15_" gradientUnits="userSpaceOnUse" x1="46889.6875" y1="44015.0117" x2="46850.043" y2="44062.6328" gradientTransform="matrix(0.0795 0 0 0.0795 -3274.821 -3427.4666)">
				<stop  offset="0" style="stop-color:#9A7F32"/>
				<stop  offset="0.7" style="stop-color:#BD9E77"/>
				<stop  offset="1" style="stop-color:#9A7F32"/>
			</linearGradient>
			<polygon fill="url(#SVGID_15_)" points="452.678,77.755 452.985,77.755 450.221,69.86 449.914,69.86 451.793,75.229 
				447.796,75.229 449.675,69.86 449.368,69.86 446.604,77.755 446.912,77.755 447.694,75.519 451.895,75.519 			"/>
			
				<linearGradient id="SVGID_16_" gradientUnits="userSpaceOnUse" x1="48010.5742" y1="44049.6797" x2="48064.1133" y2="44082.332" gradientTransform="matrix(0.0795 0 0 0.0795 -3379.8381 -3429.4758)">
				<stop  offset="0" style="stop-color:#9A7F32"/>
				<stop  offset="0.7" style="stop-color:#BD9E77"/>
				<stop  offset="1" style="stop-color:#9A7F32"/>
			</linearGradient>
			<rect x="439.044" y="69.86" fill="url(#SVGID_16_)" width="0.29" height="7.895"/>
			
				<linearGradient id="SVGID_17_" gradientUnits="userSpaceOnUse" x1="47843.7578" y1="44050.25" x2="47897.2969" y2="44082.9023" gradientTransform="matrix(0.0795 0 0 0.0795 -3361.1487 -3429.4758)">
				<stop  offset="0" style="stop-color:#9A7F32"/>
				<stop  offset="0.7" style="stop-color:#BD9E77"/>
				<stop  offset="1" style="stop-color:#9A7F32"/>
			</linearGradient>
			<polygon fill="url(#SVGID_17_)" points="444.499,69.86 444.499,77.529 439.869,69.86 439.53,69.86 444.296,77.755 
				444.789,77.755 444.789,69.86 			"/>
		</g>
		<g>
			
				<linearGradient id="SVGID_18_" gradientUnits="userSpaceOnUse" x1="20230.9062" y1="20741.5801" x2="20383.6992" y2="20914.748" gradientTransform="matrix(0.1578 0 0 0.1578 -2779.0056 -3246.1975)">
				<stop  offset="0" style="stop-color:#9A7F32"/>
				<stop  offset="0.7" style="stop-color:#BD9E77"/>
				<stop  offset="1" style="stop-color:#9A7F32"/>
			</linearGradient>
			<path fill="url(#SVGID_18_)" d="M439.227,43.3c-1.472-0.767-2.386-2.287-2.386-3.966c0-1.586,0.841-3.066,2.195-3.861
				l0.377-0.221l-2.539-8.624h-22.972l-2.414,8.198l-0.126,0.425l0.377,0.221c1.354,0.795,2.195,2.274,2.195,3.861
				c0,1.679-0.914,3.199-2.386,3.966l-0.351,0.183c0,0,0.864,5.831,0.926,6.23c0.361,2.319,0.622,3.995,2.849,4.922l10.415,4.704
				l10.43-4.711c2.212-0.92,2.473-2.596,2.834-4.915c0.062-0.4,0.868-5.832,0.868-5.832l0.058-0.398L439.227,43.3z"/>
			<path fill="#FFCB00" d="M437.567,49.537c-0.349,2.245-0.525,3.371-2.179,4.059c0,0-8.52,3.848-10,4.516l-9.985-4.51
				c-1.669-0.694-1.845-1.821-2.194-4.066c-0.063-0.405-0.653-4.343-0.811-5.438c1.635-1.008,2.636-2.799,2.636-4.765
				c0-1.836-0.901-3.555-2.374-4.59l2.059-6.995h21.337l2.059,6.995c-1.474,1.035-2.374,2.754-2.374,4.59
				c0,1.966,1.001,3.757,2.636,4.765C438.378,44.099,437.63,49.132,437.567,49.537z"/>
			
				<linearGradient id="SVGID_19_" gradientUnits="userSpaceOnUse" x1="-1163.7263" y1="-1134.2235" x2="-1129.5814" y2="-1096.2848" gradientTransform="matrix(1.3692 0 0 1.3692 1987.6024 1559.5306)">
				<stop  offset="0" style="stop-color:#9A7F32"/>
				<stop  offset="0.7" style="stop-color:#BD9E77"/>
				<stop  offset="1" style="stop-color:#9A7F32"/>
			</linearGradient>
			<path fill="url(#SVGID_19_)" d="M427.509,31.826v1.779c0,0,0.842,0.124,0.893,0.139c0.002,0.025,0.003,0.055,0.003,0.098v4.803
				h-6.033v-4.803c0-0.043,0.002-0.073,0.004-0.098c0.05-0.015,0.892-0.139,0.892-0.139v-1.779h-5.92h-0.706v1.779l0.61,0.083
				c0.147,0.02,0.23,0.04,0.281,0.055c0.002,0.025,0.003,0.055,0.003,0.098v14.662c0,0.045-0.002,0.075-0.003,0.101
				c-0.05,0.015-0.891,0.139-0.891,0.139v1.778h6.625v-1.778c0,0-0.842-0.124-0.892-0.139c-0.002-0.025-0.004-0.056-0.004-0.1
				v-5.942h6.033v5.942c0,0.044-0.002,0.075-0.004,0.1c-0.05,0.015-0.892,0.139-0.892,0.139v1.778h6.626v-1.778
				c0,0-0.841-0.124-0.89-0.139c-0.002-0.025-0.004-0.056-0.004-0.101V33.841c0-0.043,0.002-0.073,0.003-0.098
				c0.05-0.015,0.891-0.138,0.891-0.138v-1.779H427.509z"/>
			<path fill="#CC0D2B" d="M421.666,41.856v6.648c0,0.559,0.173,0.757,0.896,0.855v0.457h-5.214v-0.457
				c0.722-0.099,0.894-0.296,0.894-0.855V33.841c0-0.557-0.172-0.754-0.894-0.853v-0.457h5.214v0.457
				c-0.724,0.099-0.896,0.295-0.896,0.853v5.509h7.444v-5.509c0-0.557-0.172-0.754-0.896-0.853v-0.457h5.214v0.457
				c-0.723,0.099-0.894,0.295-0.894,0.853v14.662c0,0.559,0.172,0.757,0.894,0.855v0.457h-5.214v-0.457
				c0.724-0.099,0.896-0.296,0.896-0.855v-6.648H421.666z"/>
			
				<linearGradient id="SVGID_20_" gradientUnits="userSpaceOnUse" x1="23138.9688" y1="20751.2734" x2="23192.502" y2="20783.9219" gradientTransform="matrix(0.1578 0 0 0.1578 -3234.1147 -3238.3586)">
				<stop  offset="0" style="stop-color:#9A7F32"/>
				<stop  offset="0.7" style="stop-color:#BD9E77"/>
				<stop  offset="1" style="stop-color:#9A7F32"/>
			</linearGradient>
			<polygon fill="url(#SVGID_20_)" points="430.531,33.342 430.531,40.316 420.232,40.316 420.232,33.342 419.656,33.342 
				419.656,49.005 420.232,49.005 420.232,40.892 430.531,40.892 430.531,49.005 431.107,49.005 431.107,33.342 			"/>
			
				<linearGradient id="SVGID_21_" gradientUnits="userSpaceOnUse" x1="20362.8926" y1="20600.2188" x2="20252.127" y2="20723.291" gradientTransform="matrix(0.1578 0 0 0.1578 -2779.3215 -3246.1975)">
				<stop  offset="0" style="stop-color:#9A7F32"/>
				<stop  offset="0.7" style="stop-color:#BD9E77"/>
				<stop  offset="1" style="stop-color:#9A7F32"/>
			</linearGradient>
			<path fill="url(#SVGID_21_)" d="M439.18,10.135c-1.663-0.75-3.627-0.008-4.377,1.655c-0.364,0.806-0.392,1.704-0.079,2.531
				c0.055,0.146,0.12,0.286,0.193,0.42c-0.26,1.085-1.285,1.809-2.413,1.671c-0.586-0.072-1.109-0.367-1.472-0.832
				c-0.355-0.455-0.516-1.019-0.456-1.591c0.405-0.109,0.79-0.296,1.135-0.557c0.705-0.533,1.16-1.309,1.282-2.184
				c0.251-1.807-1.015-3.482-2.822-3.733c-0.875-0.122-1.746,0.105-2.451,0.638c-0.705,0.533-1.16,1.309-1.282,2.184
				c-0.122,0.876,0.105,1.746,0.638,2.451c0.153,0.202,0.326,0.383,0.515,0.542c-0.048,1.038-0.812,1.908-1.864,2.073
				c-0.094,0.015-0.187,0.023-0.28,0.026c-0.031,0.001-0.105,0.001-0.105,0.001c-0.103-0.003-0.198-0.011-0.295-0.026
				c-1.051-0.165-1.815-1.035-1.863-2.073c0.189-0.159,0.362-0.34,0.515-0.542c0.533-0.705,0.76-1.575,0.638-2.451
				c-0.122-0.875-0.577-1.651-1.282-2.184c-0.705-0.533-1.576-0.759-2.451-0.638c-1.807,0.251-3.073,1.926-2.822,3.733
				c0.122,0.875,0.577,1.651,1.282,2.184c0.345,0.261,0.73,0.448,1.136,0.557c0.06,0.573-0.101,1.136-0.456,1.591
				c-0.363,0.465-0.886,0.761-1.472,0.832c-1.128,0.138-2.152-0.586-2.413-1.671c0.073-0.134,0.138-0.274,0.193-0.42
				c0.313-0.827,0.284-1.726-0.079-2.531c-0.75-1.663-2.714-2.405-4.377-1.655c-1.663,0.751-2.405,2.714-1.654,4.377
				c0.599,1.328,1.972,2.068,3.348,1.93l3.67,7.845h16.857l3.669-7.845c1.376,0.138,2.749-0.602,3.348-1.93
				C441.585,12.849,440.843,10.886,439.18,10.135z"/>
			<path fill="#FFCB00" d="M427.527,10.487c0.081-0.585,0.385-1.103,0.856-1.459c0.471-0.356,1.052-0.507,1.637-0.426
				c1.207,0.168,2.052,1.286,1.885,2.493c-0.081,0.585-0.386,1.102-0.856,1.458c-0.471,0.356-1.052,0.507-1.637,0.426
				c-0.585-0.081-1.103-0.385-1.459-0.856C427.597,11.653,427.445,11.072,427.527,10.487z"/>
			<path fill="#FFCB00" d="M419.727,12.554c-0.471-0.356-0.775-0.874-0.856-1.458c-0.168-1.207,0.678-2.325,1.885-2.493
				c0.585-0.081,1.166,0.07,1.637,0.426c0.471,0.356,0.775,0.874,0.856,1.459c0.081,0.585-0.07,1.166-0.426,1.637
				c-0.356,0.471-0.874,0.775-1.459,0.856C420.779,13.061,420.198,12.91,419.727,12.554z"/>
			<path fill="#FFCB00" d="M410.943,14.06c-0.501-1.11-0.006-2.422,1.105-2.923c1.111-0.501,2.422-0.005,2.923,1.105
				c0.243,0.538,0.262,1.139,0.053,1.691c-0.209,0.552-0.62,0.99-1.158,1.233C412.756,15.666,411.444,15.171,410.943,14.06z"/>
			<path fill="#FFCB00" d="M433.117,23.188h-15.458l-3.295-7.044c0.25-0.117,0.48-0.262,0.689-0.432
				c0.61,1.216,1.925,1.965,3.353,1.79c0.877-0.108,1.66-0.55,2.204-1.247c0.488-0.623,0.729-1.384,0.697-2.166
				c0.07-0.005,0.139-0.012,0.209-0.022c0.22-0.031,0.435-0.083,0.64-0.154c0.277,1.312,1.332,2.355,2.722,2.573
				c0.139,0.022,0.278,0.034,0.417,0.038v0.001l0.154,0c0.258-0.005,0.507-0.037,0.75-0.098v-0.003
				c1.241-0.312,2.165-1.296,2.422-2.511c0.205,0.071,0.42,0.123,0.64,0.154c0.07,0.01,0.139,0.016,0.209,0.022
				c-0.032,0.782,0.209,1.542,0.697,2.166c0.544,0.696,1.327,1.139,2.204,1.247c1.427,0.175,2.743-0.574,3.353-1.79
				c0.209,0.17,0.439,0.315,0.688,0.432L433.117,23.188z"/>
			<path fill="#FFCB00" d="M439.833,14.06c-0.501,1.111-1.812,1.606-2.923,1.105c-0.538-0.243-0.949-0.681-1.158-1.233
				c-0.209-0.552-0.19-1.153,0.053-1.691c0.501-1.11,1.813-1.606,2.923-1.105C439.838,11.638,440.334,12.95,439.833,14.06z"/>
			<circle fill="#CC0D2B" cx="421.06" cy="10.796" r="1.402"/>
			<circle fill="#CC0D2B" cx="412.957" cy="13.151" r="1.402"/>
			<polygon fill="#CC0D2B" points="427.655,20.03 425.388,18.546 423.12,20.03 425.388,21.514 			"/>
			<polygon fill="#CC0D2B" points="422.02,20.03 419.752,18.546 417.485,20.03 419.752,21.514 			"/>
			<polygon fill="#CC0D2B" points="433.291,20.03 431.023,18.546 428.756,20.03 431.023,21.514 			"/>
			<circle fill="#CC0D2B" cx="429.716" cy="10.796" r="1.402"/>
			<circle fill="#CC0D2B" cx="437.819" cy="13.151" r="1.402"/>
		</g>
	</g>
	<g>
		<g>
			<polygon fill="#D60F2B" points="119.161,81.149 135.86,81.149 119.161,64.45 			"/>
			<polygon fill="#D60F2B" points="227.703,39.402 211.004,39.402 227.703,56.101 			"/>
			<polygon fill="#D60F2B" points="142.539,71.129 152.559,81.149 169.257,81.149 159.238,71.129 			"/>
			<polygon fill="#D60F2B" points="129.18,49.421 137.529,49.421 127.511,39.402 119.161,39.402 119.161,47.751 129.18,57.77 			"/>
			<polygon fill="#D60F2B" points="227.703,72.8 217.683,62.781 217.683,71.129 209.334,71.129 219.353,81.149 227.703,81.149 
				227.703,81.149 			"/>
			<polygon fill="#D60F2B" points="204.324,49.421 194.305,39.402 177.607,39.402 187.625,49.421 			"/>
			<polygon fill="#D60F2B" points="170.927,49.421 160.908,39.402 144.21,39.402 154.228,49.421 			"/>
			<polygon fill="#D60F2B" points="175.937,71.129 185.956,81.149 202.654,81.149 192.635,71.129 			"/>
			<path fill="#FFFFFF" d="M159.801,56.886c-0.351-0.298-0.826-0.447-1.422-0.447h-1.749v3.637h1.769
				c0.61,0,1.084-0.163,1.422-0.487c0.337-0.324,0.507-0.765,0.507-1.321v-0.04C160.328,57.632,160.152,57.183,159.801,56.886z"/>
			<polygon fill="#FFFFFF" points="186.755,61.865 189.338,61.865 188.046,57.79 			"/>
			<path fill="#FFFFFF" d="M217.683,71.129v-8.349l10.02,10.019V56.101l-16.698-16.699h-16.7l10.019,10.019h-16.698l-10.019-10.019
				h-16.699l10.019,10.019h-16.698L144.21,39.402h-16.699l10.019,10.019h-8.349v8.349l-10.019-10.019V64.45l16.699,16.699h16.699
				l-10.02-10.02h16.699l10.019,10.02h16.699l-10.019-10.02h16.698l10.019,10.02h16.699l-10.019-10.02H217.683z M133.077,53.317
				h6.967v1.792h-6.967V53.317z M140.044,65.71h-5.355v1.721h-1.612v-5.235h1.612v1.722h5.355V65.71z M136.64,62.139h-0.14
				c-2.09,0-3.543-1.434-3.543-3.355c0-0.995,0.299-1.722,0.846-2.398l1.364,0.995c-0.329,0.369-0.577,0.767-0.577,1.365
				c0,0.886,0.777,1.562,1.931,1.562h0.1c1.274,0,1.981-0.686,1.981-1.582c0-0.348-0.08-0.607-0.209-0.806h-1.035v1.104h-1.383
				v-2.787h3.325c0.488,0.657,0.866,1.503,0.866,2.557C140.164,60.696,138.82,62.139,136.64,62.139z M151.995,56.537h-5.884v2.465
				h5.288v3.082h-5.288v5.148h-3.578V53.317h9.462V56.537z M160.267,67.233l-2.365-4.315h-1.272v4.315h-3.559V53.317h5.468
				c1.868,0,3.259,0.471,4.174,1.411c0.384,0.385,0.683,0.845,0.895,1.381c0.212,0.538,0.318,1.163,0.318,1.88v0.098
				c0,1.034-0.228,1.882-0.686,2.544c-0.457,0.664-1.057,1.18-1.799,1.551l2.862,5.05H160.267z M168.759,67.233h-3.578V53.317h3.578
				V67.233z M178.014,66.737c-0.881,0.33-1.885,0.496-3.012,0.496h-4.513V53.317h4.572c1.114,0,2.107,0.163,2.982,0.487
				c0.874,0.325,1.61,0.785,2.206,1.382c0.596,0.596,1.049,1.312,1.361,2.147c0.312,0.834,0.468,1.763,0.468,2.783v0.239
				c0,1.021-0.156,1.955-0.468,2.803c-0.312,0.848-0.769,1.574-1.372,2.176C179.637,65.938,178.895,66.405,178.014,66.737z
				 M191.047,67.233l-0.814-2.505h-4.373l-0.796,2.505h-3.678l4.89-13.995h3.618l4.91,13.995H191.047z M200.063,61.985v5.248h-3.578
				v-5.209l-4.474-8.707h3.956l2.326,5.03l2.346-5.03h3.896L200.063,61.985z M206.116,66.945c-0.962-0.326-1.852-0.846-2.674-1.561
				l1.909-2.604c0.57,0.464,1.173,0.841,1.809,1.133c0.637,0.292,1.292,0.437,1.968,0.437c0.478,0,0.838-0.092,1.083-0.278
				c0.245-0.186,0.368-0.431,0.368-0.736v-0.02c0-0.132-0.03-0.257-0.09-0.378c-0.06-0.119-0.165-0.235-0.318-0.346
				c-0.153-0.114-0.361-0.23-0.626-0.348c-0.266-0.119-0.603-0.252-1.013-0.398c-0.663-0.224-1.266-0.46-1.81-0.705
				c-0.544-0.246-1.014-0.532-1.411-0.865c-0.398-0.331-0.705-0.722-0.923-1.172c-0.219-0.451-0.329-0.994-0.329-1.63v-0.06
				c0-0.635,0.116-1.215,0.347-1.738c0.232-0.524,0.564-0.974,0.995-1.353c0.43-0.377,0.954-0.672,1.57-0.884
				c0.616-0.212,1.302-0.318,2.057-0.318c0.941,0,1.822,0.132,2.645,0.397c0.821,0.265,1.597,0.696,2.326,1.292l-1.809,2.664
				c-0.477-0.371-0.994-0.676-1.551-0.914c-0.556-0.239-1.12-0.358-1.689-0.358c-0.411,0-0.726,0.087-0.945,0.258
				c-0.219,0.172-0.327,0.392-0.327,0.655v0.02c0,0.16,0.033,0.298,0.099,0.418c0.067,0.119,0.182,0.238,0.348,0.358
				c0.165,0.119,0.391,0.245,0.676,0.377c0.285,0.133,0.645,0.279,1.082,0.438c0.663,0.213,1.259,0.444,1.79,0.696
				c0.53,0.252,0.98,0.547,1.351,0.885c0.371,0.337,0.655,0.725,0.855,1.163c0.199,0.437,0.298,0.954,0.298,1.551v0.04
				c0,0.675-0.127,1.285-0.378,1.829c-0.252,0.543-0.6,1.003-1.044,1.381c-0.443,0.379-0.977,0.666-1.6,0.864
				c-0.624,0.199-1.305,0.298-2.048,0.298C208.074,67.431,207.076,67.269,206.116,66.945z"/>
			<path fill="#FFFFFF" d="M175.102,56.518h-1.034v7.514h1.034c0.994,0,1.796-0.298,2.405-0.895c0.61-0.596,0.915-1.516,0.915-2.763
				v-0.18c0-1.258-0.305-2.186-0.915-2.783C176.898,56.816,176.096,56.518,175.102,56.518z"/>
			<polygon fill="#2B2523" points="142.533,67.233 146.111,67.233 146.111,62.085 151.4,62.085 151.4,59.003 146.111,59.003 
				146.111,56.537 151.995,56.537 151.995,53.317 142.533,53.317 			"/>
			<path fill="#2B2523" d="M163.24,60.632c0.457-0.662,0.686-1.51,0.686-2.544V57.99c0-0.717-0.106-1.342-0.318-1.88
				c-0.212-0.536-0.51-0.996-0.895-1.381c-0.914-0.94-2.305-1.411-4.174-1.411h-5.468v13.916h3.559v-4.315h1.272l2.365,4.315h4.035
				l-2.862-5.05C162.183,61.813,162.782,61.296,163.24,60.632z M160.328,58.268c0,0.556-0.169,0.997-0.507,1.321
				c-0.339,0.325-0.812,0.487-1.422,0.487h-1.769v-3.637h1.749c0.596,0,1.071,0.148,1.422,0.447
				c0.351,0.298,0.527,0.746,0.527,1.342V58.268z"/>
			<rect x="165.18" y="53.317" fill="#2B2523" width="3.578" height="13.916"/>
			<path fill="#2B2523" d="M182.08,60.355v-0.239c0-1.02-0.156-1.949-0.468-2.783c-0.312-0.835-0.765-1.551-1.361-2.147
				c-0.597-0.596-1.332-1.056-2.206-1.382c-0.875-0.324-1.869-0.487-2.982-0.487h-4.572v13.916h4.513
				c1.127,0,2.13-0.166,3.012-0.496c0.881-0.332,1.623-0.799,2.226-1.403c0.603-0.603,1.06-1.328,1.372-2.176
				C181.924,62.31,182.08,61.376,182.08,60.355z M178.422,60.375c0,1.246-0.305,2.167-0.915,2.763
				c-0.609,0.597-1.411,0.895-2.405,0.895h-1.034v-7.514h1.034c0.994,0,1.796,0.298,2.405,0.894c0.61,0.597,0.915,1.525,0.915,2.783
				V60.375z"/>
			<path fill="#2B2523" d="M186.277,53.238l-4.89,13.995h3.678l0.796-2.505h4.373l0.814,2.505h3.758l-4.91-13.995H186.277z
				 M186.755,61.865l1.291-4.075l1.292,4.075H186.755z"/>
			<polygon fill="#2B2523" points="200.639,53.317 198.294,58.347 195.968,53.317 192.011,53.317 196.485,62.025 196.485,67.233 
				200.063,67.233 200.063,61.985 204.536,53.317 			"/>
			<path fill="#2B2523" d="M212.755,66.269c0.445-0.378,0.792-0.838,1.044-1.381c0.251-0.544,0.378-1.153,0.378-1.829v-0.04
				c0-0.597-0.1-1.114-0.298-1.551c-0.2-0.437-0.484-0.825-0.855-1.163c-0.371-0.338-0.821-0.633-1.351-0.885
				c-0.531-0.252-1.127-0.484-1.79-0.696c-0.437-0.159-0.798-0.304-1.082-0.438c-0.286-0.132-0.511-0.258-0.676-0.377
				c-0.166-0.119-0.281-0.239-0.348-0.358c-0.066-0.12-0.099-0.258-0.099-0.418v-0.02c0-0.263,0.108-0.483,0.327-0.655
				c0.219-0.172,0.534-0.258,0.945-0.258c0.569,0,1.133,0.12,1.689,0.358c0.557,0.238,1.074,0.543,1.551,0.914l1.809-2.664
				c-0.729-0.597-1.504-1.027-2.326-1.292c-0.823-0.265-1.703-0.397-2.645-0.397c-0.755,0-1.441,0.106-2.057,0.318
				c-0.616,0.213-1.14,0.507-1.57,0.884c-0.431,0.378-0.762,0.828-0.995,1.353c-0.231,0.523-0.347,1.103-0.347,1.738v0.06
				c0,0.636,0.109,1.179,0.329,1.63c0.218,0.45,0.525,0.842,0.923,1.172c0.397,0.333,0.868,0.619,1.411,0.865
				c0.544,0.245,1.147,0.481,1.81,0.705c0.41,0.147,0.748,0.279,1.013,0.398c0.265,0.119,0.474,0.235,0.626,0.348
				c0.152,0.112,0.258,0.227,0.318,0.346c0.059,0.12,0.09,0.246,0.09,0.378v0.02c0,0.305-0.123,0.55-0.368,0.736
				c-0.245,0.186-0.605,0.278-1.083,0.278c-0.676,0-1.331-0.146-1.968-0.437c-0.635-0.291-1.239-0.668-1.809-1.133l-1.909,2.604
				c0.822,0.715,1.713,1.235,2.674,1.561c0.96,0.324,1.958,0.486,2.992,0.486c0.743,0,1.424-0.099,2.048-0.298
				C211.778,66.935,212.312,66.648,212.755,66.269z"/>
			<polygon fill="#2B2523" points="134.689,62.196 133.077,62.196 133.077,67.431 134.689,67.431 134.689,65.71 140.044,65.71 
				140.044,63.918 134.689,63.918 			"/>
			<path fill="#2B2523" d="M135.973,56.237v2.787h1.383v-1.104h1.035c0.129,0.199,0.209,0.458,0.209,0.806
				c0,0.896-0.707,1.582-1.981,1.582h-0.1c-1.154,0-1.931-0.676-1.931-1.562c0-0.597,0.249-0.996,0.577-1.365l-1.364-0.995
				c-0.547,0.676-0.846,1.403-0.846,2.398c0,1.921,1.454,3.355,3.543,3.355h0.14c2.18,0,3.523-1.443,3.523-3.345
				c0-1.054-0.378-1.901-0.866-2.557H135.973z"/>
			<rect x="133.077" y="53.317" fill="#2B2523" width="6.968" height="1.792"/>
		</g>
	</g>
</g>
<g>
</g>
<g>
</g>
<g>
</g>
<g>
</g>
<g>
</g>
<g>
</g>
<g>
</g>
<g>
</g>
<g>
</g>
<g>
</g>
<g>
</g>
<g>
</g>
<g>
</g>
<g>
</g>
<g>
</g>
</svg>
