<?xml version="1.0" encoding="utf-8"?>
<!-- Generator: Adobe Illustrator 17.0.0, SVG Export Plug-In . SVG Version: 6.00 Build 0)  -->
<!DOCTYPE svg PUBLIC "-//W3C//DTD SVG 1.1//EN" "http://www.w3.org/Graphics/SVG/1.1/DTD/svg11.dtd">
<svg version="1.1" id="Layer_1" xmlns="http://www.w3.org/2000/svg" xmlns:xlink="http://www.w3.org/1999/xlink" x="0px" y="0px"
	 width="464px" height="92px" viewBox="0 0 464 92" enable-background="new 0 0 464 92" xml:space="preserve">
<g>
	<g>
		<path fill="#AD1B7D" d="M52.694,38.381c-2.183,0-4.429,1.014-5.731,3.118h-0.109v-2.612h-4.898v4.259l5.148,13.771v-9.106
			c0-3.812,1.197-5.37,3.994-5.37c2.391,0,3.301,1.522,3.301,4.606v9.871h5.149l-0.001-11.014c-0.029-3.437-0.85-5.985-3.593-7.018
			H55.81v-0.053C54.96,38.538,53.932,38.381,52.694,38.381"/>
		<path fill="#E01333" d="M40.364,38.887h-6.065l-5.131,13.524v13.36h0.913l2.11-5.988h10.054l2.032,5.988h6.137l-3.31-8.853h-5.147
			V43.147L40.364,38.887z M33.734,55.377l3.506-9.865h0.074l3.389,9.865H33.734z"/>
		<polygon fill="#AD1B7D" points="41.956,43.146 41.956,56.919 47.104,56.919 47.104,56.918 		"/>
		<path fill="#F5B300" d="M72.922,55.377h6.968l-3.389-9.865h-0.073L72.922,55.377z M73.488,38.887h6.065l10.05,26.883h-6.137
			l-2.032-5.987H71.38l-2.11,5.987h-5.981L73.488,38.887z"/>
		<path fill="#EC7A01" d="M66.671,26.574h-7.124v7.166H55.81v5.095c0.049,0.017,0.097,0.035,0.145,0.053h3.592l0.001,7.018
			c0,0.066,0.002,0.132,0.002,0.199v10.814h-0.002c0.052,3.591,2.184,4.986,5.024,5.466l2.422-6.384
			c-0.237-0.459-0.323-1.111-0.323-2.019V38.887h6.816V33.74h-6.816V26.574z"/>
		<path fill="#B22425" d="M55.81,38.835v0.052h0.145C55.907,38.869,55.859,38.852,55.81,38.835 M59.548,45.905l0.001,11.014V46.104
			C59.549,46.038,59.549,45.971,59.548,45.905"/>
		<path fill="#EC7A01" d="M71.381,59.784H71.38l-0.992,2.814c0.326-0.02,0.654-0.055,0.993-0.111V59.784z"/>
		<path fill="#EB6515" d="M66.995,56.001l-2.422,6.384c0.986,0.166,2.057,0.222,3.154,0.222c0.618,0,1.168,0.016,1.691,0.016
			c0.329,0,0.649-0.006,0.97-0.026l0.992-2.814h0.002v-2.864c-0.368,0.073-0.603,0.092-0.836,0.092c-0.241,0-0.48-0.02-0.863-0.02
			C68.184,56.991,67.385,56.758,66.995,56.001"/>
		<path fill="#B21F80" d="M83.669,41.233c-0.309,0.309-0.5,0.735-0.5,1.206c0,0.473,0.191,0.899,0.5,1.208
			c0.309,0.309,0.736,0.499,1.207,0.499c0.471,0,0.897-0.19,1.206-0.499c0.309-0.309,0.501-0.735,0.501-1.208
			c0-0.471-0.192-0.897-0.501-1.206c-0.309-0.309-0.735-0.501-1.206-0.501C84.405,40.731,83.979,40.923,83.669,41.233
			 M83.544,43.772c-0.34-0.341-0.552-0.812-0.552-1.333c0-1.038,0.844-1.883,1.884-1.884c1.039,0.001,1.884,0.845,1.884,1.884
			c0,1.043-0.844,1.884-1.884,1.884C84.357,44.323,83.885,44.112,83.544,43.772"/>
		<path fill="#B21F80" d="M84.586,42.362h0.256c0.266,0,0.436-0.148,0.436-0.367c0-0.251-0.181-0.36-0.445-0.36
			c-0.121,0-0.205,0.012-0.247,0.023V42.362z M84.336,41.485c0.127-0.029,0.31-0.044,0.48-0.044c0.266,0,0.441,0.05,0.562,0.159
			c0.095,0.085,0.151,0.217,0.151,0.368c0,0.253-0.162,0.422-0.363,0.491v0.01c0.146,0.052,0.236,0.189,0.284,0.389
			c0.062,0.271,0.108,0.457,0.146,0.53h-0.258c-0.031-0.055-0.073-0.221-0.127-0.461c-0.057-0.267-0.163-0.368-0.389-0.376h-0.237
			v0.838h-0.25V41.485z"/>
		<polygon fill="#AD1B7D" points="40.365,26.574 7.64,26.574 7.64,35.469 18.836,35.469 18.836,65.771 29.169,65.771 24.1,65.771 
			29.169,52.411 29.169,35.469 40.365,35.469 		"/>
		<polygon fill="#AF263D" points="29.169,52.411 24.099,65.771 29.169,65.771 		"/>
	</g>
	<g>
		<circle fill="#0082CA" cx="141.437" cy="16.85" r="9.857"/>
		<circle fill="#0082CA" cx="163.674" cy="39.036" r="9.857"/>
		<circle fill="#0082CA" cx="141.465" cy="39.036" r="9.857"/>
		<rect x="136.718" y="10.69" fill="#FFFFFF" width="2.808" height="12.321"/>
		<path fill="#FFFFFF" d="M140.211,18.895v-2.32h1.246c1.426,0,2.139-0.602,2.139-1.805c0-0.505-0.142-0.911-0.424-1.219
			c-0.331-0.361-0.939-0.541-1.824-0.541h-1.137v-2.32h1.408c0.783,0,1.372,0.039,1.77,0.117c1.101,0.211,1.913,0.755,2.437,1.634
			c0.415,0.686,0.623,1.469,0.623,2.347s-0.207,1.664-0.623,2.356c-0.5,0.843-1.276,1.381-2.329,1.616
			c-0.422,0.09-1.113,0.136-2.077,0.136H140.211z"/>
		<rect x="136.718" y="32.876" fill="#FFFFFF" width="2.808" height="12.321"/>
		<path fill="#FFFFFF" d="M140.211,41.081v-2.319h1.246c1.426,0,2.139-0.602,2.139-1.805c0-0.506-0.142-0.912-0.424-1.219
			c-0.331-0.361-0.939-0.541-1.824-0.541h-1.137v-2.32h1.408c0.783,0,1.372,0.039,1.77,0.117c1.101,0.211,1.913,0.756,2.437,1.634
			c0.415,0.686,0.623,1.468,0.623,2.347c0,0.879-0.207,1.664-0.623,2.356c-0.5,0.843-1.276,1.381-2.329,1.615
			c-0.422,0.091-1.113,0.135-2.077,0.135H140.211z"/>
		<circle fill="#0082CA" cx="163.674" cy="16.85" r="9.858"/>
		<path fill="#FFFFFF" d="M163.304,20.666c-0.661-0.058-1.193-0.25-1.595-0.578c-0.713-0.598-1.07-1.653-1.07-3.165
			c0-2.443,0.888-3.734,2.664-3.872V10.69c-0.512,0-0.98,0.046-1.405,0.138c-1.311,0.282-2.323,0.94-3.035,1.975
			c-0.776,1.133-1.164,2.492-1.164,4.079c0,1.449,0.336,2.711,1.009,3.785c0.764,1.23,1.811,1.981,3.139,2.251
			c0.396,0.08,0.882,0.123,1.457,0.13V20.666z"/>
		<path fill="#FFFFFF" d="M165.538,22.882c1.34-0.305,2.381-1.09,3.121-2.354c0.621-1.052,0.932-2.276,0.932-3.673
			c0-1.218-0.239-2.319-0.716-3.303c-0.42-0.874-1.004-1.546-1.751-2.018c-0.868-0.552-1.911-0.834-3.13-0.845v2.363
			c1.77,0.115,2.656,1.38,2.656,3.794c0,1.42-0.305,2.441-0.914,3.061c-0.465,0.477-1.046,0.73-1.742,0.759v2.38
			C164.586,23.04,165.101,22.985,165.538,22.882z"/>
		<path fill="#FFFFFF" d="M163.299,45.196c-1.133,0-2.07-0.197-2.809-0.59c-0.611-0.329-1.069-0.772-1.374-1.33
			c-0.3-0.552-0.449-1.162-0.449-1.831v-0.872v-7.697h2.739v7.23c0,0.528,0.029,0.96,0.088,1.295
			c0.158,0.869,0.759,1.35,1.805,1.444V45.196z"/>
		<path fill="#FFFFFF" d="M163.968,45.196v-2.351c0.793-0.059,1.332-0.355,1.62-0.889c0.199-0.358,0.299-0.998,0.299-1.92v-7.16
			h2.739v7.635c0,1.028-0.091,1.805-0.274,2.334c-0.246,0.74-0.76,1.321-1.54,1.744C166.061,45,165.113,45.202,163.968,45.196z"/>
		<g>
			<circle fill="#0082CA" cx="163.674" cy="61.223" r="9.858"/>
			<circle fill="#0082CA" cx="185.853" cy="61.223" r="9.858"/>
			<circle fill="#0082CA" cx="141.465" cy="61.223" r="9.858"/>
			<rect x="137.724" y="55.058" fill="#FFFFFF" width="2.527" height="11.092"/>
			<rect x="140.876" y="64.07" fill="#FFFFFF" width="4.274" height="2.081"/>
			<polygon fill="#FFFFFF" points="161.011,66.158 158.319,66.158 162.158,55.969 163.272,59.4 			"/>
			<polygon fill="#FFFFFF" points="165.475,64.288 162.312,64.288 162.971,62.287 164.841,62.287 162.515,55.058 165.053,55.058 
				168.971,66.158 166.093,66.158 			"/>
			<rect x="181.425" y="55.053" fill="#FFFFFF" width="2.528" height="11.095"/>
			<path fill="#FFFFFF" d="M191.113,66.148h-3.275l-3.243-4.641v-1.561h0.951c0.725,0,1.237-0.061,1.536-0.187
				c0.551-0.232,0.828-0.65,0.828-1.252c0-0.574-0.24-0.964-0.722-1.17c-0.298-0.131-0.783-0.196-1.455-0.196h-1.137v-2.089h0.991
				c0.851,0,1.465,0.02,1.844,0.058c0.954,0.092,1.675,0.404,2.164,0.935c0.541,0.59,0.812,1.354,0.812,2.291
				c0,1.166-0.437,2.033-1.309,2.601c-0.472,0.309-1.038,0.499-1.699,0.569L191.113,66.148z"/>
			<path fill="#0082CA" d="M141.141,83.797c-0.041,0-0.069-0.028-0.069-0.069v-0.682c0-0.041,0.027-0.069,0.069-0.069h0.586
				c0.041,0,0.069,0.028,0.069,0.069v0.682c0,0.041-0.027,0.069-0.069,0.069H141.141z M143.812,80.594
				c0-0.041,0.028-0.069,0.069-0.069h1.081c0.613,0,0.971,0.248,1.136,0.75c0.083,0.255,0.117,0.572,0.117,1.591
				c0,1.019-0.035,1.336-0.117,1.591c-0.165,0.503-0.523,0.75-1.136,0.75h-1.081c-0.041,0-0.069-0.027-0.069-0.069V80.594z
				 M144.591,84.54h0.296c0.262,0,0.413-0.103,0.496-0.337c0.055-0.172,0.083-0.4,0.083-1.336c0-0.937-0.027-1.164-0.083-1.336
				c-0.083-0.234-0.234-0.338-0.496-0.338h-0.296c-0.028,0-0.041,0.014-0.041,0.042v3.264
				C144.549,84.499,144.563,84.54,144.591,84.54z M146.863,80.594c0-0.041,0.028-0.069,0.069-0.069h1.921
				c0.041,0,0.069,0.027,0.069,0.069v0.53c0,0.041-0.028,0.069-0.069,0.069h-1.212c-0.028,0-0.041,0.014-0.041,0.042v1.233
				c0,0.028,0.014,0.041,0.041,0.041h1.047c0.041,0,0.069,0.028,0.069,0.069v0.53c0,0.041-0.028,0.069-0.069,0.069h-1.047
				c-0.028,0-0.041,0.014-0.041,0.041v1.281c0,0,0.014,0.041,0.041,0.041h1.212c0.041,0,0.069,0.028,0.069,0.069v0.53
				c0,0.041-0.028,0.069-0.069,0.069h-1.921c-0.041,0-0.069-0.027-0.069-0.069V80.594z M151.552,80.594
				c0.014-0.041,0.034-0.069,0.076-0.069h0.579c0.041,0,0.069,0.027,0.076,0.069l0.992,4.546c0.007,0.041-0.014,0.069-0.055,0.069
				h-0.585c-0.048,0-0.069-0.027-0.076-0.069l-0.186-0.944h-0.93l-0.186,0.944c-0.007,0.041-0.027,0.069-0.076,0.069h-0.585
				c-0.041,0-0.062-0.027-0.055-0.069L151.552,80.594z M152.255,83.576l-0.331-1.743h-0.021l-0.344,1.743H152.255z M155.842,85.332
				c-0.028,0.027-0.069,0.027-0.096,0l-0.324-0.276c-0.186,0.145-0.406,0.214-0.689,0.214c-0.579,0-0.958-0.269-1.109-0.73
				c-0.069-0.206-0.09-0.372-0.09-1.673c0-1.301,0.021-1.467,0.09-1.674c0.152-0.461,0.53-0.73,1.109-0.73
				c0.572,0,0.95,0.269,1.102,0.73c0.069,0.207,0.089,0.372,0.089,1.674c0,1.302-0.034,1.481-0.145,1.722l0.344,0.283
				c0.035,0.027,0.035,0.069,0.014,0.096L155.842,85.332z M154.94,84.582l-0.344-0.283c-0.035-0.028-0.035-0.069-0.014-0.096
				l0.234-0.282c0.027-0.034,0.069-0.041,0.103-0.007l0.262,0.234h0.014v-1.281c0-1.288-0.021-1.343-0.062-1.474
				c-0.048-0.158-0.207-0.261-0.399-0.261c-0.2,0-0.358,0.103-0.407,0.261c-0.041,0.131-0.048,0.186-0.048,1.474
				c0,1.288,0.007,1.35,0.048,1.474c0.048,0.165,0.206,0.269,0.407,0.269C154.816,84.609,154.899,84.595,154.94,84.582z
				 M156.564,84.017v-3.423c0-0.041,0.028-0.069,0.069-0.069h0.599c0.041,0,0.069,0.027,0.069,0.069v3.519
				c0,0.296,0.159,0.489,0.434,0.489c0.275,0,0.427-0.193,0.427-0.489v-3.519c0-0.041,0.028-0.069,0.069-0.069h0.599
				c0.041,0,0.069,0.027,0.069,0.069v3.423c0,0.833-0.441,1.253-1.164,1.253C157.012,85.271,156.564,84.85,156.564,84.017z
				 M159.622,80.594c0-0.041,0.027-0.069,0.069-0.069h0.599c0.041,0,0.069,0.027,0.069,0.069v4.546c0,0.041-0.028,0.069-0.069,0.069
				h-0.599c-0.041,0-0.069-0.027-0.069-0.069V80.594z M162.968,85.208c-0.041,0-0.069-0.027-0.069-0.069v-1.853l-0.895-2.693
				c-0.014-0.041,0-0.069,0.055-0.069h0.607c0.048,0,0.069,0.021,0.083,0.069l0.524,1.811h0.02l0.51-1.811
				c0.014-0.048,0.034-0.069,0.083-0.069h0.592c0.055,0,0.069,0.027,0.055,0.069l-0.895,2.693v1.853
				c0,0.041-0.028,0.069-0.069,0.069H162.968z M166.17,80.594c0-0.041,0.027-0.069,0.069-0.069h1.081
				c0.613,0,0.971,0.248,1.136,0.75c0.083,0.255,0.117,0.572,0.117,1.591c0,1.019-0.035,1.336-0.117,1.591
				c-0.165,0.503-0.523,0.75-1.136,0.75h-1.081c-0.041,0-0.069-0.027-0.069-0.069V80.594z M166.948,84.54h0.296
				c0.262,0,0.413-0.103,0.496-0.337c0.055-0.172,0.083-0.4,0.083-1.336c0-0.937-0.028-1.164-0.083-1.336
				c-0.083-0.234-0.234-0.338-0.496-0.338h-0.296c-0.028,0-0.041,0.014-0.041,0.042v3.264
				C166.907,84.499,166.921,84.54,166.948,84.54z M169.22,80.594c0-0.041,0.028-0.069,0.069-0.069h1.921
				c0.041,0,0.069,0.027,0.069,0.069v0.53c0,0.041-0.028,0.069-0.069,0.069h-1.212c-0.027,0-0.041,0.014-0.041,0.042v1.233
				c0,0.028,0.014,0.041,0.041,0.041h1.047c0.041,0,0.069,0.028,0.069,0.069v0.53c0,0.041-0.027,0.069-0.069,0.069h-1.047
				c-0.027,0-0.041,0.014-0.041,0.041v1.281c0,0,0.014,0.041,0.041,0.041h1.212c0.041,0,0.069,0.028,0.069,0.069v0.53
				c0,0.041-0.028,0.069-0.069,0.069h-1.921c-0.041,0-0.069-0.027-0.069-0.069V80.594z M173.91,80.594
				c0.014-0.041,0.034-0.069,0.076-0.069h0.579c0.041,0,0.069,0.027,0.076,0.069l0.992,4.546c0.007,0.041-0.014,0.069-0.055,0.069
				h-0.585c-0.048,0-0.069-0.027-0.076-0.069l-0.186-0.944h-0.93l-0.186,0.944c-0.007,0.041-0.027,0.069-0.076,0.069h-0.585
				c-0.041,0-0.062-0.027-0.055-0.069L173.91,80.594z M174.612,83.576l-0.331-1.743h-0.021l-0.344,1.743H174.612z M176.078,80.594
				c0-0.041,0.027-0.069,0.069-0.069h0.599c0.041,0,0.069,0.027,0.069,0.069v3.905c0,0,0.014,0.041,0.041,0.041h1.212
				c0.042,0,0.069,0.028,0.069,0.069v0.53c0,0.041-0.027,0.069-0.069,0.069h-1.921c-0.042,0-0.069-0.027-0.069-0.069V80.594z
				 M178.64,80.594c0-0.041,0.027-0.069,0.069-0.069h0.599c0.042,0,0.069,0.027,0.069,0.069v3.905c0,0,0.014,0.041,0.041,0.041
				h1.212c0.041,0,0.069,0.028,0.069,0.069v0.53c0,0.041-0.027,0.069-0.069,0.069h-1.921c-0.041,0-0.069-0.027-0.069-0.069V80.594z
				 M181.931,80.594c0.014-0.041,0.034-0.069,0.076-0.069h0.578c0.041,0,0.069,0.027,0.076,0.069l0.992,4.546
				c0.007,0.041-0.014,0.069-0.055,0.069h-0.585c-0.048,0-0.069-0.027-0.076-0.069l-0.186-0.944h-0.93l-0.186,0.944
				c-0.007,0.041-0.028,0.069-0.075,0.069h-0.585c-0.042,0-0.062-0.027-0.055-0.069L181.931,80.594z M182.634,83.576l-0.33-1.743
				h-0.021l-0.344,1.743H182.634z M185.456,83.797c-0.041,0-0.069-0.028-0.069-0.069v-0.682c0-0.041,0.028-0.069,0.069-0.069h0.585
				c0.041,0,0.069,0.028,0.069,0.069v0.682c0,0.041-0.028,0.069-0.069,0.069H185.456z"/>
		</g>
	</g>
	<g>
		<g>
			<polygon fill="#2B2523" points="249.336,43.917 256.48,43.917 256.479,32.546 256.478,32.539 266.001,43.917 275.528,43.917 
				263.623,29.629 260.049,28.438 270.77,15.337 261.252,15.337 252.907,25.493 252.909,15.337 245.76,15.337 245.76,28.44 
				249.334,29.633 			"/>
		</g>
		<g>
			<path fill="#2B2523" d="M274.427,60.267c-0.122-4.012-1.692-7.308-4.713-9.892c-3.15-2.69-6.746-4.049-10.788-4.073V46.3
				c-4.044,0-7.64,1.384-10.79,4.075c-3.023,2.584-4.596,5.88-4.717,9.892c0.09,0.032,2.543,1.027,3.458,1.388
				c0,4.539,1.463,8.161,4.389,11.037c2.927,2.879,6.635,4.316,11.125,4.316c4.512,0,8.226-1.437,11.139-4.316
				c2.914-2.876,4.372-6.526,4.372-11.064C277.167,61.318,274.427,60.267,274.427,60.267z M267.99,67.591
				c-1.55,1.591-3.415,2.387-5.598,2.387c-2.184,0-4.05-0.794-5.599-2.381c-1.55-1.588-2.325-3.584-2.325-5.99
				c-0.798-0.309-3.443-1.34-3.443-1.34c0.134-1.713,0.9-3.25,2.302-4.609c1.55-1.5,3.417-2.263,5.6-2.287
				c2.181,0,4.048,0.753,5.599,2.257c1.408,1.367,2.198,2.867,2.328,4.593c1.078,0.425,3.108,1.225,3.46,1.367
				C270.313,63.998,269.539,66,267.99,67.591z"/>
		</g>
		<g>
			<g>
				<path fill="#971915" d="M284.782,25.871l-0.125,0.315h-0.502l0.701-1.818h0.516l0.685,1.818h-0.504l-0.119-0.315H284.782z
					 M285.113,24.93h-0.006l-0.195,0.579h0.392L285.113,24.93z"/>
			</g>
			<g>
				<path fill="#971915" d="M285.703,27.686l-0.188,0.367c-0.043-0.035-0.092-0.064-0.146-0.086
					c-0.054-0.022-0.111-0.033-0.168-0.033l-0.018,0.001c-0.02,0.002-0.028,0.002-0.028,0.002c-0.047,0.012-0.082,0.029-0.112,0.052
					c-0.03,0.025-0.045,0.057-0.045,0.097c0,0.038,0.014,0.07,0.043,0.094c0.029,0.023,0.06,0.041,0.094,0.056l0.026,0.007
					l0.047,0.016l0.122,0.035c0.126,0.038,0.233,0.094,0.318,0.168c0.086,0.073,0.129,0.183,0.129,0.331v0.013v0.02
					c-0.003,0.09-0.018,0.171-0.044,0.25c-0.029,0.081-0.076,0.149-0.144,0.207c-0.06,0.053-0.13,0.092-0.206,0.118
					c-0.078,0.025-0.157,0.041-0.237,0.047l-0.038,0.001l-0.023,0.001c-0.125,0-0.236-0.018-0.345-0.053
					c-0.111-0.037-0.213-0.086-0.305-0.151l0.203-0.384c0.06,0.053,0.125,0.098,0.195,0.135c0.071,0.037,0.145,0.056,0.225,0.056
					h0.006h0.013c0.053-0.003,0.102-0.02,0.144-0.05c0.045-0.029,0.066-0.075,0.066-0.133c0-0.045-0.018-0.082-0.054-0.109
					c-0.036-0.027-0.077-0.049-0.121-0.065c0,0-0.039-0.011-0.058-0.019c-0.02-0.005-0.036-0.01-0.036-0.01l-0.027-0.008
					l-0.012-0.004c-0.143-0.04-0.256-0.092-0.342-0.155c-0.086-0.064-0.128-0.18-0.128-0.352c0-0.186,0.059-0.333,0.177-0.444
					c0.118-0.111,0.268-0.167,0.45-0.167c0.038,0,0.075,0.003,0.113,0.006c0.039,0.005,0.077,0.011,0.115,0.02
					c0.061,0.014,0.122,0.03,0.18,0.052c0.058,0.021,0.113,0.045,0.161,0.072V27.686z"/>
			</g>
			<g>
				<path fill="#971915" d="M285.342,32.62h-0.474v-1.819h0.474V32.62z"/>
			</g>
			<g>
				<path fill="#971915" d="M284.782,35.521l-0.125,0.316h-0.502l0.701-1.82h0.516l0.685,1.82h-0.504l-0.119-0.316H284.782z
					 M285.113,34.58h-0.006l-0.195,0.579h0.392L285.113,34.58z"/>
			</g>
			<g>
				<path fill="#971915" d="M284.198,37.235h0.473l0.866,1.112h0.005v-1.112h0.473v1.818h-0.473l-0.866-1.115h-0.005v1.115h-0.473
					V37.235z"/>
			</g>
			<g>
				<path fill="#971915" d="M285.304,46.992h0.587l-0.725,0.86l0.791,0.958h-0.614l-0.61-0.788h-0.006v0.788h-0.472v-1.818h0.472
					v0.75h0.006L285.304,46.992z"/>
			</g>
			<g>
				<path fill="#971915" d="M285.342,52.027h-0.474v-1.818h0.474V52.027z"/>
			</g>
			<g>
				<path fill="#971915" d="M285.342,55.243h-0.474v-1.418h-0.391v-0.401h1.256v0.401h-0.391V55.243z"/>
			</g>
			<g>
				<path fill="#971915" d="M285.802,56.685v0.566c-0.048-0.065-0.109-0.113-0.183-0.147c-0.075-0.034-0.151-0.051-0.232-0.051
					c-0.143,0-0.261,0.05-0.351,0.147c-0.09,0.097-0.133,0.217-0.133,0.359c0,0.143,0.045,0.26,0.135,0.354
					c0.092,0.093,0.211,0.14,0.358,0.14c0.077,0,0.15-0.018,0.224-0.052c0.073-0.035,0.133-0.082,0.183-0.141v0.564
					c-0.043,0.015-0.084,0.027-0.123,0.038c-0.039,0.01-0.076,0.018-0.113,0.027c-0.029,0.006-0.059,0.011-0.089,0.015
					c-0.029,0.002-0.06,0.004-0.092,0.004c-0.127,0-0.249-0.023-0.365-0.069c-0.118-0.045-0.223-0.111-0.318-0.196
					c-0.1-0.09-0.174-0.195-0.221-0.31c-0.047-0.117-0.071-0.243-0.071-0.378c0-0.124,0.023-0.244,0.067-0.36
					c0.046-0.116,0.114-0.218,0.2-0.306c0.088-0.09,0.189-0.16,0.308-0.212c0.116-0.051,0.238-0.08,0.363-0.082h0.011h0.007
					c0.079,0,0.153,0.008,0.224,0.023c0.072,0.017,0.142,0.04,0.212,0.069V56.685z"/>
			</g>
			<g>
				<path fill="#971915" d="M285.446,60.56v-0.703h0.474v1.82h-0.474v-0.745h-0.681v0.745h-0.473v-1.82h0.473v0.703H285.446z"/>
			</g>
			<g>
				<path fill="#971915" d="M285.06,63.475v0.304h0.534v0.4h-0.534v0.314h0.562v0.401h-1.035v-1.82h1.035v0.401H285.06z"/>
			</g>
			<g>
				<path fill="#971915" d="M284.198,66.291h0.473l0.866,1.111h0.005v-1.111h0.473v1.818h-0.473l-0.866-1.114h-0.005v1.114h-0.473
					V66.291z"/>
			</g>
			<g>
				<polygon fill="#971915" points="285.105,42.148 285.29,42.72 285.892,42.72 285.405,43.072 285.592,43.644 285.105,43.291 
					284.619,43.644 284.805,43.072 284.319,42.72 284.92,42.72 				"/>
			</g>
			<g>
				<path fill="#971915" d="M287.531,70.046h-4.852V22.432h4.852V70.046z M283.094,69.631h4.021V22.846h-4.021V69.631z"/>
			</g>
		</g>
	</g>
	<g>
		<path fill="#6A1B32" d="M456.36,42.257c-0.011-1.667-0.962-3.26-2.375-4.539c-0.068-0.06-0.136-0.121-0.204-0.18
			c-0.095-0.08-0.191-0.161-0.291-0.239c-0.555-0.445-1.167-0.84-1.809-1.178c-1.104-3.503-2.496-5.876-7.307-6.875
			c-0.14-0.029-0.285-0.059-0.432-0.086c-0.073-0.014-0.147-0.027-0.224-0.04c-0.017-0.023-0.035-0.048-0.052-0.072
			c-0.117-0.16-0.232-0.325-0.354-0.49c-0.344-0.47-0.715-0.956-1.146-1.431l-0.066-0.076l-0.063-0.062
			c-0.947-1.016-2.166-1.942-3.92-2.426c-0.391-0.107-0.81-0.192-1.259-0.251c-0.47-0.063-0.971-0.096-1.511-0.096h-0.027
			c-0.492,0-1.014,0.024-1.57,0.082c-0.51-0.531-1.067-1.097-1.711-1.624c-1.399-1.165-3.215-2.135-5.926-2.135h-0.007
			c-0.84,0-1.76,0.093-2.77,0.294c-1.016-0.904-2.13-1.544-3.304-1.96c-0.297-0.105-0.602-0.197-0.906-0.275
			c-0.437-0.113-0.881-0.195-1.329-0.253c-0.521-0.066-1.048-0.098-1.579-0.098h-0.037c-1.222,0-2.47,0.159-3.722,0.428
			c-1.302-1.082-3.692-2.124-6.246-2.138c-1.068,0-2.167,0.193-3.189,0.67c-1.124,0.529-2.17,1.114-3.171,1.665
			c-2.113,1.158-4.022,2.16-6.02,2.16c-0.02,0-0.039,0-0.06-0.001h-0.052c-0.905-0.005-1.854-0.192-2.905-0.664
			c0.157-0.159,0.301-0.34,0.431-0.516c0.213-0.313,0.396-0.652,0.541-0.978c0.116-0.261,0.21-0.515,0.278-0.743
			c0.067-0.238,0.102-0.482,0.102-0.721c-0.009-1.324-0.988-2.757-2.636-2.768h-0.056c-0.831,0.005-1.518,0.35-1.958,0.86
			c-0.453,0.518-0.667,1.181-0.667,1.825c0,0.271,0.039,0.539,0.114,0.801c0.068,0.23,0.165,0.484,0.285,0.745
			c0.15,0.33,0.34,0.672,0.563,0.985c0.139,0.186,0.289,0.369,0.457,0.536c-1.027,0.454-1.959,0.632-2.844,0.636h-0.011
			c-1.993,0-3.904-0.999-6.018-2.157c-1.001-0.551-2.048-1.136-3.171-1.665c-1.044-0.492-2.219-0.702-3.393-0.702
			c-2.233,0.001-4.481,0.766-5.98,2.036c-0.219-0.046-0.427-0.088-0.64-0.131c-1.241-0.26-2.402-0.442-3.542-0.442h-0.047
			c-1.063,0-2.098,0.175-3.129,0.571c-0.254,0.098-0.506,0.208-0.762,0.333c-0.159,0.077-0.318,0.161-0.477,0.25
			c-0.355,0.199-0.71,0.427-1.068,0.683c-0.425,0.302-0.851,0.632-1.281,1.027c-0.54-0.109-1.053-0.187-1.539-0.236
			c-0.462-0.055-0.901-0.082-1.327-0.082h-0.017c-3.106,0-5.191,1.395-7.53,3.785c-0.631-0.064-1.22-0.101-1.772-0.101h-0.053
			c-1.165,0-2.154,0.161-3.02,0.459c-0.279,0.097-0.545,0.204-0.801,0.33c-1.727,0.834-2.973,2.288-4.323,4.135
			c-2.594,0.455-4.29,1.159-5.477,2.304c-0.239,0.234-0.457,0.482-0.657,0.749c-0.078,0.102-0.155,0.207-0.226,0.317
			c-0.178,0.264-0.34,0.543-0.493,0.839c-0.352,0.68-0.65,1.446-0.945,2.314c-0.054,0.155-0.107,0.315-0.161,0.478
			c-0.496,0.261-0.975,0.558-1.423,0.883c-1.884,1.371-3.241,3.259-3.252,5.254c-0.01,1.539,0.867,3.024,1.228,3.901
			c-0.201,0.488-0.889,1.343-1.096,2.906c-0.054,0.389-0.075,0.823-0.054,1.304c0.015,0.293,0.054,0.583,0.117,0.866
			c0.451,2.038,2.136,3.761,4.478,4.994c0.054,0.166,0.108,0.33,0.164,0.491c0.051,0.15,0.103,0.299,0.157,0.445
			c0.136,0.366,0.277,0.715,0.431,1.046c1.254,2.74,3.165,4.328,7.218,5.021c1.037,1.401,2.139,2.568,3.424,3.412
			c0.248,0.163,0.505,0.314,0.768,0.453c0.634,0.332,1.311,0.588,2.047,0.762c0.171,0.041,0.346,0.075,0.523,0.108
			c0.567,0.098,1.165,0.151,1.8,0.151h0.029c0.441,0,0.894-0.025,1.368-0.072c0.057,0.058,0.114,0.116,0.171,0.172
			c0.1,0.101,0.202,0.2,0.303,0.298c2.154,2.074,4.294,3.287,7.21,3.287h0.025c0.839,0,1.734-0.094,2.705-0.291
			c0.279,0.243,0.572,0.468,0.877,0.673c0.255,0.171,0.517,0.327,0.786,0.476c1.76,0.948,3.825,1.363,5.876,1.363
			c1.129,0,2.26-0.128,3.344-0.355c1.472,1.198,4.129,2.007,6.547,2.019c1.038-0.003,2.044-0.158,2.889-0.548
			c3.491-1.642,6.248-3.825,9.187-3.825h0.06c0.887,0.003,1.819,0.183,2.851,0.638c-0.168,0.165-0.319,0.346-0.459,0.535
			c-0.397,0.56-0.69,1.204-0.847,1.729c-0.076,0.262-0.111,0.528-0.111,0.8c0,0.644,0.21,1.308,0.664,1.827
			c0.439,0.509,1.126,0.855,1.958,0.861h0.056c1.648-0.013,2.628-1.445,2.636-2.768c0-0.239-0.034-0.482-0.1-0.722
			c-0.156-0.512-0.436-1.154-0.822-1.722c-0.13-0.177-0.271-0.355-0.429-0.512c1.05-0.474,1.999-0.662,2.904-0.666h0.06
			c1.308,0,2.578,0.432,3.892,1.055c0.989,0.47,2.003,1.046,3.078,1.632c0.125,0.068,0.255,0.136,0.383,0.205
			c0.591,0.318,1.202,0.635,1.838,0.933c1,0.467,2.072,0.65,3.11,0.65c0.521-0.002,1.032-0.048,1.528-0.128
			c1.651-0.267,3.117-0.899,4.116-1.519c0.121-0.076,0.236-0.152,0.343-0.226c0.119-0.082,0.23-0.165,0.332-0.245
			c1.324,0.289,2.625,0.476,3.901,0.476h0.034c2.451,0,4.823-0.732,6.95-2.634c0.187,0.037,0.371,0.069,0.551,0.098
			c0.73,0.118,1.416,0.175,2.064,0.175h0.009c0.186,0,0.365-0.005,0.545-0.014c3.225-0.164,5.345-1.79,7.243-3.725
			c0.54,0.058,1.05,0.084,1.535,0.084h0.013c0.721,0,1.381-0.061,1.985-0.171c0.234-0.043,0.46-0.092,0.679-0.15v-0.002
			c1.442-0.376,2.539-1.054,3.432-1.847c0.955-0.85,1.672-1.835,2.324-2.728c0.082-0.014,0.162-0.029,0.244-0.043
			c0.311-0.057,0.609-0.121,0.894-0.19c0.147-0.036,0.289-0.072,0.429-0.11c0.708-0.191,1.33-0.418,1.88-0.677
			c0.453-0.212,0.857-0.45,1.223-0.707c1.806-1.277,2.602-3.079,3.294-5.275c2.671-1.405,4.487-3.442,4.598-5.862
			c0.114-2.421-0.898-3.602-1.149-4.211C455.492,45.281,456.368,43.797,456.36,42.257z M389.568,16.696h0.019
			c0.663,0.005,1.096,0.654,1.099,1.299c0,0.11-0.01,0.218-0.041,0.317c-0.042,0.159-0.11,0.358-0.196,0.559
			c-0.079,0.185-0.176,0.371-0.283,0.526c-0.149,0.212-0.259,0.306-0.388,0.431l-0.214,0.166l-0.196-0.155
			c-0.125-0.105-0.25-0.236-0.38-0.446c-0.106-0.156-0.209-0.342-0.292-0.523c-0.09-0.203-0.162-0.401-0.204-0.559
			c-0.031-0.121-0.052-0.25-0.052-0.381C388.464,17.289,388.792,16.708,389.568,16.696z M389.64,75.648h-0.019
			c-0.78-0.013-1.104-0.59-1.129-1.236c0-0.131,0.022-0.261,0.052-0.381c0.079-0.298,0.269-0.749,0.498-1.081
			c0.125-0.21,0.244-0.323,0.359-0.428l0.23-0.185l0.232,0.179c0.13,0.111,0.223,0.216,0.354,0.43
			c0.215,0.331,0.397,0.78,0.48,1.085c0.027,0.103,0.038,0.209,0.038,0.317C390.734,74.994,390.3,75.643,389.64,75.648z
			 M451.025,54.741l-0.182,0.096l-0.052,0.17c-1.254,3.693-2.073,5.633-7.445,6.584l-0.227,0.041L443,61.797
			c-1.686,2.262-3.268,4.631-7.663,4.641c-0.516,0-1.076-0.029-1.686-0.105l-0.302-0.031l-0.188,0.196
			c-2.04,2.095-3.993,3.603-7.174,3.604c-0.795,0-1.677-0.092-2.662-0.308l-0.319-0.07l-0.212,0.202
			c-2.052,1.903-4.12,2.535-6.419,2.544c-1.246,0-2.555-0.2-3.935-0.514l-0.32-0.072l-0.219,0.205
			c-0.745,0.72-3.258,2.031-5.714,2.031c-0.019,0-0.035,0-0.055,0c-0.889-0.002-1.765-0.159-2.592-0.543
			c-3.377-1.541-6.186-3.912-9.791-3.944h-0.016c-1.31,0-2.691,0.342-4.145,1.138c-1.461-0.796-2.843-1.138-4.157-1.138
			c-3.609,0.032-6.413,2.403-9.789,3.944c-0.629,0.293-1.461,0.439-2.378,0.439h-0.046c-2.229,0-4.876-0.894-5.941-1.928
			l-0.225-0.205l-0.32,0.072c-1.094,0.251-2.239,0.388-3.373,0.388c-2.623,0-5.163-0.72-6.974-2.418l-0.217-0.202l-0.32,0.07
			c-1.029,0.223-1.933,0.329-2.753,0.329c-2.8-0.008-4.707-1.195-7.079-3.625l-0.191-0.196l-0.302,0.031
			c-0.539,0.062-1.044,0.095-1.523,0.095c-3.498-0.007-5.597-1.64-7.823-4.631l-0.119-0.166l-0.23-0.039
			c-4.856-0.863-6.054-2.482-7.447-6.584l-0.049-0.17l-0.181-0.096h0.008c-0.276-0.141-0.538-0.286-0.786-0.438
			c-2.078-1.255-3.205-2.809-3.21-4.701c0-0.982,0.301-2.071,0.98-3.257l0.104-0.19l-0.104-0.181
			c-0.658-1.169-0.948-2.229-0.948-3.189c0.004-1.936,1.168-3.52,3.178-4.744c0.249-0.153,0.51-0.299,0.786-0.438h-0.008
			l0.181-0.089l0.049-0.166c0.683-2.109,1.303-3.545,2.328-4.527c1.024-0.985,2.493-1.621,5.119-2.064l0.23-0.042l0.119-0.164
			c2.304-3.09,3.735-4.648,7.422-4.666c0.579,0,1.219,0.04,1.923,0.125l0.304,0.035l0.191-0.193
			c2.422-2.493,4.167-3.653,6.917-3.656c0.849,0,1.803,0.11,2.915,0.355l0.32,0.068l0.217-0.204
			c2.299-2.134,4.123-2.762,6.196-2.771c1.258,0,2.632,0.253,4.222,0.617l0.32,0.076l0.221-0.207c0.571-0.544,1.328-1,2.177-1.331
			c1.005-0.398,2.136-0.623,3.239-0.623h0.006c1.019,0,2.018,0.19,2.877,0.59l0.065,0.032c3.348,1.55,6.137,3.885,9.719,3.911h0.015
			c1.313,0,2.69-0.341,4.147-1.133c1.454,0.792,2.837,1.133,4.145,1.133h0.016c3.583-0.025,6.378-2.36,9.724-3.911
			c0.02-0.014,0.044-0.022,0.067-0.032c0.846-0.392,1.75-0.556,2.672-0.56h0.024c1.074,0,2.159,0.24,3.113,0.592
			c1.099,0.399,2.024,0.954,2.553,1.456l0.216,0.209l0.323-0.074c1.296-0.294,2.559-0.463,3.76-0.463
			c2.44,0.004,4.633,0.674,6.594,2.488l0.212,0.204l0.319-0.068c1.065-0.229,1.995-0.328,2.817-0.328
			c3.575,0,5.282,1.842,7.02,3.629l0.188,0.193l0.302-0.035c0.621-0.075,1.196-0.107,1.721-0.107
			c4.505,0.007,5.996,2.462,7.628,4.648l0.118,0.162l0.227,0.044c5.247,0.932,6.151,2.786,7.445,6.591l0.052,0.166l0.182,0.089
			c2.485,1.277,3.958,3.007,3.963,5.182c0,0.96-0.294,2.021-0.949,3.189l-0.104,0.181l0.104,0.19
			c0.676,1.187,0.978,2.275,0.978,3.257C455.013,51.721,453.601,53.415,451.025,54.741z"/>
		<g>
			<polygon fill="#6A1B32" points="438.655,55.489 438.333,55.489 438.333,53.414 437.537,53.414 437.537,53.138 439.452,53.138 
				439.452,53.414 438.655,53.414 			"/>
			<g>
				<polygon fill="#6A1B32" points="348.728,51.613 345.115,51.613 345.127,45.764 341.515,45.764 341.511,51.603 337.915,51.596 
					337.915,36.765 341.515,36.765 341.52,42.347 345.077,42.347 345.077,36.775 348.718,36.775 				"/>
				<g>
					<path fill="#6A1B32" d="M357.271,40.423c-1.047,0-1.894-0.85-1.894-1.894c0-1.047,0.847-1.894,1.894-1.894
						c1.046,0,1.892,0.847,1.892,1.894C359.163,39.573,358.316,40.423,357.271,40.423"/>
					<path fill="#6A1B32" d="M352.767,40.423c-1.047,0-1.894-0.85-1.894-1.894c0-1.047,0.847-1.894,1.894-1.894
						c1.044,0,1.892,0.847,1.892,1.894C354.659,39.573,353.811,40.423,352.767,40.423"/>
					<path fill="#6A1B32" d="M353.547,51.823c-0.603,0-1.206-0.122-1.744-0.35c-1.743-0.821-2.444-2.664-2.504-4.466
						c-0.118-2.163,0.682-4.244,2.642-5.245c0.498-0.218,1.12-0.353,1.742-0.353c0.806,0,1.612,0.227,2.143,0.794l0.098-0.622h3.265
						v9.995h-3.123l-0.08-0.582C355.31,51.563,354.428,51.823,353.547,51.823 M354.361,44.648c-0.171,0-1.482,0.064-1.482,2.029
						c0,0-0.202,2.002,1.55,2.002l0.019,0.002c0.171,0,1.434-0.068,1.434-2.028c0,0,0.224-1.953-1.503-2.005H354.361"/>
					<path fill="#6A1B32" d="M374.857,56.319c-1.139,0-2.291-0.219-3.249-0.547l-0.006-2.898c0.742,0.289,1.681,0.559,2.582,0.559
						c0.725,0,1.429-0.175,1.984-0.66c0.419-0.439,0.501-1.121,0.381-1.72c-0.597,0.447-1.4,0.672-2.197,0.672
						c-0.489,0-0.974-0.084-1.408-0.253c-1.902-0.762-2.784-2.781-2.784-4.745c0.023-1.983,0.622-3.926,2.403-4.967
						c0.559-0.293,1.281-0.474,1.997-0.474c0.796,0,1.586,0.226,2.128,0.774l0.101-0.622h3.275l-0.012,10.174
						c-0.04,1.443-0.521,2.724-1.642,3.667C377.457,56.03,376.167,56.319,374.857,56.319 M375.207,44.523
						c-0.177,0-1.482,0.067-1.482,2.03c0,0-0.2,2.001,1.552,2.001h0.017c0.166,0,1.435-0.064,1.435-2.026
						c0,0,0.222-1.954-1.504-2.005H375.207"/>
					<path fill="#6A1B32" d="M421.143,51.823c-0.605,0-1.209-0.122-1.745-0.35c-1.742-0.821-2.443-2.664-2.504-4.466
						c-0.119-2.163,0.681-4.244,2.646-5.245c0.494-0.218,1.118-0.353,1.738-0.353c0.808,0,1.614,0.227,2.147,0.794l0.098-0.622
						h3.263v9.995h-3.123l-0.079-0.582C422.905,51.563,422.025,51.823,421.143,51.823 M421.958,44.648
						c-0.173,0-1.48,0.064-1.48,2.029c0,0-0.202,2.002,1.547,2.002c0,0,0.006,0.002,0.019,0.002c0.171,0,1.434-0.068,1.434-2.028
						c0,0,0.226-1.953-1.503-2.005H421.958"/>
				</g>
				<polygon fill="#6A1B32" points="434.791,51.582 427.081,51.582 430.385,44.449 427.331,44.449 427.331,41.582 435.402,41.582 
					432.036,48.88 434.791,48.88 				"/>
				<g>
					<path fill="#6A1B32" d="M438.24,51.89c-0.267,0-0.551-0.018-0.848-0.056c0,0-2.027-0.324-2.177-0.526V48.53
						c0,0,1.35,0.701,2.503,0.727h0.023c0.185,0,1.384-0.023,1.428-0.577c0,0,0.126-0.501-1.276-0.753c0,0-1.901-0.186-2.79-1.789
						c0,0-0.812-2.039,0.662-3.567c0,0,1.081-1.134,2.805-1.134c0.086,0,0.173,0.003,0.263,0.009h0.031
						c0.246,0,1.866,0.02,3.16,0.55v2.579c0,0-0.954-0.476-2.166-0.476c-0.15,0-0.307,0.008-0.463,0.024h-0.016
						c-0.13,0-1.06,0.021-1.06,0.628c0,0-0.101,0.348,1,0.449c0,0,1.729,0.023,2.754,1.051c0,0,0.801,0.826,0.701,2.053
						c0,0,0.074,1.852-1.626,2.828C441.147,51.133,440.03,51.89,438.24,51.89"/>
				</g>
				<rect x="400.627" y="44.072" fill="#6A1B32" width="3.408" height="3.256"/>
				<g>
					<path fill="#6A1B32" d="M399.451,51.633h-3.203v-6.108c0,0-0.101-1.025-1.102-1.077c-0.058-0.003-0.114-0.005-0.17-0.005
						c-0.82,0-1.045,0.354-1.104,1.082v6.096h-3.298V41.621h2.972l0.126,0.624c0,0,0.975-0.825,2-0.875c0,0,0.216-0.034,0.533-0.034
						c0.453,0,1.115,0.069,1.645,0.409c0,0,1.402,0.602,1.6,2.604V51.633z"/>
					<path fill="#6A1B32" d="M363.983,51.823c-0.604,0-1.208-0.122-1.745-0.35c-1.74-0.821-2.441-2.664-2.503-4.466
						c-0.118-2.163,0.681-4.244,2.643-5.245c0.496-0.218,1.118-0.353,1.74-0.353c0.807,0,1.612,0.227,2.142,0.794l0.103-0.622h3.265
						v9.995h-3.125l-0.079-0.582C365.745,51.563,364.864,51.823,363.983,51.823 M364.796,44.648c-0.171,0-1.482,0.064-1.482,2.029
						c0,0-0.199,2.002,1.552,2.002l0.019,0.002c0.172,0,1.432-0.068,1.432-2.028c0,0,0.225-1.953-1.5-2.005H364.796"/>
					<path fill="#6A1B32" d="M409.663,51.607h-4.355V36.764h4.654c0.041,0,0.084-0.001,0.125-0.001c2.139,0,3.654,0.952,3.654,0.952
						c3.03,1.678,2.98,6.307,2.98,6.307c-0.076,5.259-3.003,6.561-3.003,6.561C412.441,51.483,409.663,51.607,409.663,51.607
						 M409.114,40.093v8.234h1.001c0,0,1.05-0.023,1.699-0.774c0,0,1.076-0.926,1.076-3.357c0-0.074-0.012-2.729-1.276-3.528
						c0,0-0.585-0.576-1.526-0.576H409.114z"/>
					<path fill="#6A1B32" d="M386.047,51.671c-1.413,0-2.819-0.408-3.833-1.299c-1.561-1.403-1.818-3.432-1.557-5.462
						c0.372-1.695,1.817-3.31,3.519-3.67c0.402-0.084,0.803-0.126,1.198-0.126c1.688,0,3.235,0.769,4.046,2.329
						c0.499,0.888,0.604,1.86,0.683,2.884l-5.344,1.92c0.444,0.531,1.114,0.717,1.824,0.717c0.63,0,1.29-0.147,1.851-0.328
						l0.887-0.404l0.003,2.659C388.367,51.397,387.203,51.671,386.047,51.671 M385.261,43.887c-0.77,0-1.397,0.648-1.397,1.453
						c0,0.153,0.023,0.306,0.069,0.446l2.652-0.916C386.399,44.3,385.877,43.887,385.261,43.887"/>
				</g>
				<g>
					<path fill="#6A1B32" d="M441.998,55.489h-0.312v-1.392c0-0.068,0.014-0.366,0.014-0.584h-0.014l-0.66,1.976h-0.312
						l-0.667-1.974h-0.005c0,0.216,0.005,0.514,0.005,0.582v1.392h-0.311v-2.352h0.457l0.677,1.988h0.003l0.674-1.988h0.451V55.489z
						"/>
				</g>
			</g>
		</g>
	</g>
</g>
<g>
</g>
<g>
</g>
<g>
</g>
<g>
</g>
<g>
</g>
<g>
</g>
<g>
</g>
<g>
</g>
<g>
</g>
<g>
</g>
<g>
</g>
<g>
</g>
<g>
</g>
<g>
</g>
<g>
</g>
</svg>
