<?xml version="1.0" encoding="utf-8"?>
<!-- Generator: Adobe Illustrator 17.0.0, SVG Export Plug-In . SVG Version: 6.00 Build 0)  -->
<!DOCTYPE svg PUBLIC "-//W3C//DTD SVG 1.1//EN" "http://www.w3.org/Graphics/SVG/1.1/DTD/svg11.dtd">
<svg version="1.1" id="Layer_1" xmlns="http://www.w3.org/2000/svg" xmlns:xlink="http://www.w3.org/1999/xlink" x="0px" y="0px"
	 width="366.416px" height="133.345px" viewBox="0 0 366.416 133.345" enable-background="new 0 0 366.416 133.345"
	 xml:space="preserve">
<g>
	<path fill="#86754D" d="M287.106,84.228h0.722c1.07,0,1.96,0.565,1.96,1.727c0,1.19-0.871,1.765-1.973,1.765h-0.709V84.228z
		 M287.541,87.321h0.153c0.889,0,1.658-0.333,1.658-1.348c0-1.019-0.769-1.348-1.658-1.348h-0.153V87.321z M290.769,86.844
		l-0.398,0.876h-0.468l1.668-3.641l1.668,3.641h-0.468l-0.398-0.876H290.769z M291.57,85.033l-0.621,1.413h1.241L291.57,85.033z
		 M293.913,87.321h1.061v0.399h-1.496v-3.492h0.436V87.321z M296.885,84.626l0.241-0.398h0.783v3.492h-0.417v-3.094H296.885z
		 M299.664,87.576l0.931-1.255l-0.009-0.009c-0.102,0.051-0.217,0.065-0.338,0.065c-0.579,0-1.014-0.518-1.014-1.074
		c0-0.639,0.519-1.149,1.153-1.149c0.602,0,1.163,0.5,1.163,1.116c0,0.347-0.176,0.648-0.38,0.922l-1.19,1.603L299.664,87.576z
		 M301.132,85.275c0-0.371-0.334-0.732-0.713-0.732c-0.417,0-0.769,0.333-0.769,0.732c0,0.417,0.38,0.732,0.741,0.732
		C300.836,86.006,301.132,85.654,301.132,85.275z M302.466,85.909c-0.287-0.162-0.458-0.44-0.458-0.783c0-0.57,0.445-0.973,1-0.973
		c0.556,0,1.001,0.403,1.001,0.973c0,0.343-0.171,0.62-0.458,0.783c0.361,0.125,0.551,0.463,0.551,0.839
		c0,0.648-0.5,1.047-1.093,1.047c-0.593,0-1.093-0.398-1.093-1.047C301.915,86.372,302.105,86.034,302.466,85.909z M302.332,86.747
		c0,0.352,0.333,0.658,0.676,0.658c0.343,0,0.677-0.305,0.677-0.658c0-0.371-0.324-0.658-0.677-0.658
		C302.656,86.089,302.332,86.376,302.332,86.747z M302.415,85.126c0,0.278,0.301,0.593,0.593,0.593c0.292,0,0.593-0.315,0.593-0.593
		c0-0.334-0.278-0.602-0.593-0.602C302.693,84.524,302.415,84.792,302.415,85.126z M306.81,87.321v0.399h-2.256l1.529-1.876
		c0.144-0.176,0.31-0.394,0.31-0.626c0-0.366-0.324-0.667-0.686-0.667c-0.356,0-0.648,0.287-0.672,0.639H304.6
		c0.07-0.621,0.472-1.037,1.107-1.037c0.593,0,1.102,0.44,1.102,1.047c0,0.259-0.097,0.519-0.259,0.718l-1.149,1.403H306.81z
		 M310.947,85.31c-0.346,0-0.627,0.281-0.627,0.627c0,0.346,0.281,0.627,0.627,0.627c0.346,0,0.627-0.281,0.627-0.627
		C311.574,85.591,311.293,85.31,310.947,85.31z M282.969,85.31c-0.346,0-0.627,0.281-0.627,0.627c0,0.346,0.281,0.627,0.627,0.627
		c0.346,0,0.626-0.281,0.626-0.627C283.596,85.591,283.315,85.31,282.969,85.31z M316.045,63.233c-1.96,0-3.513-1.984-4.156-5.308
		c-0.436-2.23-0.436-4.787,0-7.018c0.646-3.373,2.161-5.307,4.156-5.307c1.994,0,3.509,1.935,4.156,5.309
		c0.435,2.229,0.435,4.787,0,7.016C319.548,61.298,318.034,63.233,316.045,63.233z M316.045,46.428
		c-1.549,0-2.766,1.686-3.338,4.626c-0.422,2.137-0.422,4.587,0,6.722c0.57,2.926,1.787,4.604,3.338,4.604
		c1.552,0,2.768-1.678,3.337-4.603c0.423-2.136,0.423-4.586,0-6.723C318.809,48.115,317.593,46.428,316.045,46.428z M270.545,63.233
		c-0.242,0-0.41-0.204-0.41-0.374V46.55h-3.01c-0.245,0-0.409-0.213-0.409-0.41c0-0.197,0.158-0.409,0.409-0.409h6.84
		c0.243,0,0.409,0.212,0.409,0.409c0,0.197-0.156,0.41-0.409,0.41h-3.01v16.309C270.954,63.035,270.787,63.233,270.545,63.233z
		 M299.86,63.233c-0.242,0-0.41-0.204-0.41-0.374V46.55h-3.01c-0.245,0-0.409-0.213-0.409-0.41c0-0.197,0.158-0.409,0.409-0.409
		h6.84c0.243,0,0.409,0.212,0.409,0.409c0,0.197-0.156,0.41-0.409,0.41h-3.01v16.309C300.269,63.035,300.102,63.233,299.86,63.233z
		 M308.146,63.233c-0.242,0-0.41-0.204-0.41-0.374V46.55h-3.01c-0.245,0-0.409-0.213-0.409-0.41c0-0.197,0.158-0.409,0.409-0.409
		h6.84c0.243,0,0.409,0.212,0.409,0.409c0,0.197-0.156,0.41-0.409,0.41h-3.011v16.309C308.555,63.035,308.388,63.233,308.146,63.233
		z M336.646,63.233c-0.201,0-0.371-0.178-0.371-0.371l-0.001-13.25c0-0.183,0.155-0.371,0.371-0.371
		c0.216,0,0.371,0.177,0.371,0.371v13.25C337.017,63.061,336.847,63.233,336.646,63.233z M252.47,63.233h-4.49V49.584
		c0-0.174,0.154-0.371,0.371-0.371c0.217,0,0.371,0.179,0.371,0.371v12.907h3.747c0.242,0,0.371,0.212,0.371,0.371
		C252.841,63.021,252.722,63.233,252.47,63.233z M255.446,58.46h3.882l-1.941-7.543L255.446,58.46z M261.218,62.775
		c0.048,0.199-0.074,0.4-0.273,0.448c-0.199,0.049-0.4-0.074-0.448-0.273l-0.007-0.027l-0.958-3.721h-4.27l-0.993,3.747
		c-0.049,0.199-0.249,0.322-0.448,0.273c-0.199-0.048-0.322-0.249-0.273-0.448l3.462-13.284c0.05-0.158,0.207-0.277,0.39-0.277
		c0.183,0,0.349,0.135,0.386,0.277l3.43,13.272L261.218,62.775z M340.251,58.469h3.874l-1.936-7.527L340.251,58.469z
		 M346.011,62.775c0.048,0.199-0.074,0.399-0.272,0.447c-0.199,0.048-0.399-0.074-0.448-0.273l-0.007-0.027l-0.956-3.713h-4.261
		l-0.991,3.74c-0.048,0.199-0.249,0.321-0.448,0.273c-0.199-0.048-0.321-0.248-0.273-0.447l3.455-13.257
		c0.05-0.158,0.207-0.277,0.389-0.277c0.182,0,0.349,0.134,0.385,0.277l3.423,13.245L346.011,62.775z M295.105,57.279l-2.601-9.929
		l-2.601,9.929H295.105z M292.504,58.098h-2.805l-1.257,4.789c-0.067,0.277-0.319,0.392-0.542,0.326
		c-0.223-0.066-0.335-0.301-0.279-0.502l4.434-16.802c0.075-0.288,0.333-0.353,0.449-0.353c0.116,0,0.374,0.064,0.449,0.353
		l4.434,16.802c0.055,0.201-0.057,0.436-0.279,0.502c-0.223,0.066-0.475-0.048-0.543-0.326l-1.257-4.789H292.504z M265.454,73.72
		h0.989c0.787,0,1.427,0.104,2.047,0.634c0.599,0.515,0.87,1.218,0.87,1.998c0,0.766-0.278,1.441-0.856,1.956
		c-0.627,0.557-1.253,0.662-2.075,0.662h-0.975V73.72z M266.464,78.426c0.641,0,1.177-0.09,1.657-0.543
		c0.431-0.404,0.654-0.954,0.654-1.539c0-0.599-0.23-1.177-0.682-1.574c-0.48-0.425-1.01-0.508-1.629-0.508h-0.425v4.164H266.464z
		 M272.146,78.96h-0.585v-5.25h0.585V78.96z M279.422,73.42l1.908,4.408l1.915-4.408l1.065,5.549h-0.599l-0.675-3.551h-0.014
		l-1.692,3.767l-1.685-3.767h-0.014l-0.675,3.551h-0.599L279.422,73.42z M287.536,77.479l-0.634,1.49h-0.64l2.423-5.501l2.361,5.501
		h-0.647l-0.62-1.49H287.536z M288.671,74.833l-0.898,2.103h1.776L288.671,74.833z M294.158,73.42l1.908,4.408l1.915-4.408
		l1.065,5.549h-0.599l-0.675-3.551h-0.014l-1.692,3.767l-1.685-3.767h-0.014l-0.675,3.551h-0.599L294.158,73.42z M301.064,73.72
		h0.863c0.954,0,1.755,0.348,1.755,1.42c0,0.425-0.16,0.787-0.515,1.024c0.627,0.153,0.996,0.717,0.996,1.344
		c0,1.044-0.842,1.462-1.88,1.462h-1.219V73.72z M301.649,76.031h0.223c0.662,0,1.226-0.076,1.226-0.891
		c0-0.794-0.501-0.877-1.218-0.877h-0.23V76.031z M301.649,78.426h0.585c0.655,0,1.344-0.16,1.344-0.961
		c0-0.814-0.78-0.933-1.421-0.933h-0.508V78.426z M307.399,78.97h-0.585v-5.25h0.759c0.995,0,1.922,0.264,1.922,1.448
		c0,0.808-0.508,1.379-1.316,1.448l1.671,2.354h-0.717l-1.587-2.305h-0.146V78.97z M307.399,76.149h0.181
		c0.661,0,1.33-0.125,1.33-0.94c0-0.864-0.634-0.947-1.337-0.947h-0.174V76.149z M312.904,78.97h-0.585v-5.25h0.585V78.97z
		 M315.825,73.497l4.094,4.289V73.72h0.585v5.486l-4.094-4.282v4.046h-0.585V73.497z M328.461,76.352
		c0,1.511-1.239,2.708-2.737,2.708c-1.497,0-2.736-1.197-2.736-2.708c0-1.504,1.24-2.722,2.736-2.722
		C327.222,73.629,328.461,74.848,328.461,76.352z M323.574,76.344c0,1.184,0.961,2.172,2.151,2.172c1.191,0,2.152-0.989,2.152-2.172
		c0-1.19-0.947-2.172-2.152-2.172C324.521,74.172,323.574,75.154,323.574,76.344z M359.822,67.739l-6.147,0.005
		c0.189-0.922,0.839-1.675,1.699-2.007l0,0.001c0.143-0.056,0.244-0.195,0.244-0.358c0-0.212-0.172-0.384-0.384-0.384
		c-0.05,0-0.097,0.009-0.141,0.027v0c-1.144,0.445-1.995,1.474-2.189,2.721h-1.04H241.012c-0.194-1.247-1.046-2.276-2.189-2.721v0
		c-0.044-0.017-0.091-0.027-0.141-0.027c-0.212,0-0.384,0.172-0.384,0.384c0,0.163,0.101,0.302,0.244,0.358v-0.001
		c0.86,0.332,1.51,1.086,1.699,2.007l-6.146-0.005c-0.028,0.178-0.042,0.361-0.042,0.547c0,1.934,1.567,3.501,3.501,3.501
		c1.869,0,3.396-1.465,3.496-3.309h110.758h1.061c0.1,1.844,1.627,3.309,3.496,3.309c1.934,0,3.501-1.567,3.501-3.501
		C359.865,68.1,359.85,67.917,359.822,67.739z M237.553,71.041c-1.455,0-2.645-1.132-2.738-2.563l5.476,0
		C240.197,69.909,239.007,71.041,237.553,71.041z M356.364,71.041c-1.454,0-2.645-1.132-2.738-2.563l5.476,0
		C359.008,69.909,357.818,71.041,356.364,71.041z M327.804,58.141h0.124c1.553,0,3.059-0.629,4.132-1.725
		c1.115-1.115,1.728-2.6,1.728-4.183c0-2.445-1.41-4.456-3.773-5.38c-0.686-0.282-1.448-0.445-2.211-0.475V58.141z M322.878,54.977
		c-0.82-0.886-1.325-2.101-1.369-3.328c-0.09-2.646,1.076-4.627,3.284-5.577c0.836-0.369,1.758-0.545,2.738-0.519
		c0.979,0,1.946,0.187,2.794,0.542c2.681,1.032,4.282,3.327,4.282,6.138c0,1.811-0.691,3.5-1.947,4.755
		c-0.792,0.814-1.849,1.416-2.963,1.734l4.274,3.753c0.215,0.185,0.224,0.436,0.073,0.606c-0.151,0.17-0.414,0.215-0.635,0.002
		l-4.736-4.15c-0.264,0.033-0.47,0.027-0.745,0.027h-0.124v5.607c0,0.225-0.194,0.409-0.409,0.409c-0.215,0-0.411-0.184-0.411-0.409
		V46.386c-0.651,0.047-1.281,0.196-1.875,0.441c-1.861,0.805-2.84,2.51-2.758,4.803c0.041,1.076,0.435,2.044,1.117,2.763
		c0.093,0.076,0.151,0.193,0.151,0.323c0,0.23-0.187,0.417-0.417,0.417C323.071,55.134,322.954,55.073,322.878,54.977
		L322.878,54.977z M280.095,58.141h0.124c1.553,0,3.059-0.629,4.132-1.725c1.115-1.115,1.728-2.6,1.728-4.183
		c0-2.445-1.41-4.456-3.772-5.38c-0.686-0.282-1.448-0.445-2.211-0.475V58.141z M275.169,54.977
		c-0.82-0.886-1.325-2.101-1.369-3.328c-0.09-2.646,1.076-4.627,3.284-5.577c0.836-0.369,1.758-0.545,2.738-0.519
		c0.979,0,1.946,0.187,2.794,0.542c2.68,1.032,4.282,3.327,4.282,6.138c0,1.811-0.691,3.5-1.948,4.755
		c-0.792,0.814-1.849,1.416-2.963,1.734l4.274,3.753c0.215,0.185,0.224,0.436,0.073,0.606c-0.151,0.17-0.414,0.215-0.635,0.002
		l-4.736-4.15c-0.264,0.033-0.47,0.027-0.745,0.027h-0.124v5.607c0,0.225-0.194,0.409-0.409,0.409c-0.215,0-0.411-0.184-0.411-0.409
		V46.386c-0.651,0.047-1.281,0.196-1.874,0.441c-1.861,0.805-2.84,2.51-2.758,4.803c0.041,1.076,0.435,2.044,1.117,2.763
		c0.093,0.076,0.151,0.193,0.151,0.323c0,0.23-0.187,0.417-0.417,0.417C275.363,55.134,275.246,55.073,275.169,54.977
		L275.169,54.977z"/>
	<g>
		<g>
			<g>
				<path fill="#E13D1E" d="M18.191,12.713c0.385,0.055,0.929,0.343,1.227,0.564c0.034,0.025,0.06,0.05,0.091,0.075l0.036,0.02
					l0.004,0.013c0.197,0.167,0.338,0.334,0.436,0.481c0.089-0.131,0.264-0.49-0.079-0.955c-0.017-0.023-0.012-0.057,0.011-0.074
					c0.024-0.018,0.056-0.013,0.074,0.011c0.407,0.554,0.143,0.994,0.055,1.113c0.114,0.193,0.15,0.328,0.15,0.328
					c0.592-0.253,0.317-0.7,0.317-0.7c0.544-0.234,0.406-0.652,0.281-0.92c-0.093-0.199,0.062-0.428,0.062-0.428
					c-0.586-0.18-0.898,0.431-0.898,0.431c-0.242-0.405-0.619-0.346-0.619-0.346c0.082,0.226-0.012,0.37-0.012,0.37
					C18.644,12.323,18.191,12.713,18.191,12.713z"/>
				<g>
					<path fill="#E13D1E" d="M31.667,30.002c-0.021,0.262,0.385,0.582,0.385,0.582c0.185-0.307,0.366-0.543,0.541-0.734
						c-0.037-0.048-0.203-0.294-0.057-0.65c0.008-0.02,0.033-0.028,0.033-0.028s0.051,0.038,0.042,0.059
						c-0.119,0.29-0.003,0.498,0.037,0.558c0.206-0.215,0.401-0.361,0.577-0.459l0.002-0.003l0.002,0.001
						c0.13-0.072,0.25-0.121,0.357-0.152c0.376-0.111,0.789,0.003,0.789,0.003c-0.641-0.701-1.309-0.211-1.309-0.211
						c-0.572-0.343-0.878,0.135-0.878,0.135c-0.517-0.555-0.827-0.027-0.827-0.027C32.024,29.399,31.687,29.74,31.667,30.002z"/>
					<path fill="#E13D1E" d="M35.135,29.793c-0.146-0.24-0.502-0.538-1.056-0.576c-0.278-0.02-0.531,0.045-0.755,0.156
						c0.093,0.095,0.354,0.323,0.657,0.268c0.022-0.004,0.043,0.011,0.047,0.032c0.004,0.022-0.011,0.043-0.033,0.047
						c-0.083,0.015-0.162,0.012-0.237-0.003c-0.259-0.052-0.447-0.238-0.508-0.303c-0.394,0.217-0.699,0.573-0.907,0.871
						c0.063,0.046,0.3,0.204,0.513,0.16c0.022-0.005,0.043,0.009,0.048,0.031c0.005,0.022-0.01,0.043-0.031,0.048
						c-0.07,0.015-0.141,0.011-0.209-0.002c-0.175-0.035-0.318-0.134-0.367-0.17c-0.1,0.149-0.175,0.278-0.222,0.359
						c-0.204,0.351-0.417,0.525-0.417,0.525c0.089,0.193,0.257,0.201,0.257,0.201c0.249-0.199,0.425-0.526,0.425-0.526
						c0.232,0.24,0.495,0.105,0.721-0.08c0.226-0.185,0.429,0.003,0.429,0.003s0.083-0.312-0.151-0.405
						c-0.403-0.161-0.237-0.316-0.237-0.316s0.124-0.284,0.488,0.035c0.39,0.342,0.651,0.047,0.651,0.047
						c-0.136-0.204-0.01-0.252-0.01-0.252c0.273,0.203,0.402-0.223,0.668-0.229C34.899,29.713,35.051,29.724,35.135,29.793z"/>
				</g>
				<path fill="#E13D1E" d="M14.915,20.885c0,0,0.327-0.127,0.633-0.086c0.526,0.07,1.426,0.053,1.814-0.412
					c0.572-0.687,0.526-0.955,0.604-1.288c0,0,0.36,0.18,0.849,0.304c0.576,0.146,1.057,0.039,1.413-0.654
					c0.265-0.515-0.14-0.927-0.14-0.927s0.656-0.446,0.513-1.002c-0.143-0.557-0.822-0.866-1.364-0.642c0,0,0.898-1.066,0.21-1.864
					c-0.689-0.799-1.053-0.669-1.053-0.669s-0.686-0.258-0.645-0.776c0,0-0.36,0.485-0.398,1.07c0,0-0.005-0.154-0.347-0.448
					c-0.343-0.293-0.565-0.605-0.511-0.782c0,0-0.419,0.492-0.4,0.782c0.019,0.289-0.124,0.606-0.124,0.606s-0.301-0.21-0.42-0.233
					c0,0,0.017,0.585-0.081,0.777c-0.098,0.192-0.166,0.361-0.16,0.495c0,0-0.397-0.352-1.272-0.167c0,0,0.03,0.741,0.454,1.33
					c0,0-0.24,0.287-0.55,0.202c-0.046,0.163,0.097,0.555,0.281,0.832c0,0-0.435-0.167-0.965,0.287c0,0-0.164,0.14-0.246,0.227
					c0,0,1.241,1.211,2.274,1.517C15.283,19.363,14.475,20.43,14.915,20.885z M15.707,19.596c0,0-0.066,0.09-0.155,0.2
					c-0.091,0.113-0.203,0.237-0.376,0.372c0,0-0.026-0.126,0.044-0.281C15.283,19.736,15.467,19.564,15.707,19.596z M15.526,20.129
					c0.044-0.06,0.098-0.121,0.166-0.174c0.068-0.054,0.168-0.108,0.275-0.121c0,0-0.033,0.109-0.109,0.228
					c-0.085,0.133-0.243,0.265-0.458,0.304C15.401,20.367,15.439,20.249,15.526,20.129z M13.993,18.293c0,0,0.126,0.015,0.271,0.067
					c0.147,0.054,0.309,0.141,0.444,0.341c0,0-0.117,0.014-0.272-0.034C14.283,18.62,14.089,18.504,13.993,18.293z M13.916,17.96
					c0,0,0.335-0.142,0.4,0.205C14.316,18.165,14.021,18.244,13.916,17.96z M14.221,17.785c0,0-0.074,0.011-0.148,0.012
					c-0.079,0.001-0.147-0.014-0.269-0.097c0,0,0.043-0.083,0.146-0.112C14.046,17.555,14.208,17.605,14.221,17.785z M16.131,19.036
					c0,0-0.244-0.04-0.575-0.197c-0.329-0.154-0.741-0.44-1.012-0.845c0,0,0.224,0.126,0.529,0.312
					C15.378,18.494,15.764,18.732,16.131,19.036z M14.88,17.831c0,0-0.104-0.043-0.199-0.126c-0.103-0.087-0.169-0.188-0.231-0.388
					c0,0,0.106-0.003,0.222,0.082C14.788,17.48,14.888,17.637,14.88,17.831z M14.486,16.861c0.143,0.05,0.32,0.184,0.367,0.4
					c0,0-0.116-0.033-0.242-0.092c-0.129-0.062-0.259-0.148-0.381-0.341C14.23,16.826,14.34,16.808,14.486,16.861z M14.967,16.937
					c0,0-0.422,0.016-0.655-0.333C14.311,16.605,14.779,16.53,14.967,16.937z M15.87,17.803c0.074,0.05,0.167,0.109,0.247,0.2
					c0.081,0.092,0.142,0.213,0.157,0.35c0,0-0.113-0.072-0.258-0.177c-0.071-0.052-0.162-0.114-0.246-0.203
					c-0.084-0.091-0.152-0.21-0.18-0.343C15.591,17.631,15.719,17.703,15.87,17.803z M15.63,17.434c0,0,0.404-0.098,0.521,0.282
					C16.151,17.717,15.791,17.756,15.63,17.434z M14.776,16.307c0,0,0.072-0.05,0.162-0.057c0.09-0.007,0.2,0.028,0.25,0.191
					c0,0-0.07,0.031-0.155,0.031C14.948,16.471,14.851,16.439,14.776,16.307z M14.706,16.024c0,0-0.106-0.023-0.21-0.101
					c-0.103-0.077-0.206-0.21-0.189-0.416c0,0,0.092,0.035,0.187,0.116C14.589,15.704,14.687,15.831,14.706,16.024z M15.71,16.811
					c0.046,0.003,0.092,0.016,0.144,0.025c0.051,0.011,0.115,0.037,0.144,0.086c0,0-0.026,0.002-0.063,0.017
					c-0.036,0.013-0.088,0.047-0.165,0.062c-0.148,0.036-0.358,0.049-0.554-0.042c0,0,0.105-0.076,0.248-0.121
					C15.537,16.818,15.62,16.804,15.71,16.811z M15.784,16.51c-0.014,0.024-0.036-0.003-0.174,0.06c0,0-0.03-0.044-0.019-0.119
					c0.001-0.068,0.115-0.199,0.265-0.122c0.085,0.045,0.095,0.176,0.013,0.207C15.868,16.537,15.809,16.478,15.784,16.51z
					 M15.334,16.012c0,0-0.053-0.053,0.016-0.123c0.074-0.075,0.225-0.024,0.233,0.069l0.016,0.09
					c-0.028,0.012-0.065,0.02-0.115,0.022l-0.006-0.018l0.001,0.01c-0.031,0.003-0.064,0.001-0.064,0.001
					S15.408,16.007,15.334,16.012z M14.889,15.451c0.083,0.083,0.109,0.204,0.094,0.307c0,0-0.099-0.086-0.2-0.144
					c-0.052-0.029-0.113-0.056-0.185-0.103c-0.07-0.047-0.155-0.12-0.193-0.229c0,0,0.025,0.003,0.069,0.008
					c0.043,0.006,0.102,0.011,0.174,0.03C14.72,15.338,14.81,15.37,14.889,15.451z M15.206,15.377c0,0-0.111,0.005-0.233-0.029
					c-0.124-0.035-0.258-0.106-0.351-0.295c0,0,0.098-0.017,0.226,0.018C14.974,15.105,15.13,15.195,15.206,15.377z M15.886,15.828
					c0,0-0.373-0.252-0.383-0.698C15.503,15.13,15.947,15.359,15.886,15.828z M15.704,14.579c0,0,0.075,0.083,0.137,0.221
					c0.031,0.07,0.059,0.151,0.075,0.23c0.012,0.085,0.033,0.159,0.07,0.262c0,0-0.03-0.002-0.078-0.021
					c-0.046-0.019-0.113-0.062-0.159-0.136C15.66,14.985,15.619,14.799,15.704,14.579z M15.976,14.386
					c0.101,0.098,0.195,0.283,0.141,0.483c0,0-0.089-0.072-0.172-0.17c-0.085-0.102-0.158-0.225-0.172-0.442
					C15.772,14.256,15.874,14.284,15.976,14.386z M17.345,16.527c0.118,0.021,0.23,0.06,0.346,0.122
					c0.115,0.058,0.244,0.114,0.344,0.224c0.206,0.207,0.318,0.483,0.399,0.754c0,0-0.046-0.059-0.127-0.16
					c-0.08-0.1-0.189-0.247-0.336-0.386c-0.141-0.145-0.356-0.231-0.58-0.339c-0.056-0.022-0.113-0.041-0.169-0.052
					c-0.028-0.005-0.057-0.009-0.086-0.009l-0.107,0.001c-0.152-0.017-0.278-0.086-0.401-0.15c0,0,0.072,0.006,0.197,0.018
					c0.064,0,0.125,0.015,0.207-0.004C17.103,16.525,17.228,16.503,17.345,16.527z M16.662,15.816
					c0.024,0.042,0.049,0.096,0.056,0.166c0.007,0.068-0.008,0.159-0.07,0.221c0,0-0.013-0.019-0.035-0.051
					c-0.021-0.03-0.049-0.064-0.076-0.104c-0.026-0.041-0.051-0.09-0.056-0.157c-0.005-0.065,0.012-0.152,0.081-0.217
					C16.562,15.674,16.612,15.734,16.662,15.816z M17.142,16.857c0,0,0.1-0.013,0.23,0.023c0.129,0.035,0.287,0.124,0.374,0.305
					c0,0-0.112,0.008-0.239-0.026C17.377,17.124,17.236,17.05,17.142,16.857z M16.838,15.873c-0.036-0.044-0.051-0.073-0.061-0.104
					c-0.011-0.031-0.077-0.131-0.021-0.21c0,0,0.015,0.011,0.04,0.019c0.024,0.009,0.057,0.012,0.105,0.039
					c0.054,0.025,0.101,0.113,0.11,0.171c0.01,0.059,0.007,0.126-0.021,0.202C16.99,15.989,16.903,15.951,16.838,15.873z
					 M17.211,15.523c0.084,0.03,0.178,0.072,0.271,0.131c0.084,0.055,0.204,0.142,0.232,0.281c0,0-0.031-0.021-0.082-0.038
					c-0.051-0.018-0.119-0.032-0.207-0.057c-0.172-0.051-0.37-0.155-0.507-0.384C16.917,15.456,17.043,15.464,17.211,15.523z
					 M16.389,14.392c0.058,0.06,0.107,0.169,0.068,0.263c0,0-0.082-0.069-0.176-0.103c-0.047-0.022-0.097-0.045-0.154-0.094
					c-0.053-0.048-0.115-0.128-0.114-0.231c0,0,0.021,0.005,0.057,0.014c0.034,0.009,0.08,0.018,0.136,0.037
					C16.26,14.298,16.329,14.328,16.389,14.392z M17.097,15.064c0.153,0.034,0.37,0.091,0.616,0.207
					c0.243,0.108,0.536,0.316,0.72,0.615c0.195,0.294,0.285,0.675,0.245,1.029c0,0-0.033-0.089-0.099-0.233
					c-0.065-0.143-0.166-0.337-0.316-0.532c-0.075-0.098-0.162-0.197-0.261-0.294c-0.094-0.094-0.205-0.18-0.331-0.27
					c-0.25-0.177-0.534-0.358-0.818-0.563C16.854,15.023,16.944,15.03,17.097,15.064z M17.161,14.459
					c0.28,0.11,0.643,0.339,0.846,0.699c0,0-0.189-0.106-0.446-0.245c-0.258-0.144-0.58-0.325-0.893-0.578
					C16.668,14.334,16.877,14.345,17.161,14.459z M16.349,13.388c0,0,0.034,0.068,0.051,0.147c0.018,0.082,0.017,0.168-0.058,0.298
					c0,0-0.083-0.041-0.126-0.134C16.173,13.609,16.185,13.459,16.349,13.388z M16.584,13.458c0,0,0.051,0.072,0.09,0.178
					c0.037,0.101,0.066,0.274-0.053,0.423c0,0-0.059-0.085-0.103-0.187C16.476,13.772,16.446,13.61,16.584,13.458z M19.103,14.686
					c-0.035-0.034-0.045-0.037-0.093-0.062c-0.042-0.022-0.088-0.046-0.134-0.074c-0.092-0.056-0.186-0.127-0.266-0.223
					c-0.086-0.107-0.112-0.199-0.182-0.285c-0.065-0.088-0.142-0.175-0.23-0.258c0,0,0.062,0.014,0.16,0.062
					c0.095,0.044,0.242,0.142,0.348,0.292c0.104,0.122,0.259,0.215,0.459,0.347c0.116,0.104,0.162,0.201,0.213,0.325
					c0.043,0.118,0.058,0.264-0.001,0.379c0,0,0.008-0.071-0.032-0.168C19.31,14.922,19.224,14.8,19.103,14.686z M18.158,14.485
					c0,0-0.081-0.113-0.149-0.271c-0.076-0.163-0.111-0.348-0.144-0.601c0,0,0.032,0.013,0.076,0.049
					c0.044,0.036,0.098,0.095,0.145,0.176C18.181,13.998,18.235,14.245,18.158,14.485z M17.693,14.302
					c-0.071-0.145-0.115-0.358-0.003-0.573c0,0,0.064,0.095,0.117,0.24c0.054,0.146,0.096,0.339,0.055,0.563
					C17.863,14.532,17.764,14.449,17.693,14.302z M17.109,13.839c0.014,0.059,0.024,0.167-0.045,0.234c0,0-0.055-0.076-0.124-0.141
					c-0.034-0.039-0.066-0.094-0.076-0.155c-0.017-0.059,0.019-0.106-0.022-0.199c0,0,0.023-0.009,0.064,0.002
					c0.041,0.011,0.092,0.049,0.127,0.097C17.068,13.727,17.093,13.775,17.109,13.839z M19.556,17.696c0,0,0.213-0.077,0.357-0.296
					c0.073-0.106,0.134-0.242,0.157-0.388c0.02-0.142,0.002-0.313-0.146-0.457c0,0,0.054,0.002,0.135,0.053
					c0.079,0.049,0.181,0.163,0.205,0.334c0.025,0.169-0.028,0.368-0.158,0.525C19.979,17.623,19.759,17.733,19.556,17.696z
					 M18.86,19.113c0,0,0.061-0.007,0.166-0.017c0.101-0.013,0.25-0.031,0.383-0.101c0.119-0.065,0.259-0.21,0.324-0.366
					c0.035-0.08,0.049-0.178,0.059-0.283c0.007-0.101-0.002-0.209-0.05-0.318c0,0,0.054,0.033,0.112,0.127
					c0.059,0.097,0.104,0.248,0.088,0.443c-0.021,0.203-0.16,0.411-0.374,0.533C19.33,19.252,19.072,19.199,18.86,19.113z
					 M16.959,16.971c0,0,0.11,0.002,0.244,0.073c0.132,0.069,0.287,0.217,0.317,0.433c0,0-0.113-0.04-0.232-0.113
					C17.167,17.287,17.044,17.182,16.959,16.971z M16.287,16.419c0,0-0.057-0.182-0.074-0.444c-0.008-0.13-0.007-0.281,0.017-0.439
					c0.024-0.157,0.076-0.332,0.184-0.473c0,0,0.006,0.172,0.014,0.427C16.437,15.746,16.413,16.088,16.287,16.419z M15.997,16.145
					c0,0,0.006-0.009-0.025-0.002l-0.019,0.003c-0.023,0.005-0.033,0.009-0.047,0.01c-0.027,0.003-0.046,0.007-0.046,0.007
					c-0.033-0.008-0.066-0.029-0.13-0.007c0,0-0.016-0.015-0.02-0.049c-0.005-0.033,0.008-0.088,0.057-0.126
					c0.049-0.04,0.131-0.049,0.19-0.014c0.029,0.016,0.054,0.043,0.067,0.076c0,0,0.017,0.043,0.014,0.065
					C16.037,16.133,16.016,16.157,15.997,16.145z M16.995,17.285c0.111,0.121,0.159,0.263,0.272,0.427c0,0-0.131,0.03-0.266-0.084
					c-0.065-0.053-0.121-0.13-0.154-0.211c-0.036-0.083-0.048-0.169-0.071-0.285c0,0,0.028,0.006,0.07,0.03
					C16.889,17.184,16.944,17.227,16.995,17.285z M16.675,17.798c-0.156-0.221-0.25-0.505-0.236-0.777c0,0,0.025,0.066,0.077,0.173
					c0.052,0.107,0.135,0.255,0.257,0.409c0.24,0.314,0.656,0.631,1.186,0.79c0,0-0.072,0.012-0.2,0.006
					c-0.127-0.006-0.312-0.034-0.513-0.127C17.045,18.182,16.83,18.023,16.675,17.798z M15.999,17.254c0,0-0.062,0.027-0.122,0.038
					c-0.064,0.012-0.12,0.004-0.22-0.084c0,0,0.033-0.079,0.114-0.113C15.846,17.06,15.979,17.089,15.999,17.254z M16.431,18.848
					c-0.139-0.04-0.276-0.086-0.432-0.156c-0.151-0.076-0.292-0.173-0.428-0.293c-0.128-0.118-0.273-0.274-0.312-0.476
					c-0.045-0.186-0.034-0.386,0.024-0.562c0,0-0.006,0.1,0.021,0.26c0.014,0.08,0.041,0.174,0.085,0.274
					c0.04,0.101,0.112,0.183,0.212,0.272c0.099,0.086,0.217,0.17,0.345,0.249c0.064,0.039,0.132,0.078,0.197,0.107
					c0.074,0.032,0.15,0.064,0.226,0.097c0.306,0.125,0.632,0.247,0.996,0.205c0,0-0.083,0.048-0.25,0.077
					C16.952,18.934,16.704,18.927,16.431,18.848z M15.377,20.674c0,0,0.041-0.065,0.151-0.144c0.109-0.08,0.293-0.161,0.52-0.196
					c0.226-0.038,0.482-0.034,0.734-0.06c0.063-0.007,0.129-0.014,0.18-0.029c0.052-0.013,0.094-0.043,0.145-0.089
					c0.097-0.09,0.193-0.194,0.278-0.312c0,0-0.012,0.076-0.065,0.197c-0.027,0.06-0.062,0.132-0.118,0.211
					c-0.046,0.079-0.165,0.171-0.282,0.195c-0.225,0.066-0.491,0.069-0.755,0.071C15.904,20.523,15.628,20.534,15.377,20.674z"/>
				<g>
					<path fill="#E13D1E" d="M29.233,31.218c0.278-0.247,0.498-0.325,0.776-0.332c0.188-0.005,0.405,0.047,0.603,0.233
						c0.068,0.065,0.156,0.303,0.048,0.45c0,0,0.339,0.065,0.394-0.325c0.031-0.222-0.369-0.77-1.409-0.874
						c-0.163,0.35-0.668,0.614-0.691,0.626c-0.031,0.015-0.068,0.003-0.083-0.027c0,0-0.008-0.025-0.006-0.038
						c0,0,0.015-0.036,0.033-0.045c0,0,0.456-0.238,0.619-0.532c-0.809-0.048-1.695,0.192-2.363,1c0,0,0.832,0.119,1.14-0.27
						c0,0-0.056,0.263-0.15,0.412C28.146,31.496,28.674,31.716,29.233,31.218z"/>
					<path fill="#E13D1E" d="M29.652,30.223c0.299,0.026,0.546,0.09,0.738,0.163c-0.004-0.184-0.08-0.642-0.718-0.853
						c-0.029-0.01-0.046-0.039-0.041-0.068l0.002-0.01c0.011-0.032,0.046-0.05,0.078-0.039c0.759,0.25,0.805,0.847,0.803,1.019
						c0.238,0.106,0.363,0.21,0.363,0.21c0.391-0.638-0.171-0.878-0.171-0.878c0.358-0.589-0.053-0.892-0.354-1.062
						c-0.223-0.126-0.229-0.448-0.229-0.448c-0.677,0.224-0.561,1.014-0.561,1.014c-0.502-0.222-0.82,0.089-0.82,0.089
						c0.23,0.159,0.238,0.359,0.238,0.359c-0.9,0.106-1.066,0.781-1.066,0.781c0.402-0.208,1.112-0.3,1.543-0.291
						c0.048,0.001,0.091,0.007,0.137,0.01c0,0,0.031-0.011,0.048-0.006L29.652,30.223z"/>
				</g>
				<g>
					<path fill="#E13D1E" d="M12.702,20.745c0.043-0.269,0.133-0.415,0.288-0.548c0.105-0.09,0.252-0.161,0.451-0.147
						c0.069,0.005,0.229,0.1,0.236,0.234c0,0,0.223-0.12,0.074-0.367c-0.085-0.141-0.566-0.267-1.206,0.154
						c0.069,0.274-0.096,0.659-0.104,0.676c-0.01,0.023-0.037,0.033-0.06,0.023l-0.016-0.011c-0.011-0.02-0.013-0.035-0.013-0.035
						s0.155-0.36,0.112-0.603c-0.483,0.347-0.876,0.894-0.881,1.662c0,0,0.528-0.317,0.523-0.681c0,0,0.09,0.175,0.106,0.303
						C12.212,21.406,12.614,21.287,12.702,20.745z"/>
					<path fill="#E13D1E" d="M12.48,19.986c0.182-0.124,0.352-0.202,0.495-0.249c-0.087-0.103-0.343-0.328-0.803-0.153
						c-0.021,0.008-0.044-0.001-0.055-0.019l-0.003-0.007c-0.009-0.023,0.003-0.049,0.026-0.058c0.548-0.209,0.85,0.109,0.928,0.208
						c0.185-0.05,0.304-0.048,0.304-0.048c-0.073-0.544-0.503-0.42-0.503-0.42c-0.069-0.501-0.443-0.483-0.693-0.441
						c-0.185,0.031-0.338-0.149-0.338-0.149c-0.281,0.44,0.149,0.836,0.149,0.836c-0.388,0.106-0.425,0.43-0.425,0.43
						c0.205-0.016,0.301,0.094,0.301,0.094c-0.463,0.477-0.245,0.938-0.245,0.938c0.132-0.304,0.494-0.685,0.743-0.88
						c0.028-0.022,0.055-0.038,0.082-0.058l0.024-0.025L12.48,19.986z"/>
				</g>
				<g>
					<path fill="#E13D1E" d="M35.023,22.91c-0.129,0.07-0.251,0.148-0.359,0.218c-0.061,0.04-0.118,0.076-0.172,0.108
						c0.19,0.236,0.377,0.484,0.437,0.707c-0.008,0.106-0.018,0.212-0.031,0.316c-0.015,0.026-0.028,0.053-0.051,0.077l-0.365-0.345
						c-0.031,0.033-0.038,0.073-0.038,0.073c-0.012-0.105-0.299-0.459-0.406-0.592c-0.19-0.235-0.315-0.389-0.166-0.564
						c0.046-0.055,0.144-0.126,0.305-0.069c0.055-0.029,0.146-0.088,0.216-0.133c0.027-0.018,0.059-0.037,0.089-0.056l0.011,0.009
						C34.588,22.705,34.828,22.738,35.023,22.91z"/>
					<g>
						<path fill="#E13D1E" d="M32.368,26.962c0,0,0.166-0.181,0.287-0.451c0.061-0.186,0.108-0.386,0.105-0.563
							c-0.009-0.498-0.285-0.35-0.309-1.04c-0.01-0.268-0.292-0.553-0.66-0.653c-0.32-0.087,0.014-0.525-0.702-0.713
							c-0.318-0.084-0.206-0.962-0.206-0.962s-0.669,0.876-0.887,1.854c-0.244,1.095,0.839,1.83,0.839,1.83s0.455,0.065,0.74,0.426
							c0.19,0.242,0.487,0.358,0.664,0.409L32.368,26.962z M32.172,26.805c0,0-0.055-0.046-0.157-0.108l0.028,0.024
							c0,0-0.063-0.015-0.164-0.063c-0.07-0.031-0.159-0.094-0.251-0.168c-0.105-0.055-0.22-0.118-0.341-0.201
							c-0.127-0.088-0.253-0.198-0.379-0.316c-0.123-0.112-0.264-0.253-0.359-0.418c-0.199-0.327-0.31-0.712-0.368-1.09
							c0,0,0.037,0.093,0.1,0.256c0.066,0.16,0.162,0.39,0.312,0.641c0.076,0.124,0.164,0.254,0.279,0.367
							c0.042,0.04,0.09,0.084,0.134,0.126c-0.052-0.085-0.103-0.176-0.154-0.275c-0.079-0.167-0.108-0.384-0.05-0.568
							c0,0,0.015,0.2,0.144,0.45c0.072,0.118,0.157,0.255,0.235,0.407l-0.014-0.038c-0.073-0.217-0.121-0.47-0.08-0.706
							c0,0,0.037,0.244,0.179,0.577c0.068,0.169,0.151,0.355,0.282,0.529c0.059,0.073,0.121,0.144,0.185,0.214
							C31.888,26.55,32.042,26.661,32.172,26.805z M32.339,26.523c0,0-0.05-0.107-0.093-0.255c-0.042-0.151-0.079-0.34-0.046-0.558
							c0,0,0.069,0.087,0.122,0.239C32.376,26.098,32.408,26.315,32.339,26.523z"/>
						<path fill="#E13D1E" d="M34.175,22.839c-0.161-0.057-0.258,0.015-0.305,0.069c-0.149,0.175-0.023,0.33,0.166,0.564
							c0.108,0.133,0.395,0.487,0.408,0.606c0,0,0.005-0.053,0.037-0.087l0.365,0.345c0.023-0.024,0.036-0.051,0.051-0.077
							c-0.044,0.348-0.118,0.686-0.228,0.985l-0.008,0.017c0.017-0.153,0.016-0.299,0.005-0.427
							c-0.038-0.392-0.142-0.635-0.142-0.635c-0.04,0.504-0.037,0.986-0.102,1.354c-0.009,0.079-0.03,0.149-0.052,0.214
							l-0.007,0.011c-0.037,0.053-0.068,0.098-0.099,0.142c0.06-0.245,0.067-0.483,0.043-0.685c-0.026-0.223-0.087-0.401-0.138-0.52
							c-0.051-0.119-0.091-0.182-0.091-0.182c0.081,0.56,0.063,1.105-0.036,1.509c-0.014,0.056-0.035,0.107-0.059,0.154
							l-0.023,0.019c0.004-0.029,0.02-0.069,0.028-0.111c0.04-0.201,0.068-0.391,0.055-0.556c-0.017-0.333-0.114-0.535-0.114-0.535
							c-0.025,0.204-0.05,0.41-0.074,0.605c-0.022,0.19-0.052,0.373-0.06,0.522c-0.007,0.044-0.021,0.081-0.034,0.12
							c0.023-0.102,0.029-0.202,0.022-0.289c-0.01-0.146-0.045-0.26-0.072-0.338c-0.027-0.078-0.049-0.121-0.049-0.121
							c-0.057,0.372-0.066,0.694-0.163,0.933c-0.024,0.062-0.042,0.115-0.071,0.153l-0.029,0.035l-0.001,0.001
							c0.046-0.079,0.073-0.165,0.073-0.236c0-0.182-0.064-0.284-0.064-0.284c-0.116,0.223-0.146,0.377-0.211,0.503
							c-0.023,0.055-0.059,0.101-0.092,0.135l-0.023,0.007c-0.062,0.014-0.09,0.012-0.09,0.012c0.027,0.006,0.055,0.009,0.084,0.01
							c-0.025,0.024-0.046,0.04-0.046,0.04c0.075,0.02,0.16,0,0.231-0.041c-0.015,0.012-0.026,0.02-0.026,0.02
							c0.101-0.009,0.189-0.049,0.272-0.104l0.007-0.007c0.053-0.027,0.1-0.054,0.148-0.081l0.035-0.021
							c0.077-0.038,0.152-0.084,0.223-0.136c0.109-0.072,0.214-0.148,0.321-0.232c0.099-0.069,0.17-0.162,0.237-0.257
							c0.068-0.092,0.12-0.179,0.178-0.267c0.053-0.094,0.109-0.185,0.152-0.278c0.03-0.099,0.064-0.195,0.085-0.287
							c0.079-0.364,0.085-0.679,0.073-0.896c-0.012-0.218-0.036-0.341-0.036-0.341l-0.003,0.031
							c-0.061-0.208-0.248-0.456-0.438-0.692c0.054-0.032,0.111-0.069,0.172-0.108c0.108-0.07,0.23-0.148,0.359-0.218
							c0.154,0.135,0.28,0.358,0.284,0.741c0.008,0.672,0.195,1.015-0.181,1.206c0,0-0.093,0.965-0.668,1.427
							c-1,0.803-1.972,0.79-1.972,0.79s0.501-0.527,0.458-1.198c-0.042-0.671-0.255-0.805-0.276-1.011
							c-0.021-0.206-0.004-0.701-0.221-0.887c-0.217-0.186-0.478-0.618-0.021-0.812c0.456-0.194,0.31-0.361,0.303-0.429
							c-0.007-0.068,0.034-0.428,0.269-0.425c0.021,0,0.04,0.002,0.04,0.002c0.194,0.037,0.283,0.207,0.386,0.227l0.02,0.002
							c0.139-0.014,0.288-0.335,0.531-0.332c0,0,0.029,0.001,0.042,0.004c0.207,0.04,0.318,0.346,0.464,0.435
							c-0.029,0.019-0.062,0.039-0.089,0.056C34.321,22.752,34.23,22.811,34.175,22.839z"/>
						<path fill="#E13D1E" d="M32.908,21.274c0.427-0.061,0.888,0.81,0.888,0.81s-0.233,0.093-0.341,0.139
							c-0.108,0.046-0.409-0.279-0.707-0.144c-0.298,0.134-0.163,0.527-0.237,0.648c-0.074,0.12-0.347,0.165-0.498,0.302
							c-0.151,0.137-0.067,0.613-0.067,0.613c-0.268-0.026-0.457-0.152-0.585-0.382c-0.127-0.229-0.142-0.54-0.043-0.853
							c0.098-0.313,0.285-0.176,0.462-0.359s0.438-0.149,0.583-0.172c0.145-0.023,0.185-0.14,0.232-0.353
							C32.643,21.309,32.908,21.274,32.908,21.274z"/>
						<path fill="#E13D1E" d="M32.406,21.64c0.005,0.078-0.19,0.097-0.293,0.085c-0.103-0.013-0.198,0.077-0.271,0.027
							c-0.101-0.068-0.071-0.079-0.125-0.151c-0.054-0.073-0.045-0.215,0.03-0.321c0.075-0.107,0.182,0.018,0.349-0.03
							c0.167-0.049,0.357,0.05,0.385,0.094C32.509,21.386,32.401,21.562,32.406,21.64z"/>
						<path fill="#E13D1E" d="M31.58,27.098c0.226,0.176,0.622,0.24,0.622,0.24s-0.527,0.184-1.188,0.156
							c-0.661-0.028-1.114-0.556-1.304-0.811c-0.298-0.401-0.177-0.93-0.177-0.93s0.09,0.584,0.709,0.633
							C30.863,26.435,31.354,26.921,31.58,27.098z"/>
						<path fill="#E13D1E" d="M32.504,27.271c0,0,0.402-0.042,0.72-0.067c0.444-0.035,0.86-0.543,1.408-0.585
							c-0.578,0.513-0.412,0.819-0.909,0.928C33.227,27.657,32.504,27.271,32.504,27.271z"/>
						<path fill="#E13D1E" d="M32.38,28.076c0,0,0.014,0.048,0.035,0.126c-0.019,0.01-0.034,0.023-0.054,0.032l-0.171,0.022
							c0,0-0.377,0.021-0.663-0.625c0,0,0.535,0.017,0.864-0.149c0,0,0.233,0.167,0.338,0.173c0,0-0.002,0.249-0.173,0.437
							c-0.01-0.038-0.018-0.064-0.018-0.064L32.38,28.076z"/>
						<path fill="#E13D1E" d="M32.414,28.202c0.055-0.032,0.103-0.069,0.14-0.109"/>
						<path fill="#E13D1E" d="M32.38,28.076l0.156-0.049c0,0,0.008,0.028,0.018,0.066c-0.037,0.041-0.085,0.078-0.14,0.109
							C32.394,28.124,32.381,28.079,32.38,28.076z"/>
					</g>
				</g>
				<g>
					<polygon fill="#E13D1E" points="13.86,22.851 13.853,22.834 13.853,22.839 					"/>
					<path fill="#E13D1E" d="M14.264,23.108c-0.356-0.393-0.46-0.809-0.46-0.809c-0.099,0.244-0.312,0.406-0.721,0.713
						c-0.409,0.308-0.078,0.985,0.148,1.41c0.226,0.425,0.32,1.126,0.32,1.126C15.281,24.792,14.62,23.501,14.264,23.108z
						 M13.61,22.811c0.093-0.035,0.168-0.038,0.213-0.035l0.003-0.006l-0.013-0.031l0.017,0.022
						c0.014-0.028,0.025-0.048,0.025-0.048c0.001,0.022-0.001,0.042-0.001,0.064l0.013,0.002l-0.013,0.01l0,0.003
						c0.329,0.4,0.565,0.869,0.636,1.274c0.022,0.213-0.017,0.389-0.057,0.504c-0.04,0.115-0.078,0.174-0.078,0.174
						c0.049-0.261,0.037-0.518-0.026-0.745c-0.065-0.178-0.13-0.348-0.195-0.506c0.015,0.156,0.009,0.305-0.012,0.429
						c-0.054,0.335-0.231,0.49-0.231,0.49c0.067-0.203,0.097-0.386,0.094-0.577c0.006-0.189,0.006-0.363-0.015-0.513
						c-0.019-0.15-0.054-0.276-0.086-0.365c-0.013-0.036-0.023-0.061-0.032-0.084c-0.01,0.253-0.061,0.49-0.115,0.671
						c-0.066,0.216-0.1,0.366-0.1,0.366c-0.1-0.303-0.005-0.614,0.061-0.831c0.033-0.098,0.067-0.178,0.095-0.24
						c-0.119,0.097-0.228,0.179-0.318,0.246c-0.106,0.078-0.176,0.148-0.176,0.148C13.285,23.016,13.471,22.86,13.61,22.811z"/>
					<path fill="#E13D1E" d="M12.184,24.626c0.117,0.299,0.164,0.739,0.164,0.739c0.338-0.379,0.392-0.701,0.313-1.141
						c-0.079-0.44,0.177-1.148,0.177-1.148C12.02,23.789,12.066,24.327,12.184,24.626z"/>
					<path fill="#E13D1E" d="M13.251,24.753c-0.066-0.297-0.465-1.066-0.465-1.066c-0.113,0.363,0.041,1.084,0.108,1.314
						c0.066,0.229,0.291,0.971,0.291,0.971C13.483,25.542,13.317,25.05,13.251,24.753z"/>
					<path fill="#E13D1E" d="M15.08,22.756c-0.372-0.944-1.146-1.05-1.146-1.05c-0.074,0.074-0.069,0.269-0.069,0.269
						c0.005,0.33,0.279,0.796,0.499,1.087c0.221,0.29,0.341,0.466,0.432,1.046c0.091,0.58-0.25,1.359-0.25,1.359
						C15.049,24.823,15.452,23.701,15.08,22.756z"/>
					<path fill="#E13D1E" d="M12.255,23.368c0,0,0.542-0.522,0.963-0.678c0.422-0.156,0.535-0.529,0.535-0.529
						c-0.05-0.139,0.06-0.522,0.06-0.522c-0.471-0.003-0.735,0.232-0.735,0.232c-1.094,0.668-1.262,1.717-1.292,1.895
						c-0.031,0.178-0.236,0.691-0.236,0.691C11.805,23.778,12.255,23.368,12.255,23.368z"/>
					<path fill="#E13D1E" d="M14.503,21.808c0,0,0.026-0.684-0.323-0.776c-0.46-0.122-0.801,0.486-0.801,0.486
						S14.116,21.431,14.503,21.808z"/>
				</g>
				<path fill="#E13D1E" d="M24.065,22.138h2.899c0.079,0,0.143-0.064,0.143-0.142V21.51c0-0.079-0.064-0.142-0.143-0.142h-1.604
					c-0.079,0-0.142-0.064-0.142-0.142v-0.345c0-0.078-0.064-0.142-0.142-0.142h-0.486c-0.079,0-0.142,0.064-0.142,0.142v0.345
					c0,0.079-0.064,0.142-0.142,0.142H22.77c-0.079,0-0.142-0.064-0.142-0.142v-0.345c0-0.078-0.064-0.142-0.142-0.142H22
					c-0.079,0-0.142,0.064-0.142,0.142v0.345c0,0.079-0.064,0.142-0.142,0.142h-1.604c-0.079,0-0.142,0.064-0.142,0.142v0.486
					c0,0.079,0.064,0.142,0.142,0.142h2.898c0.079,0,0.142,0.064,0.142,0.142v0.104c0,0.079-0.064,0.142-0.142,0.142h-2.898
					c-0.079,0-0.142,0.064-0.142,0.142v0.486c0,0.079,0.064,0.142,0.142,0.142h2.898c0.079,0,0.142,0.064,0.142,0.142v4.266
					c0,0.079,0.064,0.142,0.142,0.142h0.486c0.078,0,0.142-0.064,0.142-0.142V23.44c0-0.079,0.064-0.142,0.143-0.142h2.899
					c0.079,0,0.143-0.064,0.143-0.142V22.67c0-0.079-0.064-0.142-0.143-0.142h-2.899c-0.079,0-0.143-0.064-0.143-0.142v-0.104
					C23.922,22.202,23.986,22.138,24.065,22.138z"/>
				<g>
					<path fill="#E13D1E" d="M22.62,14.913l-0.037,0.009c-0.031,0-0.06-0.017-0.074-0.046c-0.021-0.041-0.004-0.091,0.037-0.112
						c0,0,0.616-0.317,0.839-0.711c-1.089-0.072-2.285,0.244-3.191,1.326c0,0,1.119,0.168,1.538-0.354c0,0-0.077,0.354-0.205,0.554
						c0,0,0.709,0.301,1.466-0.365c0.376-0.331,0.674-0.433,1.048-0.441c0.254-0.005,0.545,0.066,0.81,0.319
						c0.092,0.088,0.208,0.41,0.061,0.607c0,0,0.456,0.09,0.534-0.434c0.045-0.299-0.49-1.04-1.889-1.19
						C23.334,14.545,22.652,14.897,22.62,14.913z"/>
					<path fill="#E13D1E" d="M21.221,14.236c0.543-0.277,1.5-0.394,2.081-0.379c0.065,0.002,0.122,0.01,0.185,0.015
						c0.019-0.01,0.041-0.014,0.064-0.007l0.017,0.014c0.402,0.038,0.734,0.126,0.991,0.226c-0.004-0.248-0.102-0.866-0.959-1.155
						c-0.044-0.015-0.067-0.062-0.052-0.105c0.014-0.044,0.06-0.066,0.105-0.052c1.021,0.345,1.078,1.147,1.072,1.379
						c0.32,0.145,0.487,0.286,0.487,0.286c0.532-0.856-0.222-1.183-0.222-1.183c0.487-0.79-0.065-1.202-0.467-1.433
						c-0.299-0.172-0.304-0.606-0.304-0.606c-0.914,0.296-0.765,1.36-0.765,1.36c-0.674-0.303-1.105,0.113-1.105,0.113
						c0.308,0.217,0.317,0.485,0.317,0.485C21.45,13.328,21.221,14.236,21.221,14.236z"/>
				</g>
				<g>
					<path fill="#E13D1E" d="M25.099,33.898c-0.116-0.406,0.42-1.04,0.42-1.04c0.391,0.424,0.752,0.738,1.088,0.983
						c-0.042,0.087-0.225,0.527,0.119,1.042l0.006,0.008c0.021,0.023,0.057,0.028,0.084,0.01c0.03-0.02,0.038-0.06,0.018-0.09
						c-0.28-0.419-0.164-0.783-0.119-0.891c0.392,0.271,0.743,0.438,1.052,0.537l0.007,0.006l0.009,0
						c0.227,0.07,0.429,0.108,0.605,0.124c0.629,0.055,1.243-0.258,1.243-0.258c-0.786,1.311-1.996,0.752-1.996,0.752
						c-0.791,0.723-1.427,0.068-1.427,0.068c-0.637,1.04-1.295,0.308-1.295,0.308C25.855,34.734,25.216,34.305,25.099,33.898z"/>
					<path fill="#E13D1E" d="M28.86,33.726c0.036-0.001,0.064-0.03,0.063-0.066c-0.001-0.036-0.031-0.065-0.066-0.063
						c-0.59,0.012-0.967,0.546-1.076,0.721c-0.69-0.217-1.285-0.679-1.708-1.082c0.086-0.093,0.407-0.417,0.758-0.415
						c0.036,0,0.065-0.029,0.065-0.065c0-0.036-0.028-0.065-0.065-0.065c-0.404-0.002-0.752,0.345-0.852,0.455
						c-0.205-0.202-0.365-0.382-0.465-0.494c-0.434-0.489-0.826-0.694-0.826-0.694c0.079-0.332,0.341-0.4,0.341-0.4
						c0.457,0.233,0.838,0.693,0.838,0.693c0.288-0.453,0.745-0.324,1.161-0.105c0.415,0.219,0.675-0.142,0.675-0.142
						s0.23,0.465-0.108,0.687c-0.583,0.383-0.272,0.573-0.272,0.573s0.285,0.409,0.757-0.212c0.505-0.665,1.011-0.284,1.011-0.284
						c-0.149,0.366,0.066,0.401,0.066,0.401c0.366-0.407,0.64-0.044,0.977-0.276c0.143-0.099,0.161-0.257,0.097-0.361
						c-0.086-0.14-0.294-0.214-0.294-0.214s0.041-0.131,0.168-0.168c0.478-0.14,0.804,0.468,0.621,0.908
						c-0.173,0.417-0.595,1.036-1.578,1.305c-0.433,0.118-0.851,0.099-1.241-0.003C28.027,34.18,28.366,33.736,28.86,33.726z"/>
				</g>
				<path fill="#E13D1E" d="M24.783,33.433c-1.443-0.331-3.768-0.557-6.299,0.421l0.08,0.208c2.483-0.959,4.761-0.737,6.171-0.412"
					/>
				<path fill="#E13D1E" d="M20.096,36.706c0,0,0.197-1.839,2.471-3.239c0,0-0.225,0.955-1.097,1.575
					C20.598,35.661,20.096,36.706,20.096,36.706z"/>
				<path fill="#E13D1E" d="M14.84,21.275c0,0,1.555,1,1.788,3.66c0,0-0.753-0.629-0.916-1.686
					C15.549,22.192,14.84,21.275,14.84,21.275z"/>
				<path fill="#E13D1E" d="M31.236,16.276c0,0,1.754,0.584,2.637,3.104c0,0-0.885-0.423-1.304-1.407
					C32.15,16.989,31.236,16.276,31.236,16.276z"/>
				<path fill="#E13D1E" d="M19.179,36.681c-0.218-0.279-0.163-0.797-0.051-1.216c0.112-0.42-0.427-0.87-0.427-0.87
					s0.247-0.443-0.086-0.812c-0.333-0.369-0.934,0.01-0.934,0.01c-0.404-0.806-1.124-0.693-1.357-0.647
					c-0.233,0.047-0.623,0.019-0.623,0.019c0.137,0.521,0.566,0.761,0.566,0.761s-0.261,0.033-0.958,0.577
					c-0.698,0.544-0.859,1.361-0.863,1.552c-0.003,0.191-0.019,0.482-0.282,0.812c-0.263,0.331-0.301,0.558-0.301,0.558
					c0.404-0.298,0.754-0.149,0.754-0.149c-0.039,0.192-0.339,0.785-0.339,0.785c0.479-0.087,0.886-0.278,0.886-0.278
					c0.089,0.218,0.052,0.48,0.052,0.48c0.458-0.483,1.12-0.214,2.175-0.686c0.613-0.274,1.086-1.23,1.086-1.23
					C18.655,36.642,19.179,36.681,19.179,36.681z M16.95,34.401c0,0-0.105,0.024-0.271,0.09c-0.165,0.067-0.385,0.182-0.604,0.367
					c-0.453,0.359-0.819,1.01-1.091,1.746c0,0-0.005-0.102,0.011-0.279c0.017-0.177,0.057-0.433,0.176-0.723
					c0.118-0.286,0.322-0.61,0.638-0.852C16.119,34.507,16.544,34.353,16.95,34.401z M17.205,33.578c0,0-0.142,0.025-0.301,0.024
					c-0.165-0.002-0.335-0.033-0.553-0.201c0,0,0.107-0.078,0.287-0.093C16.813,33.291,17.067,33.356,17.205,33.578z M17.338,34.073
					c0,0-0.127,0.042-0.273,0.041c-0.149-0.003-0.312-0.047-0.463-0.255c0,0,0.107-0.052,0.26-0.049
					C17.013,33.812,17.214,33.874,17.338,34.073z M17.307,36.498c0.294-0.286,0.502-0.705,0.724-1.126c0,0-0.022,0.123-0.073,0.332
					c-0.051,0.207-0.139,0.513-0.353,0.825c-0.229,0.321-0.579,0.583-0.999,0.773c-0.207,0.09-0.459,0.158-0.699,0.133
					c-0.232-0.016-0.472-0.062-0.675-0.168c0,0,0.117,0.023,0.321,0.02c0.205-0.012,0.501-0.007,0.798-0.149
					C16.654,37,17.003,36.778,17.307,36.498z M18.484,34.317c0,0-0.014,0.034-0.055,0.078c-0.041,0.043-0.112,0.1-0.22,0.12
					c-0.102,0.022-0.256-0.006-0.352-0.117c-0.097-0.1-0.12-0.291-0.012-0.386c0,0,0.05,0.118,0.159,0.178
					C18.108,34.253,18.225,34.291,18.484,34.317z M18.361,36.166c0,0,0.055-0.143,0.075-0.325c0.018-0.191,0.009-0.395-0.089-0.657
					c0,0,0.135,0.057,0.228,0.271C18.664,35.657,18.605,36.01,18.361,36.166z M18.76,35.939c0,0-0.043-0.155-0.082-0.332
					c-0.04-0.185-0.062-0.378-0.009-0.677c0,0,0.126,0.085,0.206,0.283C18.958,35.403,18.966,35.724,18.76,35.939z"/>
				<g>
					<path fill="#E13D1E" d="M27.686,5.566c-0.234-0.611-1.149-0.591-1.149-0.591c0,0.584,0.52,0.706,0.52,0.706
						c0.38,0.081,0.45,0.16,0.557,0.311c0.022-0.013,0.045-0.022,0.067-0.033C27.754,5.823,27.686,5.566,27.686,5.566z"/>
					<path fill="#E13D1E" d="M26.787,6.436c0.296-0.28,0.396-0.28,0.599-0.283l0.003-0.002c0.001-0.177-0.34-0.298-0.34-0.298
						c-0.636-0.153-1.138,0.612-1.138,0.612C26.392,6.795,26.787,6.436,26.787,6.436z"/>
					<polygon fill="#E13D1E" points="27.389,6.153 27.388,6.151 27.387,6.152 					"/>
					<g>
						<path fill="#E13D1E" d="M31.871,7.606c0.236,0,0.492,0.017,0.765,0.057c0,0-0.269-0.514-1.537-0.688l-0.644-0.047
							c0,0-0.376-0.985-1.166-1.111C29.178,5.8,29.061,5.79,28.94,5.79c-0.742,0-1.618,0.355-1.911,1.329
							c0,0-0.137,0.407-0.139,0.92c-0.003,0.513-0.271,0.605-0.271,0.605s-0.682,0.496-0.845,1.24
							c-0.163,0.743-0.069,2.222,0.794,3.606c0.863,1.384,1.72,2.78,2.667,3.536c0,0-0.176,1.206,0.084,2.245
							c0.247,0.984,0.66,1.445,1.173,1.445c0.029,0,0.058-0.001,0.088-0.004c0,0,0.28-0.086,0.526-0.4c0,0,0.175,0.07,0.391,0.07
							c0.288,0,0.648-0.124,0.768-0.701c0.21-1.01-1.512-3.277-1.512-3.277s-0.017-0.164,0.017-0.343
							c0.034-0.179,0.689-3.061,0.454-4.632c-0.235-1.571-1.269-2.639-1.269-2.639s-0.165-0.376,0.004-0.754
							C29.959,8.037,30.669,7.606,31.871,7.606z M30.939,7.189c0.146-0.032,0.295-0.021,0.414,0.008
							c0.242,0.06,0.368,0.181,0.368,0.181c-0.313-0.03-0.587-0.039-0.817-0.019c-0.233,0.015-0.39-0.004-0.39-0.004
							C30.655,7.274,30.8,7.222,30.939,7.189z M26.321,10.611c-0.046,0.265-0.119,0.455-0.119,0.455
							c-0.144-0.349-0.13-0.72-0.074-0.987c0.056-0.269,0.148-0.437,0.148-0.437C26.39,10.006,26.367,10.344,26.321,10.611z
							 M26.625,11.289c-0.032,0.292-0.055,0.496-0.055,0.496c-0.224-0.35-0.207-0.781-0.149-1.063
							c0.059-0.29,0.149-0.472,0.149-0.472C26.688,10.641,26.651,11.007,26.625,11.289z M31.601,18.441
							c0.041,0.207,0.033,0.387,0.016,0.508c-0.017,0.122-0.039,0.189-0.039,0.189c-0.058-0.531-0.263-0.995-0.444-1.344
							c-0.183-0.346-0.333-0.575-0.333-0.575C31.24,17.515,31.529,18.025,31.601,18.441z M31.244,18.664
							c0.03,0.233-0.006,0.398-0.006,0.398c-0.155-0.273-0.229-0.547-0.306-0.746c-0.072-0.2-0.147-0.336-0.147-0.336
							C31.089,18.101,31.219,18.44,31.244,18.664z M28.101,7.399c0.142-0.005,0.232,0.036,0.232,0.036
							c-0.171,0.094-0.319,0.129-0.449,0.152c-0.128,0.022-0.231,0.031-0.231,0.031C27.768,7.463,27.962,7.402,28.101,7.399z
							 M27.642,7.3c0.059-0.068,0.143-0.109,0.226-0.124c0.084-0.013,0.151,0.005,0.215,0.016c0.124,0.027,0.204,0.069,0.204,0.069
							c-0.157,0.09-0.32,0.062-0.433,0.051C27.733,7.305,27.642,7.3,27.642,7.3z M27.986,7.985c0.254-0.236,0.607-0.202,0.607-0.202
							C28.361,8.064,27.986,7.985,27.986,7.985z M28.684,7.931c0.005,0.164-0.11,0.275-0.211,0.318
							c-0.102,0.046-0.188,0.034-0.188,0.034C28.44,8.046,28.675,7.941,28.684,7.931z M28.085,7.778
							c-0.108,0.019-0.198,0.01-0.198,0.01c0.098-0.127,0.243-0.189,0.363-0.196c0.12-0.009,0.196,0.033,0.196,0.033
							C28.306,7.717,28.198,7.759,28.085,7.778z M27.899,12.666c0.07,0.154,0.131,0.279,0.191,0.363
							c0.058,0.084,0.108,0.128,0.108,0.128c-0.247-0.052-0.423-0.267-0.541-0.44c-0.123-0.182-0.21-0.37-0.266-0.537
							c-0.114-0.335-0.115-0.576-0.115-0.576C27.564,11.974,27.753,12.355,27.899,12.666z M28.141,12.728
							c-0.096-0.328-0.089-0.562-0.089-0.562c0.274,0.364,0.441,0.742,0.565,1.052c0.121,0.307,0.19,0.542,0.19,0.542
							C28.446,13.473,28.234,13.054,28.141,12.728z M28.576,12.16c0.307,0.37-0.065,0.707-0.065,0.707
							C28.294,12.493,28.576,12.16,28.576,12.16z M29.06,15.904c-0.53-0.663-0.716-1.503-0.716-1.503
							C28.924,15.01,29.06,15.904,29.06,15.904z M28.877,12.862c0.004-0.339,0.092-0.631,0.179-0.854
							c0.087-0.221,0.173-0.369,0.173-0.369c0.115,0.332,0.028,0.66-0.09,0.88C29.02,12.742,28.877,12.862,28.877,12.862z
							 M29.112,8.897c-0.153-0.026-0.321-0.01-0.45,0.009c-0.266,0.039-0.422,0.163-0.422,0.163
							c0.081-0.174,0.271-0.294,0.455-0.336c0.18-0.045,0.377-0.033,0.52,0.024c0.143,0.052,0.252,0.119,0.322,0.175
							c0.071,0.056,0.097,0.1,0.097,0.1C29.464,8.958,29.277,8.927,29.112,8.897z M28.729,8.368
							c0.045-0.313,0.327-0.466,0.327-0.466C29.057,8.236,28.729,8.368,28.729,8.368z M29.099,8.343
							C29.068,8.068,29.3,7.906,29.3,7.906c0.038,0.15-0.01,0.254-0.07,0.327C29.17,8.304,29.099,8.343,29.099,8.343z
							 M29.611,11.233c0.069-0.205,0.128-0.356,0.128-0.356c0.17,0.293,0.093,0.636-0.035,0.839
							c-0.128,0.21-0.286,0.297-0.286,0.297C29.463,11.697,29.541,11.441,29.611,11.233z M29.675,7.967
							c-0.054,0.071-0.111,0.123-0.111,0.123c-0.048-0.138,0.013-0.259,0.057-0.329c0.047-0.072,0.091-0.123,0.091-0.123
							C29.786,7.774,29.726,7.899,29.675,7.967z M29.388,6.158c0.117,0.07,0.165,0.161,0.188,0.243
							c0.022,0.081,0.018,0.15,0.018,0.15C29.326,6.457,29.384,6.15,29.388,6.158z M29.516,6.898
							c0.072,0.051,0.101,0.092,0.101,0.092c-0.204-0.012-0.368,0.043-0.364,0.108c-0.015,0.031-0.03,0.099-0.035,0.146
							c-0.004,0.048-0.004,0.072,0.008,0.1c0.028,0.06,0.146,0.099,0.221,0.097c0.08,0.003,0.135-0.015,0.135-0.015
							c-0.051,0.086-0.146,0.155-0.259,0.174c-0.107,0.023-0.262-0.015-0.341-0.139c-0.079-0.121-0.069-0.25-0.046-0.339
							c0.024-0.094,0.074-0.196,0.169-0.256C29.313,6.756,29.45,6.859,29.516,6.898z M29.134,6.314
							c0.096,0.091,0.131,0.161,0.131,0.161c-0.185-0.011-0.32-0.111-0.412-0.198c-0.091-0.09-0.14-0.181-0.14-0.181
							C28.891,6.13,29.038,6.229,29.134,6.314z M29.041,6.468c-0.192,0.068-0.352-0.032-0.464-0.096
							c-0.112-0.074-0.176-0.154-0.176-0.154C28.779,6.22,29.031,6.499,29.041,6.468z M28.511,6.478
							c0.115,0.05,0.181,0.112,0.181,0.112c-0.178,0.04-0.326,0.003-0.441-0.043c-0.114-0.047-0.192-0.104-0.192-0.104
							C28.229,6.391,28.396,6.427,28.511,6.478z M28.291,6.614c0.112,0.041,0.179,0.092,0.179,0.092
							c-0.171,0.063-0.317,0.033-0.427-0.014c-0.109-0.048-0.182-0.112-0.182-0.112C28.023,6.54,28.18,6.573,28.291,6.614z
							 M28.223,6.822c0.118,0.039,0.191,0.088,0.191,0.088c-0.177,0.067-0.33,0.04-0.447-0.005
							c-0.116-0.045-0.195-0.108-0.195-0.108C27.94,6.754,28.105,6.783,28.223,6.822z M28.313,7.121
							c-0.383,0.159-0.762-0.07-0.762-0.07C27.942,6.943,28.313,7.121,28.313,7.121z M27.267,8.701
							c0.07,0.002,0.136,0.014,0.197,0.031c0.083,0.026,0.126,0.066,0.171,0.104c0.177,0.158,0.178,0.337,0.178,0.337
							c-0.38-0.421-0.931-0.32-0.924-0.295C26.954,8.744,27.133,8.695,27.267,8.701z M26.754,11.462c-0.061-0.315,0-0.526,0-0.526
							c0.193,0.373,0.323,0.697,0.44,0.971c0.124,0.279,0.211,0.472,0.211,0.472C27.024,12.182,26.809,11.771,26.754,11.462z
							 M28.074,15.251c-0.289-0.43-0.434-0.748-0.434-0.748c0.468,0.478,0.88,1.01,1.193,1.425c0.311,0.414,0.515,0.712,0.515,0.712
							C28.804,16.219,28.362,15.68,28.074,15.251z M29.579,19.187c-0.124-0.295-0.203-0.61-0.191-0.877
							c0.005-0.265,0.049-0.478,0.08-0.625c0.036-0.147,0.057-0.23,0.057-0.23c0.021,0.333,0.014,0.666,0.053,0.966
							c0.034,0.295,0.138,0.573,0.214,0.815c0.083,0.238,0.176,0.431,0.251,0.566c0.077,0.134,0.121,0.212,0.121,0.212
							C29.905,19.789,29.7,19.491,29.579,19.187z M30.068,15.448c-0.122-0.777,0.141-1.529,0.141-1.529
							C30.402,14.677,30.068,15.448,30.068,15.448z M30.299,16.678c0.047-1.49,0.479-2.939,0.479-2.939
							C30.806,15.192,30.299,16.678,30.299,16.678z M30.528,10.557c-0.017,0.357-0.144,0.574-0.144,0.574
							c-0.063-0.45-0.127-0.853-0.195-1.172c-0.067-0.315-0.131-0.537-0.131-0.537C30.423,9.714,30.551,10.208,30.528,10.557z
							 M29.956,10.756c0.032-0.234,0.081-0.398,0.081-0.398c0.192,0.294,0.184,0.635,0.118,0.875
							c-0.065,0.243-0.18,0.392-0.18,0.392C29.905,11.294,29.924,10.992,29.956,10.756z M30.02,18.769
							c0.057,0.298,0.097,0.505,0.097,0.505c-0.264-0.317-0.388-0.73-0.367-1.054c0.021-0.317,0.132-0.502,0.132-0.502
							C29.905,18.127,29.959,18.467,30.02,18.769z M29.698,6.282c0.132,0.103,0.214,0.224,0.239,0.341
							c0.03,0.113,0.022,0.205,0.022,0.205C29.698,6.63,29.683,6.286,29.698,6.282z M29.979,7.149
							c0.099-0.122,0.205-0.13,0.205-0.13c-0.122,0.163-0.135,0.267-0.131,0.397c-0.001,0.117,0.047,0.211,0.047,0.211
							c-0.089-0.037-0.15-0.133-0.166-0.224C29.917,7.318,29.928,7.216,29.979,7.149z"/>
					</g>
				</g>
				<g>
					<path fill="#E13D1E" d="M20.12,31.699c0.026,0.014,0.047,0.031,0.072,0.046c0.025-0.073,0.04-0.22-0.133-0.41
						c-0.018-0.02-0.016-0.05,0.003-0.067c0.022-0.018,0.05-0.017,0.068,0.003c0.22,0.242,0.182,0.437,0.145,0.527
						c0.496,0.344,0.718,0.905,0.718,0.905c0.151-0.222,0.134-0.447,0.016-0.666c-0.185-0.342-0.52-0.366-0.52-0.366
						c0.213-0.381-0.115-0.759-0.46-0.833c-0.194-0.041-0.583-0.065-0.583-0.065c0.003,0.19,0.122,0.355,0.122,0.355
						s-0.552-0.259-1.08,0.122c-0.233,0.168-0.357,0.324-0.357,0.324C18.86,31.215,19.637,31.444,20.12,31.699z"/>
					<path fill="#E13D1E" d="M18.815,33.026c0,0-0.084-0.202,0.15-0.306c0.234-0.104,0.28,0.113,0.536,0.083
						c0.256-0.031,0.329-0.223,0.552-0.378c0.223-0.155,0.616-0.06,0.616-0.06s-0.066-0.119-0.219-0.267
						c-0.036,0.024-0.072,0.047-0.107,0.064c-0.276,0.134-0.524,0.074-0.524,0.074c-0.038-0.01-0.053-0.035-0.046-0.061
						c0.006-0.025,0.033-0.041,0.058-0.035c0,0,0.275,0.062,0.546-0.108c-0.183-0.158-0.462-0.33-0.864-0.428
						c-0.062,0.146-0.158,0.234-0.257,0.282c-0.19,0.093-0.393,0.053-0.393,0.053c-0.029-0.006-0.046-0.031-0.04-0.057
						c0.006-0.026,0.031-0.042,0.056-0.037c0.016,0.003,0.384,0.069,0.538-0.264c-0.064-0.013-0.131-0.024-0.2-0.033
						c-0.939-0.117-1.196,0.311-1.196,0.311c0.354-0.123,0.37,0.159,0.538,0.323c0.132,0.128,0.322,0.144,0.322,0.144
						C18.366,32.648,18.815,33.026,18.815,33.026z"/>
				</g>
				<path fill="#E13D1E" d="M34.314,15.231c-0.103-0.059-0.218-0.081-0.332-0.062l0.095,0.475c0.042,0.024,0.108,0.074,0.087,0.141
					c-0.034,0.105-0.101,0.189-0.179,0.223c-0.063,0.028-0.146,0.017-0.182-0.023c-0.025-0.028-0.047-0.083-0.069-0.141
					c-0.031-0.08-0.067-0.171-0.133-0.257c-0.086-0.109-0.197-0.175-0.273-0.215c-0.404-0.212-0.896-0.233-1.316-0.058l-0.053,0.023
					c-0.044,0.02-0.086,0.038-0.118,0.043c-0.119,0.02-0.26-0.103-0.409-0.233c-0.04-0.034-0.079-0.069-0.118-0.101
					c-0.04-0.033-0.08-0.059-0.12-0.087l-0.12,0.508c0,0,0.029,0.025,0.044,0.038c0.205,0.179,0.462,0.402,0.802,0.344
					c0.089-0.015,0.164-0.048,0.229-0.077l0.045-0.019c0.287-0.12,0.636-0.104,0.912,0.04c0.058,0.031,0.097,0.059,0.119,0.086
					c0.024,0.031,0.043,0.082,0.065,0.136c0.033,0.086,0.075,0.193,0.158,0.286c0.115,0.129,0.285,0.198,0.46,0.198
					c0.09,0,0.182-0.018,0.269-0.056c0.203-0.09,0.364-0.276,0.44-0.512C34.704,15.662,34.585,15.387,34.314,15.231z"/>
				<path fill="#E13D1E" d="M26.755,14.739c-0.194,0.028-0.425-0.07-0.689-0.291l-0.306,0.365c0.377,0.316,0.724,0.446,1.063,0.397
					c0.157-0.023,0.295-0.086,0.422-0.17l-0.268-0.39C26.905,14.696,26.832,14.728,26.755,14.739z"/>
			</g>
			<path fill="#292422" d="M23.015,62.594h1.288c0.209,0,0.378-0.169,0.378-0.378V50.904c0-0.209,0.169-0.378,0.377-0.378h7.687
				c0.208,0,0.378-0.169,0.378-0.378v-1.288c0-0.209-0.169-0.378-0.378-0.378h-7.687c-0.208,0-0.377-0.169-0.377-0.378v-0.277
				c0-0.209,0.169-0.378,0.377-0.378h7.687c0.208,0,0.378-0.169,0.378-0.378v-1.288c0-0.208-0.169-0.377-0.378-0.377h-4.254
				c-0.208,0-0.378-0.169-0.378-0.378v-0.914c0-0.208-0.169-0.378-0.377-0.378h-1.288c-0.209,0-0.378,0.169-0.378,0.378v0.914
				c0,0.209-0.169,0.378-0.378,0.378h-4.068c-0.208,0-0.378-0.169-0.378-0.378v-0.914c0-0.208-0.169-0.378-0.377-0.378h-1.288
				c-0.209,0-0.378,0.169-0.378,0.378v0.914c0,0.209-0.169,0.378-0.377,0.378h-4.253c-0.208,0-0.378,0.169-0.378,0.377v1.288
				c0,0.209,0.169,0.378,0.378,0.378h7.686c0.208,0,0.378,0.169,0.378,0.378v0.277c0,0.208-0.169,0.378-0.378,0.378h-7.686
				c-0.208,0-0.378,0.169-0.378,0.378v1.288c0,0.209,0.169,0.378,0.378,0.378h7.686c0.208,0,0.378,0.169,0.378,0.378v11.312
				C22.638,62.425,22.806,62.594,23.015,62.594z"/>
			<path fill="#292422" d="M29.927,85.591c0.418,0.886,1.104,1.794,2.227,2.664c0.171,0.133,0.417,0.101,0.543-0.075l0.751-1.047
				c0.117-0.163,0.086-0.391-0.072-0.515c-2.121-1.656-2.069-3.302-2.019-4.894c0.003-0.103,0.007-0.204,0.009-0.304
				c0.005-0.213-0.165-0.388-0.378-0.388H29.7c-0.204,0-0.372,0.161-0.377,0.366c-0.002,0.086-0.005,0.174-0.008,0.263
				c-0.012,0.386-0.025,0.814-0.005,1.273c0.009,0.214-0.162,0.393-0.376,0.393H18.721c-0.324,0-0.497-0.38-0.285-0.625L29,70.502
				c0.067-0.077,0.164-0.123,0.267-0.129c1.335-0.072,2.429-0.379,3.475-1.687c0.136-0.17,0.102-0.422-0.076-0.548l-1.052-0.745
				c-0.163-0.116-0.386-0.081-0.513,0.073c-0.666,0.81-1.27,0.881-2.911,0.885l-0.018-0.015l-0.013,0.016c-0.065,0-0.127,0-0.195,0
				H16.202c-0.209,0-0.377,0.169-0.377,0.378v1.288c0,0.208,0.169,0.377,0.377,0.377h9.362c0.323,0,0.497,0.38,0.285,0.625
				L14.887,83.678c-0.153,0.176-0.24,0.398-0.249,0.629c-0.009,0.211-0.141,1.983-2.212,2.162c-0.196,0.017-0.349,0.178-0.349,0.375
				v1.292c0,0.219,0.186,0.392,0.405,0.378c2.372-0.148,3.507-1.599,3.956-2.898c0.052-0.15,0.195-0.248,0.354-0.248h12.793
				C29.733,85.369,29.864,85.457,29.927,85.591z"/>
			<path fill="#292422" d="M30.723,101.765c0.005-0.292,0-0.588,0-0.888v-6.411c0-0.208-0.169-0.378-0.378-0.378h-1.288
				c-0.208,0-0.377,0.169-0.377,0.378v6.411c0,0.29,0.005,0.575,0,0.856c-0.043,2.766,0.183,5.774,4.24,8.622
				c0.173,0.122,0.414,0.073,0.53-0.104l0.707-1.073c0.114-0.173,0.065-0.402-0.104-0.52
				C31.198,106.662,30.681,104.374,30.723,101.765z"/>
			<path fill="#292422" d="M27.355,104.373l-1.292,0.088c-0.209,0.014-0.368,0.195-0.351,0.404c0.035,0.442,0.137,1.225,0.445,2.122
				c0.079,0.231-0.073,0.478-0.317,0.501c-0.892,0.085-1.964,0.153-3.122,0.157l-0.228-0.001c-1.095-0.006-2.129-0.01-3.077-0.426
				c-0.645-0.282-1.076-1.096-1.076-1.679V94.63c0-0.208-0.169-0.377-0.377-0.377H16.67c-0.208,0-0.378,0.169-0.378,0.377v10.908
				c0,1.263,0.79,2.889,2.299,3.551c1.336,0.586,2.692,0.592,3.888,0.598l0.225,0.001c0.068,0,0.136,0.001,0.203,0.001
				c1.758,0,3.293-0.15,4.352-0.291c0.128-0.017,0.253,0.033,0.337,0.131c0.208,0.242,0.439,0.478,0.696,0.704
				c0.156,0.138,0.394,0.129,0.535-0.026l0.867-0.955c0.139-0.153,0.129-0.39-0.024-0.529c-1.479-1.344-1.829-3.227-1.913-4.011
				C27.735,104.51,27.559,104.359,27.355,104.373z"/>
			<g>
				<path fill="#292422" d="M6.615,45.909h0.229l0.73,1.093l0.729-1.093h0.229v2.002H8.305v-1.622l-0.729,1.073H7.564l-0.73-1.07
					v1.619h-0.22V45.909z"/>
				<path fill="#292422" d="M7.467,50.07h0.212l0.913,2.017H8.348l-0.235-0.529h-1.09l-0.237,0.529H6.555L7.467,50.07z
					 M8.025,51.354L7.57,50.333l-0.458,1.021H8.025z"/>
				<path fill="#292422" d="M6.898,54.26h1.447v0.206H7.124v0.683h1.093v0.206H7.124v0.701h1.236v0.206H6.898V54.26z"/>
				<path fill="#292422" d="M6.809,60.146l0.14-0.166c0.209,0.189,0.409,0.283,0.687,0.283c0.269,0,0.446-0.143,0.446-0.34v-0.006
					c0-0.186-0.1-0.292-0.521-0.38c-0.461-0.1-0.672-0.249-0.672-0.578v-0.006c0-0.315,0.277-0.546,0.658-0.546
					c0.292,0,0.501,0.083,0.703,0.246l-0.132,0.174c-0.186-0.152-0.372-0.217-0.578-0.217c-0.26,0-0.426,0.143-0.426,0.323v0.006
					c0,0.189,0.103,0.295,0.543,0.389c0.446,0.097,0.652,0.26,0.652,0.567V59.9c0,0.343-0.286,0.566-0.684,0.566
					C7.31,60.466,7.049,60.36,6.809,60.146z"/>
				<path fill="#292422" d="M7.458,62.819H6.786V62.61h1.573v0.209H7.687v1.794H7.458V62.819z"/>
				<path fill="#292422" d="M6.822,66.786h0.861c0.246,0,0.443,0.074,0.569,0.2c0.097,0.097,0.154,0.237,0.154,0.395v0.006
					c0,0.332-0.229,0.526-0.544,0.584l0.615,0.818H8.201L7.62,68.01H7.048v0.778H6.822V66.786z M7.663,67.807
					c0.301,0,0.515-0.155,0.515-0.412v-0.006c0-0.246-0.189-0.395-0.512-0.395H7.048v0.812H7.663z"/>
				<path fill="#292422" d="M6.552,71.968v-0.006c0-0.552,0.415-1.035,1.024-1.035c0.609,0,1.019,0.478,1.019,1.03v0.006
					c0,0.552-0.415,1.035-1.024,1.035C6.96,72.998,6.552,72.52,6.552,71.968z M8.359,71.968v-0.006c0-0.455-0.332-0.826-0.789-0.826
					c-0.458,0-0.784,0.366-0.784,0.821v0.006c0,0.455,0.332,0.827,0.789,0.827S8.359,72.423,8.359,71.968z"/>
			</g>
		</g>
		<g>
			<path fill="#D8371B" d="M44.359,111.943c0.399,0,0.722,0.323,0.722,0.722v14.239c0,0.362-0.293,0.655-0.655,0.655h-5.378
				c-0.353,0-0.639-0.286-0.639-0.64v-14.26c0-0.395,0.32-0.716,0.715-0.716H44.359 M44.359,111.131h-5.235
				c-0.842,0-1.527,0.685-1.527,1.527v14.26c0,0.8,0.651,1.451,1.451,1.451h5.378c0.809,0,1.466-0.658,1.466-1.466v-14.239
				C45.893,111.819,45.205,111.131,44.359,111.131L44.359,111.131z"/>
			<path fill="#D8371B" d="M42.256,115.13c0-0.036,0.03-0.066,0.066-0.066h0.742v-0.79v-0.244v-0.515h-0.742
				c-0.036,0-0.066-0.03-0.066-0.066v-0.112c0-0.037,0.03-0.066,0.066-0.066h0.543h0.276h0.94c0.037,0,0.066,0.03,0.066,0.066v0.112
				c0,0.037-0.029,0.066-0.066,0.066H43.34v0.515v0.244v0.79h0.742c0.037,0,0.066,0.03,0.066,0.066v0.112
				c0,0.036-0.029,0.066-0.066,0.066h-1.759c-0.036,0-0.066-0.03-0.066-0.066V115.13z"/>
			<path fill="#D8371B" d="M43.727,116.896h-1.05v-0.374h1.05V116.896z M43.727,117.153v1.271c0,0.031,0.009,0.045,0.129,0.045
				c0.118,0,0.128-0.017,0.128-0.045v-2.03c0-0.071-0.058-0.128-0.128-0.128h-1.307c-0.071,0-0.129,0.058-0.129,0.128
				c0,0,0,1.975,0,2.03c0,0.028,0.011,0.045,0.129,0.045c0.119,0,0.129-0.013,0.129-0.045c0-0.063,0-1.271,0-1.271H43.727z"/>
			<path fill="#D8371B" d="M39.497,113.088h0.276v1.526h0.744c0.155,0,0.302-0.046,0.436-0.123c0.045-0.026,0.061,0.003,0.061,0.003
				l0.116,0.167c0,0,0.018,0.051-0.011,0.069c-0.181,0.113-0.387,0.175-0.602,0.175h-0.744v0.15h1.375v0.254h-1.65V113.088z"/>
			<path fill="#D8371B" d="M39.2,116.699c0-0.026,0.021-0.047,0.047-0.047h0.198c0.026,0,0.048-0.021,0.048-0.047v-0.035
				c0-0.026-0.021-0.047-0.048-0.047h-0.198c-0.026,0-0.047-0.021-0.047-0.047v-0.162c0-0.026,0.021-0.047,0.047-0.047h0.119h0.198
				h0.04h0.116l0.001,0h0.535c0.026,0,0.047-0.021,0.047-0.048v-0.115c0-0.026,0.021-0.047,0.048-0.047h0.162
				c0.026,0,0.047,0.021,0.047,0.047v0.115c0,0.026,0.021,0.048,0.047,0.048h0.511l0,0h0.165h0.04h0.198h0.158
				c0.026,0,0.047,0.021,0.047,0.047v0.162c0,0.026-0.021,0.047-0.047,0.047H41.44c-0.026,0-0.047,0.021-0.047,0.047v0.035
				c0,0.026,0.021,0.047,0.047,0.047h0.238c0.026,0,0.047,0.021,0.047,0.047v0.162c0,0.026-0.021,0.048-0.047,0.048H41.44
				c-0.026,0-0.047,0.021-0.047,0.047v1.421c0,0.026-0.021,0.047-0.048,0.047h-0.162c-0.026,0-0.047-0.021-0.047-0.047v-1.421
				c0-0.026-0.021-0.047-0.048-0.047h-0.455h-0.049l-0.013,0.019v0.919c0,0.026-0.021,0.047-0.047,0.047h-0.162
				c-0.026,0-0.048-0.021-0.048-0.047v-0.906l-0.013-0.032h-0.049h-0.455c-0.026,0-0.047,0.021-0.047,0.047v1.421
				c0,0.026-0.021,0.047-0.048,0.047H39.54c-0.026,0-0.047-0.021-0.047-0.047v-1.421c0-0.026-0.021-0.047-0.048-0.047h-0.198
				c-0.026,0-0.047-0.021-0.047-0.048V116.699z"/>
			<path fill="#D8371B" d="M39.642,124.203h1.181v0.527h-1.181V124.203z M39.642,125.02h1.326c0.08,0,0.145-0.065,0.145-0.145
				v-0.817c0-0.08-0.065-0.145-0.145-0.145h-1.471c-0.08,0-0.145,0.065-0.145,0.145v2.159c0,0.08,0.065,0.145,0.145,0.145
				c0.08,0,0.145-0.065,0.145-0.145V125.02z"/>
			<path fill="#D8371B" d="M41.146,126.016l-0.107,0.16c-0.018,0.026-0.054,0.033-0.08,0.015c-0.449-0.319-0.582-0.65-0.617-0.969
				c0.094-0.01,0.23-0.052,0.305-0.073c0.032,0.28,0.153,0.555,0.484,0.789C41.156,125.956,41.163,125.991,41.146,126.016z"/>
			<path fill="#D8371B" d="M39.642,121.47h1.331v0.437h-1.331V121.47z M41.262,121.326c0-0.08-0.065-0.145-0.145-0.145h-1.621
				c-0.08,0-0.145,0.065-0.145,0.145v1.63c0,0.08,0.065,0.145,0.145,0.145c0.08,0,0.145-0.065,0.145-0.145v-0.759h1.476
				c0.08,0,0.145-0.065,0.145-0.145V121.326z"/>
			<path fill="#D8371B" d="M43.863,125.993l-0.099,0.109c-0.016,0.018-0.043,0.018-0.061,0.003c-0.029-0.026-0.056-0.052-0.079-0.08
				l-0.024-0.017c-0.135,0.018-0.31,0.035-0.511,0.035h-0.023l-0.025,0c-0.137-0.001-0.409-0.001-0.561-0.068
				c-0.172-0.075-0.262-0.261-0.262-0.405v-1.341c0-0.023,0.019-0.043,0.043-0.043h0.147c0.024,0,0.043,0.019,0.043,0.043v1.341
				c0,0.066,0.049,0.159,0.123,0.191c0.108,0.048,0.343,0.048,0.468,0.049l0.026,0c0.132-0.001,0.254-0.008,0.356-0.018
				c0.028-0.003,0.045-0.031,0.036-0.057c-0.035-0.103-0.029-0.122-0.033-0.172c-0.002-0.024,0.016-0.045,0.04-0.046l0.148-0.01
				c0.023-0.002,0.043,0.016,0.046,0.039c0.009,0.09,0.031,0.234,0.2,0.387C43.86,125.933,43.879,125.976,43.863,125.993z"/>
			<path fill="#D8371B" d="M42.41,122.211c-0.037,0-0.066-0.03-0.066-0.066v-0.112c0-0.036,0.03-0.066,0.066-0.066h0.191v-0.515
				h-0.317c-0.037,0-0.066-0.03-0.066-0.066v-0.112c0-0.037,0.03-0.066,0.066-0.066h0.317h0.276h1.166
				c0.037,0,0.066,0.03,0.066,0.066v0.112c0,0.036-0.03,0.066-0.066,0.066h-1.166v0.515h0.632c0.036,0,0.066,0.03,0.066,0.066v0.112
				c0,0.036-0.03,0.066-0.066,0.066h-0.632v0.79h1.166c0.037,0,0.066,0.03,0.066,0.066v0.113c0,0.036-0.012,0.066-0.095,0.066h-1.68
				c-0.084,0-0.116-0.03-0.116-0.066v-0.113c0-0.036,0.03-0.066,0.066-0.066h0.317v-0.79H42.41z"/>
			<path fill="#D8371B" d="M43.372,124.315l-0.07,0.104c0,0-0.035,0.022-0.052,0.01c-0.294-0.209-0.381-0.425-0.403-0.633
				c0.062-0.007,0.15-0.034,0.199-0.048c0.021,0.183,0.1,0.363,0.316,0.516C43.378,124.276,43.383,124.298,43.372,124.315z"/>
			<path fill="#D8371B" d="M44.372,125.985l-0.081,0.122c-0.013,0.02-0.041,0.026-0.061,0.012c-0.463-0.324-0.489-0.667-0.484-0.982
				c0-0.032,0-0.064,0-0.098v-0.828c0-0.024,0.019-0.043,0.043-0.043h0.147c0.024,0,0.043,0.019,0.043,0.043v0.828
				c0,0.034,0.001,0.068,0,0.101c-0.005,0.297,0.054,0.558,0.38,0.785C44.38,125.939,44.385,125.965,44.372,125.985z"/>
			<path fill="#D8371B" d="M44.35,119.822h-5.235c-0.074,0-0.133-0.079-0.133-0.177c0-0.098,0.059-0.177,0.133-0.177h5.235
				c0.074,0,0.133,0.079,0.133,0.177C44.483,119.743,44.424,119.822,44.35,119.822z"/>
		</g>
	</g>
	<g>
		<path fill="#FFD13F" d="M84.916,59.063c0-0.499,0.409-0.908,0.908-0.908h108.932c0.5,0,0.908,0.409,0.908,0.908v26.229
			c0,0.5-0.409,0.908-0.908,0.908H85.824c-0.499,0-0.908-0.409-0.908-0.908V59.063z"/>
		<path fill="#D13239" d="M194.756,86.578H85.824c-0.71,0-1.287-0.577-1.287-1.287V59.063c0-0.709,0.577-1.286,1.287-1.286h108.932
			c0.709,0,1.286,0.577,1.286,1.286v26.229C196.043,86.001,195.466,86.578,194.756,86.578 M85.824,58.533
			c-0.292,0-0.53,0.237-0.53,0.53v26.229c0,0.292,0.238,0.53,0.53,0.53h108.932c0.292,0,0.529-0.238,0.529-0.53V59.063
			c0-0.292-0.237-0.53-0.529-0.53H85.824z"/>
		<polygon fill="#D13239" points="95.121,73.204 95.121,67.556 96.006,67.556 96.006,72.39 100.2,72.39 100.2,73.204 		"/>
		<path fill="#D13239" d="M101.047,73.204l2.87-5.647h0.556l2.897,5.647h-0.945l-0.736-1.434h-2.979l-0.729,1.434H101.047z
			 M103.09,71.022h2.216l-1.101-2.163L103.09,71.022z"/>
		<path fill="#D13239" d="M112.391,73.204v-5.634h3.474c1.164,0,1.745,0.464,1.745,1.396c0,0.471-0.181,0.819-0.543,1.044
			c0.632,0.358,0.947,0.858,0.947,1.502c0,0.524-0.176,0.937-0.526,1.24c-0.351,0.301-0.834,0.451-1.453,0.451H112.391z
			 M115.844,68.384h-2.566v1.328h2.58c0.57,0,0.854-0.222,0.854-0.666C116.711,68.603,116.423,68.384,115.844,68.384
			 M116.141,70.538h-2.863v1.852h2.863c0.649,0,0.974-0.31,0.974-0.932C117.115,70.845,116.79,70.538,116.141,70.538"/>
		<path fill="#D13239" d="M122.718,73.382c-1.001,0-1.827-0.283-2.478-0.849c-0.65-0.566-0.975-1.283-0.975-2.146
			c0-0.865,0.322-1.578,0.968-2.141c0.646-0.562,1.475-0.844,2.485-0.844c1.019,0,1.85,0.281,2.496,0.841
			c0.647,0.56,0.969,1.274,0.969,2.143c0,0.868-0.326,1.584-0.975,2.151C124.557,73.101,123.728,73.382,122.718,73.382
			 M122.718,72.556c0.751,0,1.366-0.203,1.846-0.612c0.48-0.406,0.72-0.927,0.72-1.557c0-0.628-0.242-1.145-0.723-1.554
			c-0.482-0.411-1.097-0.617-1.843-0.617c-0.748,0-1.36,0.204-1.838,0.614c-0.477,0.406-0.716,0.925-0.716,1.557
			c0,0.63,0.239,1.151,0.716,1.557C121.358,72.353,121.97,72.556,122.718,72.556"/>
		<polygon fill="#D13239" points="127.361,73.204 127.361,67.556 127.823,67.556 131.416,71.529 131.416,67.556 132.283,67.556 
			132.283,73.204 131.819,73.204 128.235,69.249 128.235,73.204 		"/>
		<path fill="#D13239" d="M134.227,73.204v-5.634h3.472c1.165,0,1.747,0.464,1.747,1.396c0,0.471-0.181,0.819-0.543,1.044
			c0.63,0.358,0.946,0.858,0.946,1.502c0,0.524-0.175,0.937-0.526,1.24c-0.35,0.301-0.835,0.451-1.452,0.451H134.227z
			 M137.679,68.384h-2.565v1.328h2.578c0.57,0,0.854-0.222,0.854-0.666C138.546,68.603,138.257,68.384,137.679,68.384
			 M137.977,70.538h-2.863v1.852h2.863c0.648,0,0.974-0.31,0.974-0.932C138.95,70.845,138.625,70.538,137.977,70.538"/>
		<path fill="#D13239" d="M144.284,73.382c-1,0-1.827-0.283-2.477-0.849c-0.651-0.566-0.976-1.283-0.976-2.146
			c0-0.865,0.324-1.578,0.97-2.141c0.645-0.562,1.473-0.844,2.483-0.844c1.019,0,1.852,0.281,2.497,0.841
			c0.646,0.56,0.969,1.274,0.969,2.143c0,0.868-0.326,1.584-0.976,2.151C146.124,73.101,145.294,73.382,144.284,73.382
			 M144.284,72.556c0.753,0,1.368-0.203,1.847-0.612c0.479-0.406,0.719-0.927,0.719-1.557c0-0.628-0.24-1.145-0.722-1.554
			c-0.482-0.411-1.097-0.617-1.844-0.617c-0.746,0-1.359,0.204-1.837,0.614c-0.479,0.406-0.717,0.925-0.717,1.557
			c0,0.63,0.238,1.151,0.717,1.557C142.925,72.353,143.538,72.556,144.284,72.556"/>
		<polygon fill="#D13239" points="149.199,73.204 149.199,67.556 149.662,67.556 153.253,71.529 153.253,67.556 154.12,67.556 
			154.12,73.204 153.656,73.204 150.072,69.249 150.072,73.204 		"/>
		<polygon fill="#D13239" points="156.065,73.204 156.065,67.556 156.528,67.556 160.12,71.529 160.12,67.556 160.986,67.556 
			160.986,73.204 160.523,73.204 156.938,69.249 156.938,73.204 		"/>
		<rect x="162.937" y="67.542" fill="#D13239" width="0.9" height="5.662"/>
		<polygon fill="#D13239" points="165.775,73.204 165.775,67.556 171.074,67.556 171.074,68.383 166.662,68.383 166.662,69.79 
			169.559,69.79 169.559,70.604 166.662,70.604 166.662,72.39 171.317,72.39 171.317,73.204 		"/>
		<path fill="#D13239" d="M173.474,70.737v2.467h-0.886v-5.636h3.889c0.577,0,1.029,0.14,1.356,0.419
			c0.325,0.277,0.489,0.662,0.489,1.156c0,0.401-0.129,0.749-0.386,1.044c-0.259,0.293-0.596,0.473-1.009,0.538l1.568,2.48h-0.956
			l-1.604-2.467H173.474z M173.474,69.91h3.007c0.628,0,0.942-0.255,0.942-0.767c0-0.507-0.314-0.759-0.942-0.759h-3.007V69.91z"/>
		<polygon fill="#D13239" points="179.917,73.204 179.917,67.556 185.214,67.556 185.214,68.383 180.802,68.383 180.802,69.79 
			183.699,69.79 183.699,70.604 180.802,70.604 180.802,72.39 185.459,72.39 185.459,73.204 		"/>
		<path fill="#D13239" d="M148.494,47.675c0-0.499-0.409-0.908-0.908-0.908h-14.592c-0.499,0-0.908,0.409-0.908,0.908v14.592
			c0,0.5,0.409,0.908,0.908,0.908h14.592c0.499,0,0.908-0.409,0.908-0.908V47.675z"/>
		<path fill="#FFFFFF" d="M136.549,58.934v-8.11h4.999c1.676,0,2.514,0.669,2.514,2.009c0,0.68-0.262,1.18-0.782,1.504
			c0.908,0.513,1.362,1.233,1.362,2.161c0,0.757-0.252,1.352-0.756,1.785c-0.506,0.434-1.202,0.651-2.091,0.651H136.549z
			 M141.517,51.994h-3.692v1.914h3.711c0.821,0,1.231-0.322,1.231-0.963C142.766,52.313,142.349,51.994,141.517,51.994
			 M141.944,55.1h-4.12v2.665h4.12c0.936,0,1.404-0.446,1.404-1.343C143.348,55.539,142.88,55.1,141.944,55.1"/>
		<path fill="#D13239" d="M119.416,79.582c-0.132,0.246-0.308,0.433-0.529,0.563c-0.221,0.13-0.474,0.195-0.758,0.195
			c-0.207,0-0.4-0.036-0.578-0.109c-0.178-0.073-0.332-0.174-0.459-0.303c-0.128-0.13-0.229-0.284-0.301-0.462
			c-0.073-0.178-0.109-0.375-0.109-0.589c0-0.211,0.036-0.407,0.109-0.587c0.073-0.18,0.173-0.336,0.301-0.467
			c0.128-0.131,0.281-0.234,0.459-0.306c0.178-0.073,0.371-0.109,0.578-0.109c0.259,0,0.496,0.057,0.709,0.171
			c0.213,0.114,0.385,0.275,0.516,0.483l-0.291,0.208c-0.09-0.17-0.217-0.301-0.381-0.394c-0.164-0.093-0.349-0.14-0.553-0.14
			c-0.156,0-0.3,0.028-0.433,0.086c-0.133,0.057-0.249,0.136-0.345,0.236c-0.097,0.101-0.173,0.221-0.228,0.361
			c-0.055,0.14-0.083,0.293-0.083,0.459c0,0.166,0.028,0.318,0.083,0.457c0.055,0.139,0.132,0.259,0.228,0.361
			c0.097,0.102,0.212,0.181,0.345,0.237c0.133,0.055,0.278,0.083,0.433,0.083c0.218,0,0.413-0.054,0.584-0.161
			c0.171-0.107,0.312-0.267,0.423-0.478L119.416,79.582z"/>
		<path fill="#D13239" d="M121.404,77.47h0.291l1.386,2.798h-0.379l-0.379-0.753h-1.546l-0.369,0.753h-0.374L121.404,77.47z
			 M122.167,79.188l-0.618-1.24l-0.612,1.24H122.167z"/>
		<polygon fill="#D13239" points="123.921,77.47 126.121,77.47 126.121,77.792 124.269,77.792 124.269,78.612 125.39,78.612 
			125.39,78.933 124.269,78.933 124.269,80.267 123.921,80.267 		"/>
		<path fill="#D13239" d="M126.905,77.47h2.2v0.322h-1.853v0.82h1.121v0.322h-1.121v1.012h1.967v0.322h-2.315V77.47z M127.73,77.127
			l0.529-0.888h0.384l-0.68,0.888H127.73z"/>
		<path fill="#D13239" d="M132.282,77.47h1.604c0.277,0,0.492,0.069,0.646,0.205c0.154,0.137,0.231,0.328,0.231,0.574
			c0,0.1-0.016,0.194-0.047,0.28c-0.031,0.086-0.075,0.164-0.132,0.233c-0.057,0.069-0.126,0.128-0.207,0.176
			c-0.081,0.049-0.174,0.081-0.278,0.099l0.701,1.23h-0.384l-0.701-1.225h-1.085v1.225h-0.348V77.47z M133.865,78.715
			c0.356,0,0.535-0.152,0.535-0.457c0-0.145-0.044-0.259-0.132-0.342c-0.088-0.083-0.217-0.125-0.387-0.125h-1.251v0.924H133.865z"
			/>
		<polygon fill="#D13239" points="135.811,77.47 138.011,77.47 138.011,77.792 136.159,77.792 136.159,78.612 137.28,78.612 
			137.28,78.933 136.159,78.933 136.159,79.946 138.126,79.946 138.126,80.267 135.811,80.267 		"/>
		<path fill="#D13239" d="M138.997,79.546c0.2,0.156,0.407,0.273,0.62,0.353c0.213,0.079,0.423,0.119,0.631,0.119
			c0.135,0,0.256-0.015,0.363-0.044c0.107-0.029,0.198-0.071,0.272-0.125c0.075-0.053,0.132-0.116,0.174-0.187
			c0.042-0.071,0.062-0.148,0.062-0.231c0-0.128-0.055-0.239-0.164-0.332c-0.109-0.093-0.272-0.149-0.491-0.166
			c-0.121-0.01-0.234-0.019-0.34-0.026c-0.105-0.007-0.207-0.015-0.304-0.026c-0.097-0.01-0.188-0.025-0.272-0.044
			c-0.085-0.019-0.164-0.046-0.236-0.08c-0.266-0.128-0.4-0.32-0.4-0.576c0-0.107,0.025-0.208,0.075-0.301
			c0.05-0.093,0.123-0.175,0.218-0.246c0.095-0.071,0.209-0.126,0.342-0.166c0.133-0.04,0.283-0.06,0.449-0.06
			c0.239,0,0.471,0.039,0.695,0.117c0.225,0.078,0.439,0.191,0.643,0.34l-0.202,0.291c-0.35-0.28-0.727-0.42-1.132-0.42
			c-0.221,0-0.398,0.042-0.529,0.127c-0.132,0.085-0.197,0.186-0.197,0.304c0,0.097,0.045,0.18,0.135,0.249
			c0.059,0.045,0.128,0.078,0.208,0.099c0.08,0.021,0.168,0.036,0.265,0.047c0.097,0.011,0.202,0.018,0.316,0.023
			c0.114,0.005,0.236,0.015,0.363,0.029c0.294,0.035,0.522,0.128,0.683,0.28c0.161,0.152,0.241,0.336,0.241,0.55
			c0,0.121-0.028,0.236-0.083,0.345c-0.055,0.109-0.135,0.204-0.239,0.285c-0.104,0.082-0.233,0.146-0.387,0.195
			c-0.154,0.049-0.329,0.073-0.527,0.073c-0.277,0-0.535-0.04-0.773-0.119c-0.239-0.079-0.467-0.204-0.685-0.374L138.997,79.546z"/>
		<polygon fill="#D13239" points="143.061,77.792 141.883,77.792 141.883,77.47 144.587,77.47 144.587,77.792 143.409,77.792 
			143.409,80.267 143.061,80.267 		"/>
		<path fill="#D13239" d="M145.811,77.47h0.291l1.386,2.798h-0.379l-0.379-0.753h-1.546l-0.369,0.753h-0.374L145.811,77.47z
			 M146.574,79.188l-0.618-1.24l-0.612,1.24H146.574z"/>
		<path fill="#D13239" d="M148.505,79.281c0,0.145,0.012,0.266,0.036,0.361c0.024,0.095,0.067,0.169,0.127,0.223
			c0.06,0.054,0.143,0.092,0.246,0.114c0.104,0.023,0.235,0.034,0.394,0.034c0.159,0,0.291-0.011,0.395-0.034
			c0.104-0.022,0.186-0.06,0.246-0.114c0.061-0.054,0.103-0.128,0.127-0.223c0.024-0.095,0.036-0.216,0.036-0.361V77.47h0.348v1.905
			c0,0.343-0.089,0.589-0.267,0.74c-0.178,0.15-0.473,0.226-0.885,0.226c-0.412,0-0.707-0.075-0.885-0.226
			c-0.178-0.15-0.267-0.397-0.267-0.74V77.47h0.348V79.281z"/>
		<path fill="#D13239" d="M151.635,77.47h1.604c0.277,0,0.492,0.069,0.646,0.205c0.154,0.137,0.231,0.328,0.231,0.574
			c0,0.1-0.016,0.194-0.047,0.28c-0.031,0.086-0.075,0.164-0.132,0.233c-0.057,0.069-0.126,0.128-0.207,0.176
			c-0.081,0.049-0.174,0.081-0.278,0.099l0.701,1.23h-0.384l-0.701-1.225h-1.085v1.225h-0.348V77.47z M153.217,78.715
			c0.356,0,0.535-0.152,0.535-0.457c0-0.145-0.044-0.259-0.133-0.342c-0.088-0.083-0.217-0.125-0.386-0.125h-1.251v0.924H153.217z"
			/>
		<path fill="#D13239" d="M155.921,77.47h0.291l1.386,2.798h-0.379l-0.379-0.753h-1.547l-0.368,0.753h-0.374L155.921,77.47z
			 M156.684,79.188l-0.618-1.24l-0.613,1.24H156.684z"/>
		<polygon fill="#D13239" points="158.438,77.47 158.62,77.47 160.436,79.561 160.436,77.47 160.784,77.47 160.784,80.267 
			160.608,80.267 158.786,78.176 158.786,80.267 158.438,80.267 		"/>
		<polygon fill="#D13239" points="162.523,77.792 161.345,77.792 161.345,77.47 164.049,77.47 164.049,77.792 162.871,77.792 
			162.871,80.267 162.523,80.267 		"/>
		<path fill="#D13239" d="M112.61,78.749c0.096,0.039,0.194,0.076,0.291,0.105c0.097,0.029,0.192,0.059,0.286,0.078
			c0.094,0.021,0.185,0.037,0.273,0.046c0.088,0.01,0.171,0.012,0.248,0.013c0.076-0.006,0.149-0.002,0.212-0.015
			c0.062-0.011,0.12-0.013,0.164-0.027c0.092-0.021,0.145-0.033,0.145-0.033s-0.047,0.028-0.129,0.076
			c-0.041,0.027-0.096,0.045-0.159,0.07c-0.062,0.028-0.137,0.042-0.219,0.062c-0.082,0.014-0.173,0.028-0.269,0.028
			c-0.096,0.002-0.198-0.001-0.301-0.017c-0.104-0.015-0.21-0.033-0.315-0.064c-0.105-0.029-0.21-0.064-0.313-0.104
			c-0.018-0.008-0.036-0.017-0.054-0.025c0.985,0.546,1.991,0.623,2.926-0.192c-0.681-1.076-2.089-0.03-3.432-0.292
			C112.167,78.557,112.386,78.661,112.61,78.749"/>
		<path fill="#D13239" d="M168.015,78.749c-0.097,0.039-0.193,0.076-0.291,0.105c-0.097,0.029-0.193,0.059-0.286,0.078
			c-0.094,0.021-0.185,0.037-0.273,0.046c-0.087,0.01-0.171,0.012-0.248,0.013c-0.076-0.006-0.15-0.002-0.212-0.015
			c-0.062-0.011-0.12-0.013-0.164-0.027c-0.092-0.021-0.145-0.033-0.145-0.033s0.047,0.028,0.129,0.076
			c0.041,0.027,0.096,0.045,0.159,0.07c0.062,0.028,0.137,0.042,0.219,0.062c0.082,0.014,0.173,0.028,0.269,0.028
			c0.096,0.002,0.198-0.001,0.302-0.017c0.103-0.015,0.21-0.033,0.315-0.064c0.105-0.029,0.21-0.064,0.313-0.104
			c0.018-0.008,0.036-0.017,0.054-0.025c-0.985,0.546-1.991,0.623-2.926-0.192c0.681-1.076,2.089-0.03,3.432-0.292
			C168.458,78.557,168.24,78.661,168.015,78.749"/>
	</g>
</g>
<g>
</g>
<g>
</g>
<g>
</g>
<g>
</g>
<g>
</g>
<g>
</g>
<g>
</g>
<g>
</g>
<g>
</g>
<g>
</g>
<g>
</g>
<g>
</g>
<g>
</g>
<g>
</g>
<g>
</g>
</svg>
