<?xml version="1.0" encoding="utf-8"?>
<!-- Generator: Adobe Illustrator 17.0.0, SVG Export Plug-In . SVG Version: 6.00 Build 0)  -->
<!DOCTYPE svg PUBLIC "-//W3C//DTD SVG 1.1//EN" "http://www.w3.org/Graphics/SVG/1.1/DTD/svg11.dtd">
<svg version="1.1" id="Layer_1" xmlns="http://www.w3.org/2000/svg" xmlns:xlink="http://www.w3.org/1999/xlink" x="0px" y="0px"
	 width="408.869px" height="55.009px" viewBox="0 0 408.869 55.009" enable-background="new 0 0 408.869 55.009"
	 xml:space="preserve">
<g>
	<g>
		<rect x="118.984" y="13.784" width="145.275" height="27.441"/>
		<g>
			<path fill="#FFFFFF" d="M139.183,19.578h3.744c1.743,0,3.395,1.511,3.395,3.813c0,1.766-0.928,3.046-2.162,3.416
				c2.115,0.487,2.744,2.535,2.744,4.186c0,2.37-1.305,4.485-3.767,4.485h-3.838l1.211-1.139V20.787L139.183,19.578z
				 M142.184,20.646v5.697h0.604c1.721,0,1.812-1.258,1.812-2.907c0-2.115-0.628-2.79-1.86-2.79H142.184z M142.206,27.388v7.02
				h0.721c2.092,0,2.209-1.255,2.209-3.415c0-2.231-0.302-3.605-2.301-3.605H142.206z"/>
			<path fill="#FFFFFF" d="M149.807,20.762l-1.395-1.184h4.021c1.441,0,3.185,1.349,3.185,3.952c0,1.905-0.859,2.952-1.998,3.441
				c0.302,0.139,0.443,0.232,0.698,0.487c1.533,1.536,0.416,6.254,1.79,7.672c0.116,0.116,0.302,0.28,0.418,0.349h-2.045
				c-0.652-0.906-0.815-1.861-0.815-3.278v-1.904c0-1.999-0.255-2.885-1.558-2.885h-0.629v6.859l1.35,1.208h-4.371l1.348-1.139
				V20.762z M152.292,26.343c1.188,0,1.607-0.814,1.607-2.86c0-1.649-0.233-2.882-1.907-2.882h-0.557v5.742H152.292z"/>
			<path fill="#FFFFFF" d="M157.244,19.578h4.462l-1.416,1.117v11.133c0,1.581,0.302,2.791,1.486,2.791
				c0.723,0,1.654-0.512,1.654-2.209V20.717l-1.233-1.139h3.717l-1.417,1.117v11.97c0,1.674-1.208,3.022-2.838,3.022
				c-2.811,0-3.02-2.673-3.02-4.229V20.717L157.244,19.578z"/>
			<path fill="#FFFFFF" d="M167.006,19.578h2.976l2.652,9.624l-0.094-8.507l-1.255-1.117h3.603l-1.28,1.139v14.761h-0.674
				l-3.509-12.552v11.388l1.394,1.164h-3.813l1.372-1.186V20.739L167.006,19.578z"/>
			<path fill="#FFFFFF" d="M183.302,28.247c0,2.142-0.698,7.419-3.442,7.419c-1.999,0-3.462-2.929-3.462-8.372
				c0-4.556,1.278-7.971,3.509-7.971c2.486,0,3.395,4.767,3.395,7.391V28.247z M181.442,26.597c0-0.836-0.139-5.065-1-5.927
				c-0.139-0.163-0.327-0.279-0.582-0.279c-0.233,0-0.463,0.139-0.533,0.21c-0.909,0.884-1.072,4.231-1.072,5.604v2.253
				c0,1.023,0.072,6.161,1.557,6.161c1.443,0,1.629-3.791,1.629-6.347V26.597z"/>
			<path fill="#FFFFFF" d="M190.159,19.601h7.228v5.231c-0.604-1.207-1.186-2.486-1.674-4.161h-2.466v6.232h1.28
				c0.233-0.697,0.839-2.048,1.231-2.767v6.579c-0.372-0.606-0.998-2.068-1.231-2.766h-1.256v6.367l1.466,1.164h-4.556l1.394-1.092
				V20.787L190.159,19.601z"/>
			<path fill="#FFFFFF" d="M198.942,19.578h6.975v5.209c-0.651-1.234-1.188-2.884-1.533-4.141h-2.444v5.72h1.093
				c0.349-0.79,0.77-1.556,1.257-2.441v6.138c-0.418-0.719-1.001-2.048-1.257-2.652h-1.068v6.953h2.602
				c0.231-0.976,0.812-3.022,1.674-4.65v5.765h-7.275l1.322-1.139V20.739L198.942,19.578z"/>
			<path fill="#FFFFFF" d="M209.122,20.762l-1.394-1.184h4.021c1.443,0,3.187,1.349,3.187,3.952c0,1.905-0.862,2.952-2.001,3.441
				c0.302,0.139,0.443,0.232,0.696,0.487c1.535,1.536,0.418,6.254,1.793,7.672c0.116,0.116,0.302,0.28,0.416,0.349h-2.046
				c-0.649-0.906-0.812-1.861-0.812-3.278v-1.904c0-1.999-0.255-2.885-1.558-2.885h-0.627v6.859l1.347,1.208h-4.37l1.347-1.139
				V20.762z M211.611,26.343c1.186,0,1.605-0.814,1.605-2.86c0-1.649-0.233-2.882-1.909-2.882h-0.555v5.742H211.611z"/>
			<path fill="#FFFFFF" d="M217.931,20.762l-1.392-1.184h4.019c1.443,0,3.187,1.349,3.187,3.952c0,1.905-0.862,2.952-1.999,3.441
				c0.302,0.139,0.441,0.232,0.699,0.487c1.533,1.536,0.416,6.254,1.788,7.672c0.116,0.116,0.304,0.28,0.418,0.349h-2.043
				c-0.653-0.906-0.816-1.861-0.816-3.278v-1.904c0-1.999-0.255-2.885-1.556-2.885h-0.629v6.859l1.347,1.208h-4.37l1.347-1.139
				V20.762z M220.419,26.343c1.186,0,1.607-0.814,1.607-2.86c0-1.649-0.235-2.882-1.907-2.882h-0.559v5.742H220.419z"/>
			<path fill="#FFFFFF" d="M225.416,19.578h4.418l-1.441,1.139v13.622l1.347,1.139h-4.487l1.51-1.231v-13.53L225.416,19.578z"/>
			<path fill="#FFFFFF" d="M230.763,19.578h2.974l2.652,9.624l-0.094-8.507l-1.253-1.117h3.601l-1.278,1.139v14.761h-0.673
				l-3.509-12.552v11.388l1.394,1.164h-3.813l1.371-1.186V20.739L230.763,19.578z"/>
			<path fill="#FFFFFF" d="M239.642,19.578h4.415l-1.441,1.139v13.622l1.349,1.139h-4.487l1.511-1.231v-13.53L239.642,19.578z"/>
		</g>
	</g>
	<g>
		<path fill-rule="evenodd" clip-rule="evenodd" fill="#1D1E1C" d="M331.895,26.28c0.399,0.22,0.907,0.331,1.499,0.331
			c0.602,0,1.086-0.111,1.503-0.331c0.424-0.201,0.623-0.464,0.623-0.753c0-0.309-0.199-0.549-0.623-0.752
			c-0.417-0.222-0.901-0.33-1.503-0.307c-0.593-0.022-1.083,0.085-1.499,0.307c-0.418,0.202-0.615,0.443-0.615,0.752
			C331.279,25.816,331.476,26.079,331.895,26.28L331.895,26.28z"/>
		<path fill-rule="evenodd" clip-rule="evenodd" fill="#1D1E1C" d="M362.068,26.255c0.399,0.2,0.908,0.311,1.504,0.311
			c0.574,0,1.083-0.11,1.5-0.311c0.423-0.22,0.621-0.465,0.621-0.751c0-0.309-0.197-0.572-0.621-0.771
			c-0.417-0.199-0.926-0.31-1.5-0.31c-0.596,0-1.081,0.112-1.504,0.31c-0.417,0.199-0.616,0.462-0.616,0.771
			C361.452,25.79,361.651,26.036,362.068,26.255L362.068,26.255z"/>
		<path fill-rule="evenodd" clip-rule="evenodd" fill="#1D1E1C" d="M400.967,32.13c0,0-25.713,0-25.873,0
			c-5.426-0.69-5.927-3.044-6.075-3.89v-0.007c-0.001-0.055-0.023-0.513-0.031-0.666c0.006-0.023,0.016-0.044,0.02-0.068
			c0.477-2.544,2.447-3.962,6.014-4.335c0.145,0,25.882,0,25.882,0c0.61,0,1.1-0.493,1.1-1.105c0-0.611-0.49-1.106-1.1-1.106
			h-25.959c-0.039,0-0.072,0.006-0.11,0.007c-5.766,0.59-7.533,3.654-7.993,6.123c-0.051,0.132-0.077,0.276-0.07,0.431l0.054,0.973
			c0,0.044,0,0.035,0.003,0.075c0.167,0.976,0.534,1.832,1.091,2.57l-4.899-2.725l-13.883-7.708
			c-0.347-0.284-0.847-0.342-1.259-0.102l-18.679,10.891v-9.782c0-0.609-0.495-1.104-1.107-1.104c-0.104,0-0.202,0.019-0.298,0.046
			c-0.151,0.004-0.303,0.038-0.447,0.108l-16.569,7.995c-0.078,0.038-0.148,0.086-0.213,0.139l-1.777,0.88l1.908,0.961
			c0.162,0.082,0.334,0.116,0.504,0.115c0.18,0.01,0.365-0.019,0.539-0.102l15.25-7.358v9.85c0,0.33,0.145,0.622,0.372,0.824
			c0.341,0.402,0.928,0.518,1.4,0.24l6.597-3.845c0,0,0.022,0.007,0.034,0.008l3.724-2.195h-0.006l9.322-5.432l9.791,5.432h-17.198
			l-3.784,2.209h24.962l7.169,3.993c0.533,0.295,1.207,0.104,1.501-0.429c0.116-0.208,0.155-0.437,0.13-0.658
			c1.087,0.446,2.378,0.763,3.871,0.949c0.044,0.005,0.087,0.011,0.136,0.011h25.953c0.61,0,1.105-0.493,1.105-1.107
			C402.073,32.625,401.577,32.13,400.967,32.13L400.967,32.13z"/>
		<path fill-rule="evenodd" clip-rule="evenodd" fill="#1D1E1C" d="M295.371,20.521c-0.543-0.277-1.209-0.056-1.483,0.487
			c-0.076,0.15-0.111,0.307-0.116,0.464c-0.027,0.097-0.047,0.197-0.047,0.303v11.527c0,0.612,0.493,1.107,1.105,1.107
			c0.608,0,1.104-0.496,1.104-1.107V23.282l11.795,5.952l2.48-1.221L295.371,20.521L295.371,20.521z"/>
	</g>
	<g>
		<path fill="#1D1D1B" d="M9.367,45.554c0-0.624,0.377-1.046,2.614-1.046c1.481,0,3.02,0.044,4.923,0.639v-2.164
			c-0.944-0.276-2.469-0.523-4.865-0.523c-4.067,0-5.243,1.235-5.243,3.108c0,2.28,1.699,2.875,5.185,3.253
			c1.917,0.203,2.89,0.247,2.89,0.973c0,0.653-0.494,0.944-2.672,0.958c-1.539,0-3.369-0.174-5.083-0.784v2.294
			c1.786,0.465,3.239,0.61,5.112,0.61c3.064,0,5.228-0.61,5.228-3.151c0-2.411-1.743-2.73-5.112-3.093
			C10.703,46.454,9.367,46.338,9.367,45.554 M26.183,48.981c0,1.466-1.263,1.771-3.049,1.771c-2.077,0-2.483-0.392-2.483-0.987
			c0-0.639,0.668-0.77,2.353-1.017c1.38-0.189,2.846-0.523,3.18-0.871V48.981z M28.479,49.445v-3.63
			c0-3.006-2.629-3.427-5.083-3.427c-1.205,0-2.934,0.261-4.328,0.596v2.149c1.743-0.348,3.326-0.566,4.328-0.566
			c1.118,0,2.556,0.073,2.556,0.886c0,0.696-0.857,0.929-2.556,1.147c-3.064,0.407-5.271,0.799-5.271,3.166
			c0,2.44,1.917,3.137,5.271,3.137C27.157,52.902,28.479,51.58,28.479,49.445 M33.942,52.731c0.842,0,1.917-0.028,2.691-0.142
			l-0.337-2.02c-0.64,0.073-1.599,0.117-2.34,0.117c-1.323,0-2.224-0.538-2.224-1.541v-6.613h-2.296v6.802
			c0,2.805,2.471,3.401,4.506,3.401V52.731z M45.018,47.732c-0.015,0.421-0.044,0.813-0.087,1.191
			c-0.16,1.22-0.886,1.815-2.222,1.815h-1.234c-1.336,0-2.063-0.596-2.222-1.815c-0.044-0.377-0.073-0.769-0.087-1.191
			c0.014-0.436,0.043-0.828,0.087-1.191c0.159-1.234,0.886-1.83,2.222-1.83h1.234c1.336,0,2.063,0.596,2.222,1.83
			C44.974,46.904,45.003,47.296,45.018,47.732 M47.182,49.867c0.116-0.61,0.16-1.278,0.174-1.975v-0.16v-0.16
			c-0.015-0.711-0.058-1.38-0.174-1.975c-0.305-2.106-1.772-3.137-4.473-3.137h-1.234c-2.702,0-4.168,1.031-4.473,3.137
			c-0.116,0.595-0.16,1.264-0.174,1.975v0.16v0.16c0.015,0.697,0.058,1.365,0.174,1.975c0.305,2.091,1.771,3.122,4.473,3.122h1.234
			C45.41,52.989,46.877,51.958,47.182,49.867 M63.418,52.655h2.338v-4.763c0-0.813-0.043-1.583-0.174-2.294
			c-0.305-2.091-1.772-3.122-4.472-3.122h-0.654c-1.569,0-2.731,0.348-3.486,1.06c-0.74-0.712-1.903-1.06-3.471-1.06h-0.654
			c-2.701,0-4.168,1.031-4.473,3.122c-0.131,0.712-0.174,1.481-0.174,2.294v4.763h2.339v-4.763c0-0.479,0.043-0.929,0.101-1.351
			c0.145-1.22,0.871-1.815,2.207-1.815h0.654c1.336,0,2.062,0.595,2.222,1.815c0.058,0.421,0.087,0.871,0.087,1.351v4.763h2.338
			v-4.763c0-0.479,0.029-0.929,0.087-1.351c0.16-1.22,0.886-1.815,2.222-1.815h0.654c1.336,0,2.062,0.595,2.207,1.815
			c0.073,0.421,0.102,0.871,0.102,1.351V52.655z M74.891,47.732c0,0.421-0.028,0.813-0.087,1.191
			c-0.145,1.22-0.886,1.815-2.222,1.815h-1.219c-1.336,0-2.077-0.596-2.222-1.815c-0.058-0.377-0.087-0.769-0.087-1.191
			c0-0.436,0.029-0.828,0.087-1.191c0.145-1.234,0.885-1.83,2.222-1.83h1.219c1.337,0,2.077,0.596,2.222,1.83
			C74.862,46.904,74.891,47.296,74.891,47.732 M77.069,49.867c0.102-0.61,0.145-1.278,0.16-1.975v-0.16v-0.16
			c-0.014-0.711-0.058-1.38-0.16-1.975c-0.305-2.106-1.786-3.137-4.488-3.137h-1.219c-2.716,0-4.183,1.031-4.488,3.137
			c-0.102,0.595-0.16,1.264-0.16,1.975v0.16v0.16c0,0.697,0.058,1.365,0.16,1.975c0.305,2.091,1.772,3.122,4.488,3.122h1.219
			C75.283,52.989,76.764,51.958,77.069,49.867 M88.426,52.641v-4.749c0-0.828-0.058-1.598-0.174-2.294
			c-0.305-2.106-1.772-3.137-4.472-3.137H82.69c-2.702,0-4.182,1.031-4.487,3.137c-0.116,0.697-0.16,1.466-0.16,2.294v4.749h2.338
			v-4.749c0-0.494,0.029-0.944,0.087-1.351c0.16-1.234,0.886-1.83,2.222-1.83h1.089c1.335,0,2.062,0.596,2.207,1.83
			c0.059,0.407,0.087,0.857,0.087,1.351v4.749H88.426z"/>
		<path fill="#12100B" d="M62.064,2.02c1.849,0,3.348,1.499,3.348,3.349v29.267c0,1.849-1.499,3.348-3.348,3.348H32.797
			c-1.849,0-3.349-1.499-3.349-3.348V5.369c0-1.85,1.499-3.349,3.349-3.349H62.064 M44.83,28.764c-0.339,0-0.781-0.13-1.246-0.388
			l-2.879-1.62c-0.425-0.239-0.889-0.395-1.259-0.395h-3.711c-0.366,0-0.662,0.297-0.662,0.662v3.787
			c0,0.73,0.611,1.296,1.319,1.382c7.396,0.719,14.677,0.719,22.073,0c0.73-0.076,1.324-0.658,1.324-1.39v-6.299
			c0-1.039-0.579-2.027-1.432-2.507l-14.917-8.39c-0.352-0.182-0.584-0.627-0.584-1.078c0-0.711,0.452-1.287,1.163-1.287h6.012
			c0.339,0,0.781,0.129,1.246,0.388l2.879,1.62c0.425,0.239,0.89,0.396,1.259,0.396h3.711c0.366,0,0.662-0.297,0.662-0.662V9.195
			c0-0.73-0.611-1.296-1.319-1.381c-7.396-0.719-14.678-0.719-22.074,0c-0.73,0.076-1.324,0.658-1.324,1.39v6.299
			c0,1.039,0.579,2.027,1.432,2.507l14.918,8.39c0.352,0.182,0.584,0.627,0.584,1.078c0,0.711-0.452,1.287-1.163,1.287H44.83z"/>
	</g>
</g>
<g>
</g>
<g>
</g>
<g>
</g>
<g>
</g>
<g>
</g>
<g>
</g>
<g>
</g>
<g>
</g>
<g>
</g>
<g>
</g>
<g>
</g>
<g>
</g>
<g>
</g>
<g>
</g>
<g>
</g>
</svg>
