<?xml version="1.0" encoding="utf-8"?>
<!-- Generator: Adobe Illustrator 17.0.0, SVG Export Plug-In . SVG Version: 6.00 Build 0)  -->
<!DOCTYPE svg PUBLIC "-//W3C//DTD SVG 1.1//EN" "http://www.w3.org/Graphics/SVG/1.1/DTD/svg11.dtd">
<svg version="1.1" id="Layer_1" xmlns="http://www.w3.org/2000/svg" xmlns:xlink="http://www.w3.org/1999/xlink" x="0px" y="0px"
	 width="424.488px" height="33.034px" viewBox="0 0 424.488 33.034" enable-background="new 0 0 424.488 33.034"
	 xml:space="preserve">
<g>
	<g>
		<path fill="#1D1D1B" d="M363.76,23.644V9.587V9.388h2.405v11.885h11.673v2.372H363.76L363.76,23.644z"/>
	</g>
	<g>
		<path fill="#1D1D1B" d="M390.195,9.392c7.183-0.016,9.45,4.092,9.455,7.135l0,0c0,0,0,0.018,0,0.038l0,0
			c0.001,1.614-0.61,3.395-2.185,4.764l0,0c-1.575,1.369-4.094,2.315-7.885,2.314l0,0h-0.002h-0.001h-8.803V9.392H390.195z
			 M389.698,21.268c5.615-0.019,7.513-2.349,7.522-4.718l0,0c0-0.017,0.001-0.028,0.001-0.028v-0.003
			c-0.029-2.273-1.765-4.734-7.023-4.752l0,0h-7.035v9.501H389.698z"/>
	</g>
	<g>
		<path fill="#1D1D1B" d="M412.463,9.069c3.415,0,5.954,0.92,7.643,2.317l0,0c1.688,1.396,2.518,3.268,2.517,5.132l0,0
			c0.001,1.863-0.829,3.736-2.517,5.132l0,0c-1.688,1.396-4.226,2.317-7.64,2.316l0,0h-0.003l0,0
			c-3.415,0.001-5.954-0.919-7.643-2.316l0,0c-1.688-1.396-2.518-3.269-2.517-5.132l0,0c-0.001-1.864,0.829-3.736,2.517-5.132l0,0
			C406.508,9.989,409.047,9.069,412.463,9.069L412.463,9.069z M412.463,21.577c5.279-0.01,7.74-2.539,7.747-5.06l0,0
			c-0.001-1.293-0.629-2.543-1.911-3.489l0,0c-1.282-0.943-3.227-1.571-5.836-1.571l0,0c-5.279,0.009-7.739,2.54-7.747,5.06l0,0
			C404.724,19.039,407.184,21.568,412.463,21.577L412.463,21.577z M418.555,20.307L418.555,20.307"/>
	</g>
	<g>
		<path fill="#1D1D1B" d="M343.015,23.64l9.309-14.536l9.291,14.531h-2.691l-2.301-3.44h-8.651l-2.261,3.445H343.015z
			 M355.17,17.828l-2.856-4.466l-2.908,4.466H355.17L355.17,17.828z"/>
	</g>
</g>
<g>
	<path fill="#1D1D1B" d="M238.078,19.408c0,2.44-1.993,4.414-4.417,4.414c-2.441,0-4.415-1.974-4.415-4.414
		c0-2.442,1.974-4.417,4.415-4.417C236.085,14.991,238.078,16.966,238.078,19.408 M300.505,18.204l-0.035-0.017h-8.473v0.017
		c0.521-1.866,2.227-3.23,4.255-3.23C298.262,14.974,299.984,16.338,300.505,18.204 M227.65,23.122l-0.934-0.988
		c-1.256,1.005-2.835,1.599-4.576,1.599c-4.057,0-7.342-3.357-7.342-7.414c0-4.074,3.285-7.431,7.342-7.431
		c1.741,0,3.321,0.593,4.576,1.598l0.934-0.987c-1.508-1.221-3.412-1.956-5.511-1.956c-4.811,0-8.706,3.966-8.706,8.776
		c0,4.793,3.894,8.76,8.706,8.76C224.239,25.079,226.142,24.343,227.65,23.122 M239.442,24.792V14.094h-1.292v1.885h0.019
		c-1.041-1.364-2.675-2.226-4.507-2.226c-3.139,0-5.67,2.531-5.67,5.655c0,3.14,2.531,5.671,5.67,5.671
		c1.832,0,3.447-0.879,4.488-2.226v0.037v1.902H239.442z M243.14,7.633h-1.292v17.177h1.292V7.633z M254.951,14.076h-1.437
		l-3.804,8.364l-3.823-8.364h-1.454l5.278,11.415L254.951,14.076z M257.911,14.076h-1.291v10.716h1.291V14.076z M268.842,24.792
		v-6.766c0-2.369-1.92-4.29-4.289-4.29c-1.184,0-2.37,0.449-3.033,1.383v-1.042h-1.293v10.716h1.293v-6.766
		c0-1.867,1.364-3.051,3.033-3.051c1.688,0,2.997,1.364,2.997,3.051v6.766H268.842z M258.092,8.404c0-0.431-0.358-0.79-0.79-0.79
		c-0.449,0-0.79,0.359-0.79,0.79c0,0.448,0.341,0.79,0.79,0.79C257.733,9.194,258.092,8.853,258.092,8.404 M283.704,24.809h1.561
		l-6.784-9.729l6.856-7.43h-1.759l-7.18,7.791V7.633h-1.292v17.176h1.292v-7.466v0.019l1.185-1.311 M288.533,7.633h-1.292v17.177
		h1.292V7.633z M301.904,19.497L301.904,19.497v-0.089c0-3.142-2.529-5.673-5.652-5.673c-3.141,0-5.671,2.53-5.671,5.673
		c0,3.122,2.53,5.653,5.671,5.653c2.226,0,4.164-1.293,5.079-3.177l-1.13-0.521c-0.719,1.454-2.227,2.441-3.949,2.441
		c-2.407,0-4.38-1.92-4.415-4.307h0.018H301.904z M305.225,14.076h-1.292v10.716h1.292V14.076z M316.265,24.792v-6.766
		c0-2.369-1.922-4.29-4.291-4.29c-1.184,0-2.369,0.449-3.051,1.383l0.019-1.042h-1.294v10.716h1.294v-6.766
		c0-1.867,1.345-3.051,3.033-3.051c1.688,0,2.998,1.364,2.998,3.051v6.766H316.265z M305.387,8.404c0-0.431-0.341-0.79-0.79-0.79
		c-0.431,0-0.789,0.359-0.789,0.79c0,0.448,0.358,0.79,0.789,0.79C305.046,9.194,305.387,8.853,305.387,8.404"/>
</g>
<g>
	<rect x="129.076" y="2.483" fill="#675446" width="61.263" height="28.069"/>
	<g>
		<g>
			<g>
				<path fill="#FFFDF6" d="M144.02,21.381c0,0.271-0.013,0.497-0.039,0.679c-0.026,0.182-0.065,0.329-0.117,0.441
					c-0.052,0.112-0.117,0.194-0.196,0.245c-0.078,0.052-0.164,0.077-0.258,0.077h-10.172c-0.344,0-0.634-0.091-0.869-0.273
					c-0.235-0.182-0.352-0.478-0.352-0.889V5.866c0-0.411,0.118-0.707,0.352-0.889c0.235-0.182,0.524-0.273,0.869-0.273h10.109
					c0.094,0,0.177,0.023,0.251,0.07c0.073,0.047,0.135,0.129,0.188,0.245c0.052,0.117,0.091,0.266,0.117,0.448
					c0.026,0.182,0.039,0.413,0.039,0.693c0,0.262-0.013,0.483-0.039,0.665c-0.026,0.182-0.065,0.329-0.117,0.441
					c-0.052,0.112-0.115,0.194-0.188,0.245c-0.073,0.051-0.157,0.077-0.251,0.077h-7.23v4.425h6.119c0.094,0,0.18,0.026,0.258,0.077
					c0.078,0.051,0.143,0.131,0.196,0.238c0.052,0.107,0.091,0.252,0.117,0.434c0.026,0.182,0.039,0.404,0.039,0.665
					c0,0.271-0.013,0.495-0.039,0.672c-0.026,0.177-0.065,0.32-0.117,0.427c-0.052,0.107-0.117,0.184-0.196,0.231
					c-0.078,0.047-0.164,0.07-0.258,0.07h-6.119v5.111h7.293c0.094,0,0.18,0.026,0.258,0.077c0.078,0.051,0.143,0.133,0.196,0.245
					c0.052,0.112,0.091,0.259,0.117,0.441C144.007,20.884,144.02,21.11,144.02,21.381z"/>
				<path fill="#FFFDF6" d="M162.079,21.437c0.188,0.327,0.31,0.588,0.368,0.784c0.057,0.196,0.023,0.346-0.102,0.448
					c-0.125,0.103-0.352,0.168-0.681,0.196c-0.328,0.028-0.785,0.042-1.369,0.042c-0.49,0-0.876-0.01-1.158-0.028
					c-0.282-0.019-0.503-0.049-0.665-0.091c-0.162-0.042-0.279-0.1-0.352-0.175c-0.073-0.075-0.136-0.168-0.188-0.28l-3.803-6.539
					l-3.787,6.539c-0.062,0.112-0.13,0.205-0.203,0.28c-0.073,0.075-0.191,0.133-0.352,0.175c-0.162,0.042-0.386,0.072-0.673,0.091
					c-0.287,0.018-0.665,0.028-1.135,0.028c-0.543,0-0.962-0.014-1.26-0.042c-0.297-0.028-0.498-0.093-0.602-0.196
					c-0.105-0.103-0.125-0.252-0.063-0.448c0.063-0.196,0.193-0.457,0.391-0.784l4.851-7.912L146.79,6.09
					c-0.188-0.336-0.316-0.604-0.383-0.805c-0.068-0.201-0.042-0.35,0.078-0.448c0.12-0.098,0.342-0.159,0.665-0.182
					c0.323-0.023,0.782-0.035,1.377-0.035c0.49,0,0.879,0.009,1.166,0.028c0.287,0.019,0.514,0.049,0.681,0.091
					c0.167,0.042,0.284,0.1,0.352,0.175c0.068,0.075,0.133,0.168,0.196,0.28l3.552,5.993l3.458-5.993
					c0.062-0.112,0.127-0.205,0.195-0.28c0.068-0.075,0.177-0.133,0.329-0.175c0.151-0.042,0.36-0.072,0.626-0.091
					c0.266-0.019,0.634-0.028,1.103-0.028c0.522,0,0.933,0.012,1.236,0.035c0.303,0.023,0.511,0.086,0.626,0.189
					c0.115,0.103,0.143,0.252,0.086,0.448c-0.057,0.196-0.175,0.462-0.352,0.798l-4.507,7.393L162.079,21.437z"/>
				<path fill="#FFFDF6" d="M169.434,22.319c0,0.094-0.034,0.177-0.102,0.252c-0.068,0.075-0.18,0.135-0.337,0.182
					c-0.156,0.047-0.365,0.084-0.626,0.112c-0.261,0.028-0.595,0.042-1.001,0.042c-0.397,0-0.728-0.014-0.994-0.042
					c-0.266-0.028-0.477-0.065-0.634-0.112c-0.157-0.047-0.269-0.107-0.336-0.182c-0.068-0.075-0.102-0.159-0.102-0.252V5.207
					c0-0.093,0.034-0.177,0.102-0.252c0.068-0.075,0.182-0.135,0.344-0.182c0.162-0.046,0.373-0.084,0.634-0.112
					c0.261-0.028,0.589-0.042,0.986-0.042c0.407,0,0.741,0.014,1.001,0.042c0.261,0.028,0.469,0.065,0.626,0.112
					c0.157,0.047,0.269,0.108,0.337,0.182c0.068,0.075,0.102,0.159,0.102,0.252V22.319z"/>
				<path fill="#FFFDF6" d="M187.321,6.216c0,0.271-0.013,0.502-0.039,0.693c-0.026,0.191-0.065,0.345-0.117,0.462
					c-0.052,0.117-0.117,0.203-0.195,0.259c-0.078,0.056-0.164,0.084-0.258,0.084h-5.07v14.605c0,0.094-0.034,0.177-0.102,0.252
					c-0.068,0.075-0.18,0.135-0.337,0.182c-0.157,0.047-0.368,0.084-0.634,0.112c-0.266,0.028-0.597,0.042-0.994,0.042
					s-0.728-0.014-0.994-0.042c-0.266-0.028-0.477-0.065-0.634-0.112c-0.157-0.047-0.269-0.107-0.337-0.182
					c-0.068-0.075-0.102-0.159-0.102-0.252V7.714h-5.07c-0.104,0-0.193-0.028-0.266-0.084c-0.073-0.056-0.136-0.142-0.188-0.259
					c-0.053-0.117-0.092-0.271-0.118-0.462c-0.027-0.191-0.039-0.422-0.039-0.693c0-0.28,0.013-0.518,0.039-0.714
					c0.026-0.196,0.065-0.352,0.118-0.469c0.052-0.117,0.115-0.201,0.188-0.252c0.073-0.051,0.162-0.077,0.266-0.077h14.272
					c0.094,0,0.18,0.026,0.258,0.077c0.078,0.051,0.143,0.135,0.195,0.252c0.052,0.117,0.091,0.273,0.117,0.469
					C187.308,5.698,187.321,5.936,187.321,6.216z"/>
			</g>
		</g>
		<g>
			<g>
				<path fill="#FFFDF6" d="M167.291,26.422c0,0.138-0.027,0.26-0.082,0.368c-0.056,0.108-0.132,0.199-0.231,0.274
					c-0.098,0.075-0.214,0.132-0.348,0.169c-0.133,0.037-0.277,0.057-0.43,0.057c-0.108,0-0.207-0.009-0.299-0.025
					c-0.092-0.017-0.173-0.037-0.245-0.062c-0.072-0.024-0.132-0.049-0.181-0.075c-0.049-0.026-0.084-0.047-0.102-0.066
					c-0.019-0.018-0.032-0.041-0.042-0.069c-0.009-0.029-0.014-0.066-0.014-0.113c0-0.032,0.003-0.061,0.005-0.082
					c0.004-0.022,0.009-0.04,0.015-0.054c0.006-0.014,0.015-0.024,0.015-0.024c0.02-0.01,0.031-0.013,0.031-0.013
					c0.037,0,0.07,0.013,0.112,0.039c0.041,0.025,0.096,0.054,0.162,0.084c0.066,0.031,0.146,0.059,0.239,0.086
					c0.093,0.026,0.201,0.04,0.324,0.04c0.092,0,0.177-0.012,0.254-0.035c0.076-0.023,0.142-0.055,0.198-0.096
					c0.055-0.042,0.097-0.093,0.127-0.154c0.03-0.06,0.045-0.128,0.045-0.207c0-0.082-0.02-0.155-0.062-0.213
					c-0.041-0.059-0.096-0.111-0.163-0.156c-0.067-0.045-0.145-0.086-0.232-0.122c-0.087-0.037-0.176-0.076-0.267-0.115
					c-0.091-0.039-0.179-0.081-0.265-0.128c-0.086-0.046-0.163-0.102-0.23-0.166c-0.067-0.064-0.122-0.138-0.165-0.224
					c-0.042-0.085-0.063-0.188-0.063-0.308c0-0.122,0.025-0.232,0.074-0.328c0.049-0.097,0.116-0.177,0.203-0.243
					c0.087-0.065,0.189-0.115,0.31-0.148c0.12-0.034,0.249-0.051,0.388-0.051c0.071,0,0.142,0.005,0.214,0.017
					c0.072,0.011,0.139,0.026,0.203,0.045c0.063,0.019,0.121,0.04,0.171,0.063c0.05,0.024,0.082,0.042,0.097,0.057
					c0.016,0.014,0.026,0.025,0.026,0.025c0.01,0.017,0.014,0.027,0.014,0.027c0.008,0.026,0.01,0.041,0.011,0.06
					c0.001,0.019,0.003,0.041,0.003,0.071c0,0.026-0.001,0.051-0.004,0.072s-0.006,0.039-0.011,0.054
					c-0.005,0.014-0.011,0.025-0.011,0.025c-0.019,0.014-0.029,0.017-0.029,0.017c-0.03,0-0.059-0.011-0.097-0.032
					c-0.039-0.021-0.087-0.045-0.143-0.071c-0.056-0.027-0.122-0.051-0.199-0.074c-0.077-0.021-0.163-0.032-0.259-0.032
					c-0.09,0-0.167,0.011-0.233,0.032c-0.066,0.022-0.121,0.051-0.163,0.087c-0.044,0.037-0.076,0.08-0.097,0.13
					c-0.021,0.051-0.032,0.103-0.032,0.16c0,0.082,0.021,0.152,0.062,0.212c0.041,0.059,0.096,0.111,0.164,0.157
					c0.069,0.045,0.147,0.087,0.234,0.125c0.089,0.037,0.177,0.076,0.268,0.115c0.091,0.039,0.181,0.081,0.268,0.127
					c0.088,0.046,0.166,0.101,0.234,0.164c0.069,0.062,0.125,0.137,0.167,0.222C167.27,26.204,167.291,26.305,167.291,26.422z"/>
				<path fill="#FFFDF6" d="M168.312,24.454c0,0.089-0.019,0.148-0.055,0.179c-0.036,0.032-0.103,0.049-0.201,0.049
					c-0.096,0-0.162-0.016-0.198-0.047c-0.035-0.031-0.052-0.09-0.052-0.176c0-0.089,0.017-0.148,0.054-0.179
					c0.037-0.032,0.103-0.049,0.202-0.049c0.096,0,0.161,0.016,0.197,0.047C168.293,24.309,168.312,24.368,168.312,24.454z
					 M168.264,27.19c0,0-0.004,0.022-0.01,0.031c0,0-0.018,0.016-0.032,0.021c-0.015,0.006-0.036,0.011-0.062,0.014
					c-0.026,0.004-0.06,0.005-0.101,0.005c-0.04,0-0.073-0.001-0.1-0.005c-0.026-0.003-0.047-0.008-0.064-0.014
					c-0.015-0.005-0.026-0.013-0.026-0.013c-0.011-0.017-0.015-0.027-0.015-0.027v-2.057l0.009-0.03c0,0,0.017-0.016,0.032-0.023
					c0.016-0.006,0.037-0.011,0.064-0.014c0.026-0.004,0.06-0.005,0.1-0.005c0.041,0,0.075,0.001,0.101,0.005
					c0.026,0.003,0.047,0.008,0.062,0.014c0.015,0.006,0.026,0.014,0.026,0.014c0.012,0.017,0.016,0.027,0.016,0.027V27.19z"/>
				<path fill="#FFFDF6" d="M170.942,27.19l-0.004,0.022c-0.014,0.017-0.024,0.025-0.039,0.03c-0.015,0.006-0.036,0.011-0.062,0.014
					c-0.026,0.004-0.06,0.005-0.098,0.005c-0.042,0-0.076-0.001-0.102-0.005c-0.026-0.003-0.047-0.008-0.062-0.014
					c-0.015-0.005-0.025-0.013-0.025-0.013c-0.014-0.017-0.017-0.027-0.017-0.027v-1.21c0-0.117-0.01-0.211-0.029-0.282
					c-0.02-0.071-0.05-0.133-0.087-0.184c-0.039-0.051-0.087-0.091-0.148-0.118c-0.06-0.027-0.13-0.041-0.209-0.041
					c-0.102,0-0.204,0.034-0.307,0.101c-0.104,0.066-0.211,0.164-0.323,0.293v1.429l-0.004,0.022
					c-0.013,0.017-0.024,0.025-0.039,0.03c-0.015,0.006-0.036,0.011-0.062,0.014c-0.026,0.004-0.06,0.005-0.101,0.005
					c-0.04,0-0.074-0.001-0.1-0.005c-0.026-0.003-0.047-0.008-0.064-0.014c-0.015-0.005-0.026-0.013-0.026-0.013
					c-0.011-0.017-0.015-0.027-0.015-0.027v-2.057c0,0,0.003-0.023,0.007-0.031l0.03-0.022c0.015-0.007,0.035-0.011,0.057-0.014
					c0.024-0.002,0.054-0.004,0.092-0.004c0.036,0,0.066,0.001,0.09,0.004c0.025,0.003,0.044,0.006,0.056,0.014l0.029,0.022
					c0.006,0.009,0.009,0.019,0.009,0.019v0.283c0.126-0.129,0.25-0.223,0.375-0.283c0.126-0.06,0.252-0.09,0.379-0.09
					c0.148,0,0.274,0.022,0.375,0.068c0.102,0.046,0.184,0.108,0.247,0.186c0.064,0.077,0.108,0.168,0.136,0.272
					c0.027,0.103,0.041,0.228,0.041,0.374V27.19z"/>
				<path fill="#FFFDF6" d="M173.292,26.878c0,0.026-0.001,0.049-0.003,0.067c-0.001,0.02-0.005,0.035-0.005,0.035
					c-0.007,0.026-0.012,0.037-0.019,0.047c0,0-0.019,0.024-0.04,0.044c-0.02,0.019-0.055,0.042-0.105,0.07
					c-0.05,0.029-0.106,0.054-0.168,0.075c-0.061,0.022-0.128,0.04-0.202,0.054c-0.072,0.014-0.148,0.021-0.225,0.021
					c-0.161,0-0.303-0.025-0.426-0.073c-0.125-0.049-0.228-0.118-0.311-0.212c-0.083-0.093-0.147-0.208-0.191-0.344
					c-0.044-0.136-0.066-0.292-0.066-0.469c0-0.202,0.027-0.375,0.081-0.52c0.054-0.145,0.127-0.264,0.221-0.356
					c0.093-0.092,0.203-0.161,0.33-0.206c0.126-0.045,0.263-0.067,0.41-0.067c0.071,0,0.14,0.006,0.207,0.019
					c0.067,0.013,0.128,0.027,0.184,0.047c0.056,0.02,0.107,0.042,0.151,0.069s0.075,0.047,0.095,0.066
					c0.02,0.019,0.034,0.032,0.041,0.044c0.007,0.01,0.014,0.022,0.014,0.022c0.01,0.029,0.014,0.045,0.015,0.064
					c0.001,0.017,0.003,0.041,0.003,0.069c0,0.059-0.008,0.1-0.022,0.123c-0.015,0.024-0.032,0.035-0.055,0.035
					c-0.025,0-0.052-0.012-0.085-0.037c-0.032-0.025-0.074-0.052-0.123-0.082c-0.05-0.031-0.11-0.059-0.18-0.083
					c-0.07-0.025-0.153-0.037-0.249-0.037c-0.197,0-0.348,0.07-0.452,0.208c-0.106,0.138-0.158,0.34-0.158,0.603
					c0,0.132,0.014,0.248,0.041,0.346c0.027,0.1,0.067,0.183,0.121,0.249c0.052,0.067,0.117,0.116,0.194,0.149
					c0.077,0.032,0.164,0.049,0.264,0.049c0.095,0,0.177-0.014,0.248-0.041c0.071-0.027,0.132-0.057,0.184-0.09
					c0.052-0.032,0.096-0.062,0.132-0.088c0.035-0.026,0.062-0.04,0.082-0.04c0,0,0.022,0.003,0.03,0.009
					c0,0,0.015,0.016,0.021,0.031c0,0,0.01,0.032,0.012,0.055C173.291,26.822,173.292,26.848,173.292,26.878z"/>
				<path fill="#FFFDF6" d="M175.739,26.078c0,0.06-0.016,0.102-0.049,0.127c-0.032,0.025-0.07,0.037-0.111,0.037h-1.47
					c0,0.113,0.012,0.215,0.037,0.306c0.025,0.091,0.067,0.17,0.125,0.234c0.059,0.065,0.135,0.115,0.227,0.149
					c0.093,0.035,0.207,0.052,0.341,0.052c0.107,0,0.202-0.007,0.284-0.024c0.083-0.016,0.156-0.034,0.215-0.053
					c0.061-0.02,0.111-0.037,0.15-0.054c0.04-0.015,0.068-0.024,0.088-0.024c0.013,0,0.023,0.002,0.023,0.002
					c0.019,0.011,0.025,0.019,0.03,0.03c0.005,0.01,0.009,0.025,0.011,0.044c0.003,0.02,0.004,0.042,0.004,0.07
					c0,0.02,0,0.036,0,0.036c-0.004,0.03-0.006,0.042-0.006,0.042c-0.005,0.022-0.009,0.032-0.009,0.032
					c-0.011,0.019-0.019,0.027-0.019,0.027c-0.019,0.016-0.045,0.03-0.09,0.049c-0.045,0.02-0.104,0.039-0.174,0.056
					c-0.071,0.019-0.153,0.035-0.247,0.049c-0.093,0.015-0.193,0.022-0.298,0.022c-0.184,0-0.345-0.024-0.482-0.071
					c-0.138-0.047-0.254-0.117-0.349-0.209c-0.095-0.092-0.166-0.208-0.213-0.348c-0.049-0.14-0.072-0.302-0.072-0.486
					c0-0.176,0.025-0.334,0.075-0.475c0.05-0.139,0.121-0.258,0.214-0.356c0.093-0.097,0.206-0.173,0.339-0.226
					c0.132-0.051,0.279-0.077,0.444-0.077c0.174,0,0.324,0.025,0.447,0.077c0.123,0.051,0.224,0.121,0.304,0.207
					c0.079,0.087,0.137,0.191,0.174,0.308c0.037,0.117,0.056,0.243,0.056,0.376V26.078z M175.327,25.968
					c0.005-0.197-0.042-0.351-0.143-0.464c-0.1-0.112-0.249-0.168-0.447-0.168c-0.101,0-0.191,0.017-0.267,0.052
					c-0.077,0.035-0.141,0.081-0.192,0.138c-0.052,0.057-0.092,0.125-0.121,0.202c-0.027,0.076-0.044,0.156-0.047,0.239H175.327z"/>
				<path fill="#FFFDF6" d="M179.428,27.093c0,0.029-0.003,0.053-0.007,0.072c-0.005,0.02-0.011,0.036-0.02,0.049
					c-0.009,0.011-0.017,0.02-0.017,0.02c-0.022,0.011-0.034,0.014-0.034,0.014h-1.687l-0.032-0.007c0,0-0.02-0.015-0.029-0.026
					c-0.009-0.012-0.016-0.029-0.021-0.049c-0.005-0.019-0.007-0.044-0.007-0.072c0-0.027,0.003-0.051,0.007-0.071
					c0.005-0.019,0.011-0.035,0.011-0.035c0.015-0.026,0.024-0.036,0.024-0.036c0.022-0.014,0.034-0.017,0.034-0.017h0.683v-2.237
					l-0.619,0.339c-0.032,0.015-0.057,0.025-0.076,0.027c-0.019,0.003-0.035,0-0.046-0.01c0,0-0.019-0.026-0.024-0.049
					c-0.004-0.024-0.006-0.052-0.006-0.087c0-0.025,0.001-0.047,0.004-0.066c0.002-0.017,0.006-0.032,0.006-0.032
					c0.01-0.025,0.018-0.035,0.018-0.035c0.017-0.019,0.03-0.027,0.045-0.037l0.739-0.434l0.025-0.011l0.037-0.009
					c0.015-0.004,0.032-0.005,0.052-0.006c0.019-0.001,0.044-0.001,0.074-0.001c0.04,0,0.074,0.001,0.1,0.005
					c0.026,0.003,0.047,0.008,0.047,0.008l0.044,0.025c0.005,0.009,0.008,0.017,0.008,0.017v2.593h0.581c0,0,0.026,0.004,0.037,0.01
					c0,0,0.021,0.017,0.029,0.03c0.007,0.014,0.012,0.03,0.017,0.049C179.426,27.042,179.428,27.065,179.428,27.093z"/>
				<path fill="#FFFDF6" d="M182.02,25.661c0,0.127-0.009,0.255-0.025,0.386c-0.016,0.129-0.045,0.255-0.085,0.376
					c-0.04,0.12-0.092,0.233-0.16,0.339c-0.067,0.105-0.152,0.197-0.253,0.275c-0.102,0.079-0.223,0.141-0.363,0.186
					c-0.14,0.045-0.302,0.067-0.487,0.067c-0.071,0-0.14-0.005-0.207-0.012c-0.067-0.009-0.127-0.019-0.181-0.031
					c-0.054-0.012-0.1-0.025-0.136-0.039c-0.036-0.014-0.062-0.027-0.079-0.041c-0.017-0.014-0.029-0.032-0.036-0.056
					c-0.007-0.023-0.011-0.055-0.011-0.094c0-0.034,0.001-0.06,0.004-0.08c0.002-0.02,0.006-0.035,0.006-0.035
					c0.01-0.021,0.016-0.029,0.016-0.029c0.019-0.007,0.03-0.009,0.03-0.009c0.031,0,0.057,0.005,0.09,0.016
					c0.034,0.011,0.075,0.024,0.126,0.037c0.05,0.014,0.11,0.026,0.177,0.037c0.067,0.013,0.143,0.017,0.228,0.017
					c0.161,0,0.298-0.029,0.412-0.085c0.116-0.057,0.209-0.133,0.282-0.229c0.074-0.095,0.127-0.206,0.164-0.331
					c0.036-0.126,0.056-0.258,0.059-0.398c-0.087,0.047-0.192,0.089-0.314,0.125c-0.123,0.036-0.263,0.055-0.422,0.055
					c-0.178,0-0.328-0.022-0.45-0.067c-0.121-0.045-0.219-0.106-0.293-0.183c-0.073-0.077-0.126-0.168-0.158-0.274
					c-0.032-0.107-0.049-0.223-0.049-0.349c0-0.13,0.021-0.254,0.062-0.371c0.041-0.117,0.106-0.221,0.193-0.31
					c0.087-0.09,0.199-0.161,0.335-0.213c0.136-0.054,0.298-0.08,0.486-0.08c0.133,0,0.253,0.015,0.355,0.046
					c0.103,0.031,0.193,0.076,0.269,0.135c0.076,0.059,0.141,0.128,0.194,0.212c0.052,0.082,0.095,0.176,0.127,0.28
					c0.032,0.105,0.056,0.218,0.07,0.34C182.013,25.397,182.02,25.526,182.02,25.661z M181.585,25.617
					c0-0.194-0.014-0.358-0.041-0.49c-0.029-0.132-0.07-0.239-0.125-0.322c-0.055-0.082-0.121-0.141-0.201-0.177
					c-0.08-0.037-0.171-0.055-0.275-0.055c-0.107,0-0.199,0.017-0.275,0.054c-0.076,0.035-0.138,0.083-0.187,0.143
					c-0.049,0.06-0.085,0.127-0.108,0.203c-0.022,0.076-0.035,0.153-0.035,0.234c0,0.089,0.011,0.171,0.031,0.246
					c0.021,0.073,0.055,0.137,0.101,0.188c0.046,0.052,0.106,0.091,0.181,0.12c0.075,0.027,0.167,0.042,0.275,0.042
					c0.125,0,0.244-0.017,0.36-0.051C181.401,25.718,181.502,25.674,181.585,25.617z"/>
				<path fill="#FFFDF6" d="M184.644,26.492c0,0.128-0.025,0.241-0.075,0.34c-0.05,0.1-0.121,0.183-0.214,0.252
					c-0.093,0.067-0.209,0.12-0.346,0.154c-0.137,0.035-0.294,0.052-0.471,0.052c-0.166,0-0.313-0.016-0.444-0.049
					c-0.131-0.031-0.242-0.079-0.333-0.141c-0.091-0.062-0.161-0.138-0.208-0.229c-0.049-0.091-0.072-0.194-0.072-0.312
					c0-0.092,0.016-0.177,0.05-0.254c0.034-0.077,0.081-0.148,0.142-0.214c0.062-0.065,0.14-0.126,0.229-0.183
					c0.091-0.056,0.194-0.111,0.308-0.162c-0.098-0.047-0.187-0.096-0.263-0.148c-0.076-0.052-0.14-0.11-0.193-0.171
					c-0.052-0.061-0.093-0.127-0.12-0.197c-0.027-0.07-0.041-0.146-0.041-0.227c0-0.104,0.02-0.201,0.06-0.29
					c0.041-0.09,0.102-0.168,0.184-0.236c0.081-0.066,0.186-0.12,0.313-0.158c0.126-0.039,0.273-0.057,0.442-0.057
					c0.162,0,0.301,0.017,0.42,0.054c0.118,0.035,0.216,0.083,0.293,0.144c0.077,0.062,0.133,0.135,0.17,0.218
					c0.036,0.083,0.055,0.172,0.055,0.268c0,0.077-0.014,0.152-0.041,0.223c-0.027,0.071-0.067,0.138-0.12,0.202
					c-0.054,0.064-0.118,0.123-0.196,0.178c-0.076,0.056-0.164,0.107-0.264,0.156c0.118,0.054,0.223,0.108,0.314,0.164
					c0.092,0.056,0.169,0.116,0.23,0.181c0.062,0.063,0.11,0.132,0.142,0.204C184.628,26.328,184.644,26.406,184.644,26.492z
					 M184.212,26.533c0-0.07-0.014-0.132-0.042-0.189c-0.027-0.057-0.07-0.11-0.127-0.16c-0.057-0.049-0.128-0.097-0.213-0.143
					c-0.086-0.046-0.184-0.093-0.296-0.145c-0.105,0.047-0.196,0.095-0.274,0.142c-0.078,0.046-0.143,0.095-0.193,0.145
					c-0.051,0.05-0.088,0.103-0.115,0.158c-0.025,0.055-0.039,0.116-0.039,0.183c0,0.147,0.056,0.26,0.166,0.341
					c0.11,0.08,0.274,0.12,0.492,0.12c0.212,0,0.371-0.04,0.48-0.121C184.158,26.784,184.212,26.673,184.212,26.533z
					 M184.108,24.983c0-0.064-0.012-0.121-0.036-0.172c-0.024-0.052-0.06-0.096-0.106-0.132c-0.046-0.036-0.103-0.065-0.172-0.083
					c-0.068-0.019-0.147-0.029-0.234-0.029c-0.178,0-0.314,0.037-0.406,0.112c-0.091,0.073-0.137,0.176-0.137,0.304
					c0,0.06,0.011,0.115,0.034,0.164c0.022,0.051,0.057,0.1,0.103,0.145c0.047,0.046,0.107,0.09,0.179,0.133
					c0.071,0.044,0.157,0.088,0.257,0.135c0.167-0.079,0.295-0.166,0.384-0.26C184.064,25.204,184.108,25.099,184.108,24.983z"/>
				<path fill="#FFFDF6" d="M187.28,26.411c0,0.05-0.007,0.088-0.025,0.118c-0.016,0.029-0.039,0.042-0.068,0.042h-0.363v0.618
					l-0.004,0.022c0,0-0.025,0.025-0.042,0.03c-0.018,0.006-0.039,0.011-0.066,0.014c-0.027,0.004-0.062,0.005-0.105,0.005
					c-0.041,0-0.075-0.001-0.102-0.005c-0.027-0.003-0.049-0.008-0.065-0.014c-0.016-0.005-0.027-0.013-0.027-0.013
					c-0.013-0.017-0.015-0.027-0.015-0.027v-0.631h-1.313c-0.02,0-0.036-0.003-0.036-0.003c-0.026-0.009-0.037-0.017-0.037-0.017
					c-0.021-0.024-0.029-0.041-0.034-0.064c-0.004-0.024-0.005-0.052-0.005-0.088c0-0.029,0-0.055,0.001-0.077
					c0.003-0.024,0.005-0.044,0.01-0.064c0.005-0.019,0.013-0.036,0.02-0.054c0.009-0.017,0.019-0.036,0.03-0.056l1.144-1.787
					c0.007-0.012,0.02-0.022,0.036-0.031c0.016-0.01,0.037-0.017,0.062-0.024c0.025-0.005,0.056-0.01,0.093-0.012
					c0.037-0.001,0.081-0.003,0.131-0.003c0.056,0,0.105,0.001,0.146,0.005c0.041,0.004,0.075,0.009,0.1,0.015
					c0.025,0.006,0.045,0.014,0.059,0.024c0.014,0.01,0.02,0.021,0.02,0.021v1.891h0.363c0.027,0,0.05,0.014,0.067,0.04
					C187.271,26.315,187.28,26.356,187.28,26.411z M186.397,24.636h-0.005l-1.032,1.614h1.037V24.636z"/>
			</g>
		</g>
	</g>
</g>
<g>
	<g>
		<path fill="#1D1D1B" d="M95.469,20.346c0-1.691,1.321-3.064,2.95-3.064c1.629,0,2.948,1.373,2.948,3.064
			c0,1.691-1.319,3.062-2.948,3.062C96.79,23.408,95.469,22.037,95.469,20.346 M96.147,20.346c0,1.306,1.019,2.36,2.273,2.36
			c1.254,0,2.27-1.054,2.27-2.36c0-1.305-1.016-2.362-2.27-2.362C97.165,17.983,96.147,19.04,96.147,20.346"/>
		<path fill="#1D1D1B" d="M97.878,19.325H98.6c0.292,0,0.451,0.126,0.451,0.428c0,0.314-0.158,0.443-0.451,0.443h-0.722V19.325z
			 M97.22,21.9h0.657v-1.215h0.657c0.331,0,0.452,0.143,0.499,0.468c0.032,0.247,0.024,0.549,0.104,0.747h0.655
			c-0.114-0.175-0.112-0.542-0.124-0.738c-0.022-0.312-0.113-0.639-0.434-0.725v-0.01c0.329-0.137,0.473-0.412,0.473-0.776
			c0-0.47-0.341-0.858-0.874-0.858H97.22V21.9z"/>
		<path fill="#1D1D1B" d="M31.751,17.733c0.195-4.446-2.063-7.98-6.582-7.98c-3.713,0-6.801,2.879-6.801,6.892
			c0,4.394,2.794,6.968,6.898,6.968c2.818,0,5.514-1.312,6.267-4.342h-3.861c-0.387,0.96-1.359,1.438-2.357,1.438
			c-1.747,0-2.743-1.185-2.818-2.976H31.751z M22.497,15.331c0.243-1.59,1.215-2.672,2.672-2.672c1.388,0,2.382,1.21,2.455,2.672
			H22.497z"/>
	</g>
	<path fill="#1D1D1B" d="M49.41,5.21h-4.131v3.281h4.131V5.21z M45.279,23.233h4.131v-13.1h-4.131V23.233z"/>
	<g>
		<path fill="#1D1D1B" d="M63.052,10.132h-3.96v1.641h-0.049c-0.728-1.337-1.866-2.02-3.376-2.02c-3.571,0-5.537,2.929-5.537,6.413
			c0,3.684,1.725,6.51,5.537,6.51c1.337,0,2.601-0.705,3.353-1.917h0.047v1.238c0,1.615-0.193,3.053-2.161,3.053
			c-0.631,0-1.14-0.074-1.507-0.276c-0.388-0.203-0.607-0.557-0.702-1.136h-4.129c0.485,3.509,3.257,4.19,6.192,4.19
			c5.904,0,6.292-4.041,6.292-6.183V10.132z M59.141,16.343c0,1.641-0.751,3.053-2.502,3.053c-1.698,0-2.378-1.537-2.378-3.081
			c0-1.615,0.582-3.281,2.402-3.281C58.512,13.034,59.141,14.675,59.141,16.343"/>
		<path fill="#1D1D1B" d="M76.528,10.132h-4.131v7.019c0,2.322-1.359,2.929-2.256,2.929c-1.311,0-2.041-0.607-2.041-2.347v-7.6
			h-4.129v7.877c0,3.433,1.043,5.603,4.662,5.603c1.459,0,3.061-0.833,3.838-2.17h0.049v1.79h4.007V10.132z"/>
		<path fill="#1D1D1B" d="M81.529,14.171c0.195-1.109,0.923-1.641,2.066-1.641c0.848,0,1.992,0.38,1.992,1.362
			c0,0.808-0.39,1.061-1.094,1.211c-2.865,0.607-7.334,0.28-7.334,4.546c0,2.702,1.893,3.963,4.299,3.963
			c1.506,0,3.082-0.455,4.151-1.615c0.049,0.43,0.097,0.833,0.243,1.235h4.153c-0.485-1.033-0.485-2.246-0.485-3.355v-5.732
			c0-3.71-2.889-4.393-5.878-4.393c-1.434,0-2.891,0.251-4.009,0.909c-1.118,0.683-1.893,1.795-1.968,3.509H81.529z M81.288,19.473
			c0-1.035,0.777-1.438,1.698-1.666c0.901-0.253,1.97-0.329,2.55-0.706c0.097,2.702-0.558,3.861-2.524,3.861
			C82.089,20.962,81.288,20.534,81.288,19.473"/>
	</g>
	<rect x="90.569" y="5.21" fill="#1D1D1B" width="4.129" height="18.023"/>
	<g>
		<path fill="#1D1D1B" d="M44.472,18.918c-0.122,3.659-3.183,4.695-6.172,4.695c-2.84,0-6.048-1.162-6.048-4.669
			c0-1.084,0.657-3.005,3.208-3.535c1.895-0.43,4.662-0.658,4.662-1.894c0-0.909-1.093-0.985-1.773-0.985
			c-0.511,0-0.97,0.101-1.31,0.329c-0.341,0.228-0.536,0.58-0.536,1.134H32.69c0.146-3.408,3.035-4.241,5.805-4.241
			c2.475,0,5.758,0.858,5.758,4.015c0,3.532-3.258,3.611-5.855,4.292c-0.728,0.177-2.017,0.377-2.017,1.387
			c0,1.036,1.143,1.387,1.944,1.387c0.586,0,1.142-0.15,1.53-0.453c0.414-0.327,0.68-0.806,0.68-1.464H44.472z"/>
		<path fill="#1D1D1B" d="M6.384,9.247H8.52c3.082,0,4.786,1.59,4.786,4.872c0,3.61-1.363,5-4.786,5.074H6.384V9.247z M1.866,23.231
			h7.458c5.267,0,8.497-3.18,8.497-9.089c0-5.578-3.179-8.935-8.497-8.935H1.866V23.231z"/>
	</g>
</g>
<g>
</g>
<g>
</g>
<g>
</g>
<g>
</g>
<g>
</g>
<g>
</g>
<g>
</g>
<g>
</g>
<g>
</g>
<g>
</g>
<g>
</g>
<g>
</g>
<g>
</g>
<g>
</g>
<g>
</g>
</svg>
