<?xml version="1.0" encoding="utf-8"?>
<!-- Generator: Adobe Illustrator 17.0.0, SVG Export Plug-In . SVG Version: 6.00 Build 0)  -->
<!DOCTYPE svg PUBLIC "-//W3C//DTD SVG 1.1//EN" "http://www.w3.org/Graphics/SVG/1.1/DTD/svg11.dtd">
<svg version="1.1" id="Layer_1" xmlns="http://www.w3.org/2000/svg" xmlns:xlink="http://www.w3.org/1999/xlink" x="0px" y="0px"
	 width="456.939px" height="37.152px" viewBox="0 0 456.939 37.152" enable-background="new 0 0 456.939 37.152"
	 xml:space="preserve">
<g>
	<path fill="#B1B1B1" d="M237.156,9.994h13.356c1.695,0,3.097,0.117,4.218,0.355c1.114,0.233,2.078,0.59,2.877,1.064
		c0.8,0.473,1.421,1.04,1.862,1.687c0.433,0.651,0.647,1.351,0.647,2.074c0,1.466-0.826,2.696-2.492,3.694
		c-1.659,0.994-3.952,1.488-6.873,1.488h-4.318v3.213c0,0.399,0.046,0.653,0.133,0.761c0.103,0.149,0.269,0.274,0.49,0.344
		c0.229,0.075,0.602,0.112,1.135,0.112h1.287v2.373h-12.322v-2.373h0.852c0.748,0,1.248-0.036,1.487-0.112
		c0.244-0.071,0.421-0.195,0.525-0.348c0.112-0.159,0.17-0.495,0.17-0.993v-9.433c0-0.52-0.053-0.874-0.153-1.044
		c-0.094-0.165-0.245-0.289-0.461-0.366c-0.212-0.073-0.612-0.116-1.201-0.116h-1.218V9.994L237.156,9.994z M246.432,12.8v4.875
		h2.161c1.317,0,2.287-0.1,2.901-0.279c0.615-0.188,1.105-0.469,1.488-0.847c0.37-0.386,0.56-0.84,0.56-1.359
		c0-0.794-0.453-1.412-1.342-1.869c-0.668-0.346-1.649-0.521-2.958-0.521H246.432L246.432,12.8z M270.737,9.994h5.675l7.595,13.245
		c0.406,0.707,0.773,1.147,1.093,1.313c0.325,0.162,0.911,0.242,1.766,0.233v2.373h-11.96v-2.373l0.728-0.012
		c0.661,0,1.13-0.062,1.397-0.179c0.265-0.117,0.393-0.266,0.393-0.44c0-0.15-0.112-0.444-0.343-0.915l-0.744-1.557h-7.699
		l-0.94,1.733c-0.195,0.369-0.291,0.614-0.291,0.726c0,0.129,0.066,0.254,0.207,0.354c0.138,0.111,0.368,0.192,0.682,0.237
		c0.203,0.037,0.772,0.053,1.704,0.053v2.373h-9.79v-2.373c0.626,0,1.088-0.036,1.383-0.112c0.282-0.071,0.522-0.183,0.71-0.332
		c0.19-0.149,0.395-0.42,0.623-0.823L270.737,9.994L270.737,9.994z M269.962,19.234h5.053l-2.465-4.727L269.962,19.234
		L269.962,19.234z M288.317,9.994h21.095l2.884,5.423l-3.283,0.804c-0.558-0.886-1.212-1.597-1.95-2.138
		c-0.742-0.544-1.567-0.906-2.464-1.079c-0.901-0.179-1.95-0.267-3.141-0.267h-3.862v4.285h1.268c0.957,0,1.602-0.047,1.933-0.146
		c0.329-0.092,0.569-0.241,0.711-0.437c0.145-0.207,0.213-0.596,0.213-1.204v-0.649h3.232v7.257h-3.232v-0.735
		c0-0.508-0.085-0.867-0.256-1.098c-0.174-0.228-0.416-0.387-0.717-0.465c-0.304-0.084-0.974-0.129-2.012-0.129h-1.139v3.939
		c0,0.415,0.027,0.674,0.089,0.766c0.064,0.09,0.178,0.157,0.354,0.208c0.178,0.05,0.554,0.07,1.131,0.07h2.121
		c1.584,0,2.92-0.155,4.005-0.457c1.087-0.308,2.057-0.806,2.909-1.493c0.858-0.684,1.509-1.5,1.968-2.439l3.314,0.77l-3.314,6.377
		h-21.856v-2.373h0.633c0.846,0,1.417-0.045,1.704-0.128c0.287-0.079,0.498-0.22,0.616-0.424c0.06-0.128,0.093-0.473,0.093-1.052
		v-9.351c0-0.503-0.058-0.833-0.157-0.987c-0.105-0.162-0.265-0.278-0.484-0.355c-0.213-0.073-0.637-0.116-1.282-0.116h-1.123V9.994
		L288.317,9.994z M335.649,9.994v2.378L322.274,24.49h1.573c2.181,0,3.806-0.137,4.879-0.42c1.073-0.266,2.074-0.757,2.979-1.449
		c0.918-0.699,1.627-1.555,2.138-2.569l3.314,0.757l-3.314,6.349h-19.309v-2.373l13.431-12.08h-2.099
		c-1.431,0-2.572,0.112-3.444,0.345c-0.875,0.223-1.631,0.565-2.266,1.017c-0.645,0.446-1.559,1.402-2.76,2.847l-3.186-0.959
		l3.84-5.961H335.649z"/>
	<g>
		<polygon fill-rule="evenodd" clip-rule="evenodd" fill="#1A2C4C" points="16.13,14.457 12.295,14.457 12.295,24.228 
			10.707,24.228 10.707,14.457 6.866,14.457 6.866,13.013 16.13,13.013 		"/>
		<path fill-rule="evenodd" clip-rule="evenodd" fill="#1A2C4C" d="M23.519,18.62c0-2.456,1.847-4.266,4.313-4.266
			c2.484,0,4.322,1.81,4.322,4.266c0,2.451-1.838,4.285-4.322,4.285C25.366,22.905,23.519,21.072,23.519,18.62 M21.887,18.62
			c0,3.057,2.288,5.749,5.916,5.749c3.76,0,5.982-2.73,5.982-5.749c0-3.123-2.297-5.758-5.954-5.758
			C24.237,12.862,21.887,15.516,21.887,18.62"/>
		<polygon fill-rule="evenodd" clip-rule="evenodd" fill="#1A2C4C" points="51.723,24.228 50.139,24.228 50.139,15.497 
			50.092,15.497 46.698,19.834 46.434,19.834 43.013,15.497 42.995,15.497 42.995,24.228 41.391,24.228 41.391,13.013 42.9,13.013 
			46.576,17.607 50.251,13.013 51.723,13.013 		"/>
		<polygon fill-rule="evenodd" clip-rule="evenodd" fill="#1A2C4C" points="71.035,24.228 69.455,24.228 69.455,15.497 
			69.418,15.497 66.013,19.834 65.751,19.834 62.356,15.497 62.309,15.497 62.309,24.228 60.715,24.228 60.715,13.013 62.22,13.013 
			65.892,17.607 69.576,13.013 71.035,13.013 		"/>
		<polygon fill-rule="evenodd" clip-rule="evenodd" fill="#1A2C4C" points="85.901,13.013 87.813,13.013 83.716,18.32 
			83.716,24.228 82.104,24.228 82.104,18.297 78.001,13.013 79.933,13.013 82.887,16.866 		"/>
		<polygon fill-rule="evenodd" clip-rule="evenodd" fill="#1A2C4C" points="130.777,24.228 129.193,24.228 129.193,19.361 
			122.977,19.361 122.977,24.228 121.391,24.228 121.391,13.013 122.977,13.013 122.977,17.898 129.193,17.898 129.193,13.013 
			130.777,13.013 		"/>
		<rect x="137.448" y="13.013" fill-rule="evenodd" clip-rule="evenodd" fill="#1A2C4C" width="1.589" height="11.215"/>
		<polygon fill-rule="evenodd" clip-rule="evenodd" fill="#1A2C4C" points="147.185,22.792 152.203,22.792 152.203,24.228 
			145.602,24.228 145.602,13.013 147.185,13.013 		"/>
		<polygon fill-rule="evenodd" clip-rule="evenodd" fill="#1A2C4C" points="162.732,14.457 158.409,14.457 158.409,17.57 
			162.732,17.57 162.732,19.023 158.409,19.023 158.409,24.228 156.839,24.228 156.839,13.013 162.732,13.013 		"/>
		<rect x="168.208" y="13.013" fill-rule="evenodd" clip-rule="evenodd" fill="#1A2C4C" width="1.612" height="11.215"/>
		<path fill-rule="evenodd" clip-rule="evenodd" fill="#1A2C4C" d="M185,23.469c-1.488,0.636-2.695,0.9-4.232,0.9
			c-3.399,0-5.903-2.391-5.903-5.692c0-3.291,2.565-5.814,5.945-5.814c1.305,0,2.205,0.216,3.947,0.957v1.626
			c-1.287-0.722-2.641-1.092-3.974-1.092c-2.4,0-4.276,1.857-4.276,4.276c0,2.518,1.862,4.275,4.478,4.275
			c0.879,0,1.664-0.201,2.41-0.463v-2.275h-2.114v-1.472H185V23.469z"/>
		<polygon fill-rule="evenodd" clip-rule="evenodd" fill="#1A2C4C" points="197.325,14.457 192.625,14.457 192.625,17.861 
			197.158,17.861 197.158,19.295 192.625,19.295 192.625,22.792 197.472,22.792 197.472,24.228 191.027,24.228 191.027,13.013 
			197.325,13.013 		"/>
		<path fill-rule="evenodd" clip-rule="evenodd" fill="#1A2C4C" d="M204.648,14.4h1.019c1.543,0,2.152,0.638,2.175,1.683
			c0.027,0.943-0.464,1.833-2.175,1.833h-1.019V14.4z M203.055,13.013v11.215h1.594v-4.867h0.671c0.802,0,1.476,0.261,2.913,2.569
			l1.479,2.298h1.9c-0.76-1.07-1.042-1.437-1.501-2.233c-0.839-1.398-1.473-2.429-2.477-3.09c1.174-0.483,1.858-1.45,1.858-2.742
			c0-1.942-1.406-3.151-3.647-3.151H203.055z"/>
		<polygon fill-rule="evenodd" clip-rule="evenodd" fill="#E13E23" points="112.596,21.451 112.596,15.197 104.007,15.197 
			104.007,21.46 		"/>
		<rect x="95.381" y="12.783" fill-rule="evenodd" clip-rule="evenodd" fill="#1A2C4C" width="17.229" height="2.818"/>
		<rect x="95.381" y="21.169" fill-rule="evenodd" clip-rule="evenodd" fill="#1A2C4C" width="17.229" height="2.983"/>
	</g>
	<g>
		<defs>
			<path id="SVGID_1_" d="M409.382,35.223l-0.005,0.004h-0.001c-0.635-0.387-16.424-10.54-32.851,0.025l-7.825-33.353h40.683h0.008
				h40.683l-7.825,33.353c-16.428-10.566-32.217-0.412-32.85-0.025h-0.003l-0.005-0.004H409.382z"/>
		</defs>
		<clipPath id="SVGID_2_">
			<use xlink:href="#SVGID_1_"  overflow="visible"/>
		</clipPath>
		<path clip-path="url(#SVGID_2_)" fill="#AF1831" d="M409.382,35.223l-0.005,0.004h-0.001c-0.635-0.387-16.424-10.54-32.851,0.025
			l-7.825-33.353h40.683h0.008h40.683l-7.825,33.353c-16.428-10.566-32.217-0.412-32.85-0.025h-0.003l-0.005-0.004H409.382z"/>
		<path clip-path="url(#SVGID_2_)" fill="#FFFFFF" d="M427.69,18.89c0,0.708,0.902,3.573,5.857,3.573
			c5.147,0,6.532-2.331,6.532-3.93c0-3.152-3.977-3.306-6.566-3.751c-0.993-0.17-1.683-0.424-1.683-0.933
			c0-0.625,0.766-0.908,2.128-0.908c0.524,0,1.068,0.155,1.437,0.348c0.496,0.259,0.676,0.713,0.676,0.95h3.647
			c0-0.791-1.309-3.525-6.241-3.525c-3.083,0-5.986,1.352-5.986,4.011c0,2.851,3.572,3.279,6.12,3.647
			c0.938,0.135,1.785,0.291,1.785,1.007c0,0.586-0.829,0.831-1.839,0.831c-0.409,0-0.845-0.032-1.237-0.2
			c-0.477-0.204-1.04-0.703-1.04-1.119H427.69z"/>
		<polygon clip-path="url(#SVGID_2_)" fill="#FFFFFF" points="379.506,11.007 384.314,11.007 384.314,19.117 390.201,19.117 
			390.201,22.148 379.506,22.148 		"/>
		<rect x="419.34" y="10.979" clip-path="url(#SVGID_2_)" fill="#FFFFFF" width="4.639" height="11.165"/>
		<polygon clip-path="url(#SVGID_2_)" fill="#FFFFFF" points="427.461,12.378 427.461,10.03 424.843,10.03 424.843,12.24 
			426.124,12.24 425.483,13.898 426.063,13.898 		"/>
		<polygon clip-path="url(#SVGID_2_)" fill="#FFFFFF" points="412.218,17.991 412.122,17.786 408.648,11 403.19,11 409.24,22.165 
			413.291,22.165 418.829,11 415.55,11 412.303,17.786 		"/>
		<path clip-path="url(#SVGID_2_)" fill="#FFFFFF" d="M404.602,16.764c0-2.966-2.384-6.049-7.14-6.049
			c-4.25,0-7.18,2.033-7.18,5.886c0,3.608,2.973,5.885,7.18,5.885c3.235,0,5.608-0.799,6.83-3.61h-3.741
			c-0.627,0.871-1.512,1.193-2.485,1.193c-1.637,0-2.864-1.093-2.864-2.542h9.385C404.622,17.258,404.602,17.01,404.602,16.764z
			 M395.193,15.283c0.017-1.129,0.765-2.233,2.178-2.233c1.522,0,2.366,0.902,2.366,2.233H395.193z"/>
		<path clip-path="url(#SVGID_2_)" fill="#FFFFFF" d="M434.776,2.11c0.298-0.676,0.702-1.263,1.214-1.761
			c0.512-0.495,1.109-0.885,1.79-1.172c0.68-0.282,1.403-0.422,2.167-0.422c0.767,0,1.488,0.14,2.164,0.422
			c0.674,0.286,1.266,0.676,1.773,1.172c0.509,0.498,0.909,1.085,1.208,1.761c0.297,0.675,0.447,1.407,0.447,2.19
			c0,0.806-0.15,1.548-0.447,2.232c-0.299,0.678-0.7,1.27-1.208,1.772c-0.507,0.502-1.099,0.894-1.773,1.17
			c-0.676,0.278-1.397,0.418-2.164,0.418c-0.765,0-1.487-0.14-2.167-0.418c-0.681-0.277-1.278-0.669-1.79-1.17
			c-0.512-0.502-0.916-1.094-1.214-1.772c-0.299-0.684-0.448-1.425-0.448-2.232C434.328,3.516,434.476,2.785,434.776,2.11z
			 M435.692,6.202c0.233,0.581,0.557,1.087,0.969,1.513c0.41,0.428,0.9,0.763,1.462,1.007c0.56,0.243,1.169,0.366,1.824,0.366
			c0.647,0,1.248-0.124,1.804-0.366c0.557-0.244,1.042-0.579,1.454-1.007c0.413-0.426,0.737-0.932,0.971-1.513
			c0.233-0.583,0.351-1.216,0.351-1.902c0-0.665-0.118-1.288-0.351-1.863c-0.234-0.578-0.558-1.077-0.971-1.499
			c-0.412-0.421-0.897-0.756-1.454-0.998c-0.556-0.244-1.157-0.366-1.804-0.366c-0.655,0-1.265,0.121-1.824,0.366
			c-0.562,0.242-1.052,0.577-1.462,0.998c-0.412,0.422-0.736,0.921-0.969,1.499c-0.233,0.575-0.351,1.198-0.351,1.863
			C435.341,4.987,435.459,5.619,435.692,6.202z M440.291,1.064c0.775,0,1.349,0.155,1.722,0.462
			c0.373,0.311,0.558,0.776,0.558,1.403c0,0.587-0.163,1.017-0.492,1.289c-0.328,0.273-0.735,0.435-1.221,0.485l1.861,2.877h-1.088
			l-1.774-2.802h-1.073V7.58h-1.013V1.064H440.291z M439.843,3.957c0.229,0,0.444-0.007,0.65-0.022
			c0.202-0.013,0.384-0.055,0.544-0.125c0.159-0.07,0.285-0.176,0.38-0.322c0.094-0.144,0.141-0.347,0.141-0.604
			c0-0.218-0.044-0.392-0.126-0.523c-0.085-0.129-0.194-0.227-0.328-0.297c-0.134-0.069-0.289-0.117-0.463-0.14
			c-0.172-0.026-0.346-0.038-0.513-0.038h-1.342v2.071H439.843z"/>
	</g>
</g>
<g>
</g>
<g>
</g>
<g>
</g>
<g>
</g>
<g>
</g>
<g>
</g>
<g>
</g>
<g>
</g>
<g>
</g>
<g>
</g>
<g>
</g>
<g>
</g>
<g>
</g>
<g>
</g>
<g>
</g>
</svg>
